<svg xmlns="http://www.w3.org/2000/svg" fill="none" viewBox="0 0 463 499"><path fill="#EAEAEA" d="m414.13 218.66-128.22-.26a5.04 5.04 0 0 0-4.72 3.67l-30.15 131.1a4.2 4.2 0 0 0 1.05 3.93 5 5 0 0 0 3.67 1.84l91.77-.26c21.5 0 44.05-17.31 49.03-38.8l22.02-95.97a4.2 4.2 0 0 0-1.05-3.94 4.98 4.98 0 0 0-3.4-1.3ZM431.7 0h-95.97a5.03 5.03 0 0 0-4.72 3.67l-30.67 131.36a4.38 4.38 0 0 0 1.05 3.93 4.59 4.59 0 0 0 3.67 1.84h128.73a5.04 5.04 0 0 0 4.72-3.67l22.81-98.06C466.3 17.83 452.93 0 431.7 0ZM243.7 0h-93.07c-21.5 0-42.74 17.83-47.46 39.33l-21.76 95.7a4.71 4.71 0 0 0 4.72 5.77h128.2a5.04 5.04 0 0 0 4.73-3.67l29.63-131.1A5.38 5.38 0 0 0 243.7 0ZM194.41 218.66H66.46a5.04 5.04 0 0 0-4.72 3.67L.13 493.7a4.2 4.2 0 0 0 1.04 3.94 5 5 0 0 0 3.68 1.83H91.1c24.9 0 50.6-20.45 56.1-45.62l51.92-229.68a4.61 4.61 0 0 0-4.72-5.5Z"/></svg>
