<svg xmlns="http://www.w3.org/2000/svg" fill="none" viewBox="0 0 115 24"><path fill="#1863FD" fill-rule="evenodd" d="M39.92 15.38c0 1.04-.38 1.86-1.14 2.46-.77.6-1.82.9-3.18.9a7.57 7.57 0 0 1-3.32-.7v-2.27c.8.35 1.46.6 2 .74.56.14 1.06.2 1.51.2.55 0 .96-.1 1.25-.3.3-.2.44-.5.44-.91a1 1 0 0 0-.2-.6 2.14 2.14 0 0 0-.56-.51c-.24-.17-.75-.43-1.51-.79a7.22 7.22 0 0 1-1.62-.95c-.35-.3-.64-.66-.85-1.06a3 3 0 0 1-.32-1.42c0-1.02.35-1.82 1.05-2.4.7-.59 1.67-.88 2.91-.88.61 0 1.2.07 1.75.21.55.14 1.13.34 1.73.6l-.8 1.9c-.62-.25-1.14-.43-1.55-.53-.4-.1-.81-.15-1.2-.15-.48 0-.84.11-1.09.33-.25.21-.38.5-.38.84 0 .21.06.4.16.56.1.16.26.32.48.47.22.15.75.42 1.58.8a6.26 6.26 0 0 1 2.25 1.55c.4.52.6 1.16.6 1.9Zm8.87 3.2h-6.75V7.05h6.75v2h-4.26v2.54h3.96v2h-3.96v2.97h4.26v2.02Z" clip-rule="evenodd"/><path fill="#1D1D26" fill-rule="evenodd" d="M55.23 12.41h1.33c.9 0 1.55-.16 1.95-.48.4-.33.6-.81.6-1.46 0-.65-.2-1.11-.64-1.4a3.65 3.65 0 0 0-1.97-.42h-1.27v3.76Zm0 1.56v4.6H53.3V7.06h3.33c1.52 0 2.65.28 3.38.84.73.56 1.1 1.4 1.1 2.52 0 1.44-.77 2.46-2.3 3.07l3.33 5.1h-2.19l-2.82-4.6h-1.9Zm13.87 4.6-.38-1.2h-.06c-.43.53-.86.89-1.3 1.08-.44.19-1 .29-1.68.29-.87 0-1.56-.24-2.05-.7a2.56 2.56 0 0 1-.74-1.96c0-.9.35-1.58 1.03-2.03a6 6 0 0 1 3.12-.75l1.54-.05v-.47c0-.55-.14-.97-.4-1.24-.27-.28-.68-.42-1.24-.42-.46 0-.9.07-1.31.2-.42.13-.83.28-1.21.46l-.62-1.32a7.47 7.47 0 0 1 3.22-.76c1.14 0 2 .24 2.57.73.58.48.87 1.24.87 2.28v5.87H69.1Zm-2.82-1.25c.69 0 1.24-.2 1.66-.57.41-.37.62-.9.62-1.58v-.75l-1.14.04c-.9.04-1.54.18-1.95.44-.4.26-.6.66-.6 1.2 0 .38.1.69.35.9.23.21.59.32 1.06.32Zm14.54 1.26h-1.9v-5.36c0-.67-.14-1.18-.42-1.5-.28-.34-.72-.5-1.32-.5-.8 0-1.39.23-1.76.69-.37.46-.55 1.24-.55 2.33v4.34h-1.9V9.86h1.49l.26 1.14h.1c.27-.41.65-.73 1.14-.96.5-.22 1.05-.34 1.65-.34 2.14 0 3.2 1.07 3.2 3.2v5.68Zm4.34-4.6 1.07-1.31 2.7-2.81h2.18l-3.6 3.74 3.82 4.98h-2.22l-2.87-3.82-1.04.83v2.99h-1.87V6.3h1.87v5.99l-.1 1.67h.06Zm9.37 4.6h-1.9V9.86h1.9v8.72Zm-2-11.03c0-.33.09-.59.27-.76.19-.18.45-.27.8-.27.33 0 .6.09.78.27.18.17.27.43.27.76a1 1 0 0 1-.27.75c-.19.18-.45.27-.78.27-.35 0-.61-.1-.8-.27a1 1 0 0 1-.27-.75Zm12.43 11.03h-1.9v-5.36c0-.67-.14-1.18-.42-1.5-.28-.34-.71-.5-1.32-.5-.8 0-1.38.23-1.75.69-.37.46-.56 1.24-.56 2.33v4.34h-1.9V9.86h1.49l.27 1.14h.1c.26-.41.64-.73 1.14-.96a3.9 3.9 0 0 1 1.64-.34c2.14 0 3.21 1.07 3.21 3.2v5.68ZM115 9.86v1.02l-1.53.27a2.6 2.6 0 0 1 .48 1.53c0 .9-.3 1.6-.94 2.12-.64.52-1.51.78-2.62.78-.29 0-.55-.03-.78-.07-.4.25-.6.54-.6.87 0 .2.09.35.28.45.19.1.54.15 1.05.15h1.55c.99 0 1.73.2 2.25.61.5.41.76 1 .76 1.78 0 .98-.42 1.75-1.25 2.28-.83.54-2.04.8-3.61.8a5.08 5.08 0 0 1-2.78-.62 2.03 2.03 0 0 1-.96-1.8c0-.54.17-.99.52-1.35a2.8 2.8 0 0 1 1.46-.76c-.26-.1-.47-.28-.63-.51a1.26 1.26 0 0 1-.25-.74c0-.33.1-.6.29-.83.19-.22.46-.45.84-.67-.47-.2-.84-.5-1.13-.95a2.75 2.75 0 0 1-.43-1.54c0-.94.3-1.68.91-2.2a3.9 3.9 0 0 1 2.61-.78 6.49 6.49 0 0 1 1.42.16H115Zm-7 10.07c0 .4.18.71.55.93.36.21.88.32 1.55.32 1.03 0 1.8-.14 2.3-.43.5-.3.76-.68.76-1.15 0-.38-.14-.65-.41-.81a3.4 3.4 0 0 0-1.55-.24h-1.43c-.55 0-.98.12-1.3.37-.32.25-.48.59-.48 1.01Zm.8-7.25c0 .55.15.97.44 1.26.29.3.7.44 1.24.44 1.1 0 1.64-.57 1.64-1.71 0-.57-.14-1-.4-1.32-.28-.3-.7-.46-1.24-.46-.55 0-.97.16-1.25.46-.28.3-.42.75-.42 1.33Z" clip-rule="evenodd"/><path fill="#1863FD" fill-rule="evenodd" d="M0 2.07C0 .93.93 0 2.09 0h23.29c1.15 0 2.09.93 2.09 2.07v19.86c0 1.14-.94 2.07-2.09 2.07H2.08A2.08 2.08 0 0 1 0 21.93V2.07Zm1.9.84V21.1c0 .56.47 1.03 1.05 1.03h21.57c.59 0 1.05-.46 1.05-1.03V2.91c0-.56-.47-1.03-1.05-1.03H2.95c-.59 0-1.06.46-1.06 1.03Zm.94 9.4c0-.58.44-1.04.98-1.04h4.67a1 1 0 0 1 .98 1.04v8.87H2.84v-8.87Zm7.58-3.75c0-.58.43-1.05.98-1.05h4.67c.54 0 .98.46.98 1.05v12.62h-6.63V8.56ZM18 4.79c0-.57.43-1.03.98-1.03h4.67c.54 0 .98.46.98 1.03v16.4H18V4.78Z" clip-rule="evenodd"/></svg>
