<svg xmlns="http://www.w3.org/2000/svg" viewBox="0 0 24 24">
  <path
    d="M13.68 9.29a1.04 1.04 0 0 0-1.03 1.03v1.1a1.04 1.04 0 0 0 1.03 1.03 1.07 1.07 0 0 0 1.03-1.07v-1.03a1.07 1.07 0 0 0-1.03-1.06Zm-5.82 0a1.07 1.07 0 0 0-1.03 1.06v1.03a1.06 1.06 0 0 0 1.03 1.07 1.05 1.05 0 0 0 1.04-1.03v-1.1a1.04 1.04 0 0 0-1.04-1.03ZM.74 16.26a.29.29 0 0 0 .5-.2 8.08 8.08 0 0 1-.03-.65v-1.87c-.02-1.3.23-2.59.7-3.8a.28.28 0 0 0-.4-.35c-.22.13-.43.28-.62.47C.1 10.64.07 11.63.02 13c-.05 1.39-.08 2.39.65 3.18l.07.07Zm19.45-4.58.11.63a.28.28 0 0 0 .17.2l.62.3a.28.28 0 0 0 .41-.25c-.02-1.36-.28-2.53-1.46-3.16a.28.28 0 0 0-.4.35c.24.62.43 1.27.55 1.93Z"/>
  <path
    d="m1.76 13.54.01 1.87c.01 4.12 2.96 6.31 8.51 6.34a.28.28 0 0 0 .24-.44 5.63 5.63 0 0 1-.61-5.08.28.28 0 0 0 0-.2 5.54 5.54 0 0 1-.15-.32.28.28 0 0 0-.3-.08c-.23.1-.44.2-.64.32-.5.32-1.09.48-1.68.47a2.74 2.74 0 0 1-2.73-2.47 6.8 6.8 0 0 1 1.65-5.28 6.25 6.25 0 0 1 4.71-2.07 6.3 6.3 0 0 1 6.22 5 .28.28 0 0 0 .27.22c.68.01 1.36.1 2.02.28a.28.28 0 0 0 .35-.32c-.8-4.4-4.46-7.74-8.58-7.88V2.6a1.31 1.31 0 0 0 1-1.57 1.31 1.31 0 0 0-2.56.56 1.31 1.31 0 0 0 1 1v1.3c-4.82.08-8.87 4.93-8.73 9.65Z"/>
  <path
    d="M17.06 12.38a7.7 7.7 0 0 0-4.95 1.73c-.2-.18-.35-.38-.47-.6a.84.84 0 0 0-.95-.38.82.82 0 0 0-.62.8c-.01.76.16 1.5.5 2.19-.3.65-.46 1.35-.46 2.07 0 3.2 3.12 5.81 6.95 5.81 3.82 0 6.94-2.6 6.94-5.81 0-3.2-3.12-5.81-6.94-5.81Zm4.34 8a.42.42 0 0 1-.3.12h-8.07a.42.42 0 1 1 0-.84h8.07a.42.42 0 0 1 .3.72Zm0-1.95a.42.42 0 0 1-.3.13h-8.07a.42.42 0 0 1-.3-.72.42.42 0 0 1 .3-.13h8.07a.42.42 0 0 1 .3.72Zm0-1.94a.42.42 0 0 1-.3.12h-8.07a.42.42 0 1 1 0-.84h8.07a.42.42 0 0 1 .3.72Z"/>
</svg>
