<svg xmlns="http://www.w3.org/2000/svg" viewBox="0 0 24 24">
  <path
    d="M12 18.7c-.55.23-1.1.45-1.64.63C11.15 20.9 11.82 21 12 21c.18 0 .85-.09 1.64-1.67-.54-.19-1.09-.4-1.64-.64Zm8.9-6.7c1.55 2.12 2.08 4.26 1.11 6-.94 1.7-2.93 2.31-5.4 2.02C15.58 22.47 14.01 24 12 24c-2 0-3.58-1.53-4.61-3.98-2.47.3-4.46-.31-5.4-2.02-.97-1.74-.44-3.88 1.1-6C1.55 9.88 1.02 7.74 2 6c.94-1.7 2.93-2.31 5.4-2.02C8.42 1.52 9.99 0 12 0c2 0 3.58 1.53 4.61 3.98 2.47-.3 4.46.31 5.4 2.02.97 1.74.44 3.88-1.1 6Zm-3.08 3.16c-.08.66-.18 1.31-.31 1.93 1.49.07 1.8-.4 1.88-.55.11-.2.33-.84-.56-2.25-.31.3-.65.58-1 .87Zm-.31-8.25c.13.62.23 1.27.31 1.94.36.28.7.57 1.01.87.89-1.42.67-2.07.56-2.26-.07-.13-.4-.6-1.88-.55Zm-3.87-2.24C12.84 3.1 12.18 3 12 3c-.18 0-.85.09-1.64 1.67.54.19 1.09.4 1.64.64.55-.24 1.1-.46 1.64-.64ZM6.18 8.84c.08-.67.19-1.31.32-1.93-1.5-.07-1.81.4-1.89.55-.1.2-.33.84.56 2.25.32-.3.66-.58 1.01-.87ZM5.17 14.3c-.89 1.41-.67 2.06-.56 2.25.07.14.4.61 1.88.55a21.3 21.3 0 0 1-.31-1.93c-.36-.29-.7-.58-1.01-.87ZM15.75 12a3.75 3.75 0 1 0-7.5 0 3.75 3.75 0 0 0 7.5 0ZM12 10.5a1.5 1.5 0 1 1 0 3 1.5 1.5 0 0 1 0-3Z"/>
</svg>
