<svg xmlns="http://www.w3.org/2000/svg" viewBox="0 0 24 24">
  <path d="M18.27 20.5a5.42 5.42 0 0 1-5.39-5.44V14h-2.1v1.06c0 3-2.41 5.43-5.39 5.43a5.42 5.42 0 0 1-4.87-7.77c.17-.35 1.5-2.49 2.34-3.91a.4.4 0 0 1 .54-.14.4.4 0 0 1 .14.55l-.59 1a5.33 5.33 0 0 1 7.04 2V8.3a2.74 2.74 0 0 0-2.72-2.75 2.7 2.7 0 0 0-2.33 1.3L4.26 8a.4.4 0 0 1-.54.14.4.4 0 0 1-.14-.55l.69-1.16a3.5 3.5 0 0 1 3.51-1.65c.3-.49.82-.78 1.38-.78.9 0 1.63.73 1.63 1.64v2.85h2.09V5.64c0-.9.73-1.64 1.62-1.64.57 0 1.08.3 1.38.78a3.5 3.5 0 0 1 3.52 1.65c.09.14 3.55 5.9 3.71 6.23a5.44 5.44 0 0 1-4.84 7.83ZM10 5.63a.83.83 0 0 0-.83-.84c-.2 0-.4.07-.55.21.54.23 1.02.58 1.38 1.04v-.42Zm-4.6 4.78a4.62 4.62 0 0 0-4.6 4.64 4.62 4.62 0 0 0 4.6 4.64c2.54 0 4.6-2.08 4.6-4.64a4.62 4.62 0 0 0-4.6-4.64Zm7.49-1.13h-2.1v2.38h2.1V9.29Zm0 3.17h-2.1v.74h2.1v-.74ZM14.5 4.8a.83.83 0 0 0-.83.84v.41c.37-.46.84-.81 1.38-1.04a.82.82 0 0 0-.55-.21Zm4.22 2.05a2.7 2.7 0 0 0-2.32-1.31 2.74 2.74 0 0 0-2.73 2.75v3.93a5.39 5.39 0 0 1 7.04-2l-1.99-3.37Zm-.45 3.57a4.62 4.62 0 0 0-4.6 4.64 4.62 4.62 0 0 0 4.6 4.64c2.54 0 4.6-2.08 4.6-4.64a4.62 4.62 0 0 0-4.6-4.64Zm0 8.36a3.7 3.7 0 0 1-3.69-3.72 3.69 3.69 0 0 1 6.39-2.53.4.4 0 0 1-.15.64.4.4 0 0 1-.43-.1 2.9 2.9 0 0 0-5.01 1.99c0 1.6 1.3 2.92 2.9 2.92A2.91 2.91 0 0 0 21 14.07a.4.4 0 0 1 .4-.53.4.4 0 0 1 .34.26 3.73 3.73 0 0 1-3.47 4.98Zm-12.88 0a3.7 3.7 0 0 1-3.69-3.72 3.7 3.7 0 0 1 3.7-3.72 3.7 3.7 0 0 1 3.68 3.72 3.7 3.7 0 0 1-3.69 3.72Zm0-6.64c-1.6 0-2.9 1.3-2.9 2.92 0 1.6 1.3 2.92 2.9 2.92 1.6 0 2.9-1.31 2.9-2.92 0-1.61-1.3-2.92-2.9-2.92Z"/>
</svg>
