<svg xmlns="http://www.w3.org/2000/svg" viewBox="0 0 24 24">
  <path d="M21.42 1.85H2.74A2.38 2.38 0 0 0 .4 4.22v13a2.38 2.38 0 0 0 2.34 2.37h3.11v3.94a.4.4 0 0 0 .48.38.4.4 0 0 0 .2-.11l3.78-4.21h11.11a2.38 2.38 0 0 0 2.34-2.37v-13a2.38 2.38 0 0 0-2.34-2.37ZM5.07 6.97h5.84a.4.4 0 0 1 .4.4.4.4 0 0 1-.4.4H5.08a.4.4 0 0 1-.4-.4c0-.22.18-.4.4-.4Zm13.24 7.1H5.08a.4.4 0 0 1-.4-.4c0-.21.18-.39.4-.39H18.3c.1 0 .2.05.26.12a.4.4 0 0 1 0 .55.39.39 0 0 1-.26.12Zm0-3.15H5.08a.38.38 0 0 1-.36-.25.4.4 0 0 1 .36-.55H18.3a.4.4 0 0 1 .39.4.4.4 0 0 1-.39.4Z"/>
</svg>
