<svg xmlns="http://www.w3.org/2000/svg" viewBox="0 0 24 24">
  <path
    d="M10.6 11.24h1.52l.6-1.72h-1.53l-.6 1.72ZM20.67 3.1H3.42A3.1 3.1 0 0 0 .34 6.24v9.08a3.1 3.1 0 0 0 3.08 3.13h3.71l-.2 2.44 3.24-2.44h10.5a3.1 3.1 0 0 0 3.08-3.13V6.24a3.1 3.1 0 0 0-3.08-3.13ZM14.8 10.1h-.77l-.46 1.31h.4c.7 0 1.04.29 1.04.85s-.35.84-1.04.84H13l-.63 1.86c-.2.55-.55.76-1.06.62a.68.68 0 0 1-.5-.46.92.92 0 0 1 .03-.66l.47-1.36h-1.18l-.63 1.86c-.2.55-.55.76-1.06.62a.68.68 0 0 1-.5-.46.92.92 0 0 1 .03-.67l.47-1.35c-.56-.06-.83-.34-.83-.85 0-.56.34-.84 1.03-.84h.38l.45-1.31h-.14c-.69 0-1.03-.28-1.03-.84 0-.56.34-.85 1.03-.85h.72l.73-2.1c.2-.54.55-.73 1.08-.57.25.07.4.22.47.44.07.21.06.45-.03.65l-.55 1.58h1.17l.73-2.1c.2-.54.55-.73 1.08-.57.25.07.4.22.47.44.07.21.06.45-.03.65l-.55 1.58h.19c.69 0 1.03.29 1.03.85s-.34.84-1.03.84Z"/>
</svg>
