<svg xmlns="http://www.w3.org/2000/svg" viewBox="0 0 24 24">
  <path d="M17.95 3.86H6.59c-1.2 0-2.16.97-2.16 2.17v11.36c0 1.2.97 2.16 2.16 2.16h11.36c1.2 0 2.16-.97 2.16-2.16V6.03c0-1.2-.97-2.17-2.16-2.17Zm3.37 3.4h2.1a.35.35 0 0 0 0-.7h-2.1a.35.35 0 0 0 0 .7Zm2.1 1.2h-2.1a.35.35 0 0 0 0 .7h2.1a.35.35 0 0 0 0-.7Zm0 1.94h-2.1a.35.35 0 0 0 0 .7h2.1a.35.35 0 0 0 0-.7Zm0 1.9h-2.1a.35.35 0 0 0 0 .71h2.1a.35.35 0 0 0 0-.7Zm0 1.77h-2.1a.35.35 0 0 0-.35.35.35.35 0 0 0 .35.34h2.1a.35.35 0 0 0 .34-.34.35.35 0 0 0-.35-.35Zm0 1.9h-2.1a.35.35 0 0 0-.25.6c.07.06.16.1.25.1h2.1a.35.35 0 0 0 .24-.6.35.35 0 0 0-.25-.1ZM2.74 6.56H.66a.35.35 0 1 0 0 .7h2.1a.35.35 0 0 0 0-.7Zm0 1.9H.66a.35.35 0 0 0 0 .7h2.1c.19 0 .34-.16.34-.35 0-.2-.15-.35-.35-.35Zm0 1.94H.66a.35.35 0 0 0 0 .7h2.1c.19 0 .34-.15.34-.35 0-.19-.15-.35-.35-.35Zm0 1.9H.66a.35.35 0 0 0 0 .71h2.1a.35.35 0 0 0 0-.7Zm0 1.77H.66a.35.35 0 0 0-.35.35c0 .19.16.34.35.34h2.1c.19 0 .34-.15.34-.34a.35.35 0 0 0-.35-.35Zm0 1.9H.66a.35.35 0 0 0-.35.35c0 .2.16.35.35.35h2.1c.19 0 .34-.16.34-.35 0-.19-.15-.35-.35-.35Zm14.23 4.85a.35.35 0 0 0-.35.35v2.09a.35.35 0 0 0 .35.35c.19 0 .35-.16.35-.35v-2.1c0-.19-.16-.34-.35-.34Zm-1.9 0c-.2 0-.36.15-.36.35v2.09a.35.35 0 0 0 .7 0v-2.1c0-.19-.16-.34-.35-.34Zm-1.95 0c-.2 0-.35.15-.35.35v2.09c0 .19.16.35.35.35.2 0 .35-.16.35-.35v-2.1a.35.35 0 0 0-.21-.32.35.35 0 0 0-.14-.02Zm-1.9 0a.35.35 0 0 0-.35.35v2.09a.35.35 0 0 0 .7 0v-2.1c0-.19-.16-.34-.35-.34Zm-1.76 0a.35.35 0 0 0-.35.35v2.09a.35.35 0 0 0 .7 0v-2.1c0-.19-.16-.34-.35-.34Zm-1.9 0a.35.35 0 0 0-.36.35v2.09a.35.35 0 0 0 .35.35c.2 0 .35-.16.35-.35v-2.1c0-.19-.15-.34-.35-.34Zm9.4-17.87c.2 0 .36-.16.36-.35V.5a.35.35 0 0 0-.7 0v2.1c0 .19.16.35.35.35Zm-1.9 0c.2 0 .35-.16.35-.35V.5a.35.35 0 0 0-.7 0v2.1c0 .19.16.35.35.35Zm-1.94 0c.2 0 .35-.16.35-.35V.5a.35.35 0 0 0-.7 0v2.1a.35.35 0 0 0 .35.35Zm-1.9 0c.19 0 .35-.16.35-.35V.5a.35.35 0 0 0-.7 0v2.1c0 .19.15.35.35.35Zm-1.76 0a.35.35 0 0 0 .35-.35V.5a.35.35 0 1 0-.7 0v2.1a.35.35 0 0 0 .35.35Zm-1.9 0c.19 0 .34-.16.34-.35V.5a.35.35 0 1 0-.7 0v2.1a.35.35 0 0 0 .35.35Z"/>
</svg>
