<svg xmlns="http://www.w3.org/2000/svg" viewBox="0 0 24 24">
  <path
    d="M13.4 14.33v-1.55a1.1 1.1 0 0 0-2.2 0v1.4c0 1.68-.63 3.3-1.75 4.55L7.9 20.45a.35.35 0 1 0 .52.47l1.55-1.72a7.5 7.5 0 0 0 1.93-5.02v-1.4a.4.4 0 0 1 .8 0v1.55c0 2.07-.77 4.05-2.16 5.59l-1.51 1.66a.35.35 0 0 0 .52.48l1.51-1.67a9 9 0 0 0 2.35-6.06Zm1.51-1.55a2.61 2.61 0 0 0-5.22 0v1.4c0 1.3-.48 2.57-1.36 3.54l-1.1 1.23a.35.35 0 1 0 .52.47l1.1-1.23a6 6 0 0 0 1.55-4.01v-1.4a1.9 1.9 0 0 1 3.8 0v1.55c0 2.45-.9 4.79-2.54 6.6l-1.28 1.4a.35.35 0 0 0 .52.48l1.28-1.4a10.5 10.5 0 0 0 2.73-7.08v-1.55Zm1.5 0a4.12 4.12 0 0 0-8.23 0v1.4c0 .94-.34 1.84-.97 2.53l-1 1.1a.35.35 0 0 0 .53.48l1-1.1a4.49 4.49 0 0 0 1.15-3.01v-1.4a3.41 3.41 0 0 1 6.82 0v1.55a11.3 11.3 0 0 1-2.94 7.61l-.35.39a.35.35 0 1 0 .52.48l.35-.4a12 12 0 0 0 3.13-8.08v-1.55Zm-9.73 0a.35.35 0 1 0 .7 0 4.9 4.9 0 0 1 4.22-4.86.35.35 0 1 0-.1-.7 5.62 5.62 0 0 0-4.82 5.56Zm.7 1.4a.35.35 0 1 0-.7 0c0 .56-.2 1.1-.59 1.53l-.88.98a.35.35 0 1 0 .52.47l.89-.98c.5-.55.76-1.26.76-2Zm9.85 3.15a.35.35 0 0 0-.43.25c-.13.5-.3 1-.48 1.47a.35.35 0 0 0 .65.26c.2-.5.37-1.02.51-1.55a.35.35 0 0 0-.25-.43ZM16.06 8.6a.35.35 0 1 0-.48.53 4.93 4.93 0 0 1 1.64 3.65v1.55a12.98 12.98 0 0 1-.12 1.9.35.35 0 0 0 .7-.05c.08-.61.12-1.23.12-1.85v-1.55a5.63 5.63 0 0 0-1.86-4.18Zm-1.65-.26a.35.35 0 1 0 .3-.64 5.6 5.6 0 0 0-1.6-.48.35.35 0 0 0-.1.7c.48.07.95.21 1.4.42Zm-2.1-2.68h-.4a.35.35 0 0 0 .03.71h.36a6.43 6.43 0 0 1 6.42 6.41v1.55a.35.35 0 1 0 .7 0v-1.55c0-3.93-3.19-7.12-7.12-7.12ZM8.43 7.57c.07 0 .14-.02.2-.06.59-.41 1.24-.72 1.92-.9a.35.35 0 0 0-.2-.69 7.1 7.1 0 0 0-2.12 1 .35.35 0 0 0 .2.65Zm-2.56 6.61v-1.4c0-1.64.62-3.2 1.75-4.4a.35.35 0 0 0-.51-.48 7.1 7.1 0 0 0-1.95 4.88v1.4c0 .2-.07.38-.2.52l-.43.48a.35.35 0 0 0 .28.6.35.35 0 0 0 .24-.13l.44-.48c.24-.27.38-.62.38-.99Zm14.6-4.14c-.38-1.15-1-2.2-1.82-3.1a.35.35 0 0 0-.52.49 7.88 7.88 0 0 1 1.68 2.83.35.35 0 0 0 .67-.22Zm-5.4-5.43a.35.35 0 1 0-.22.67 7.9 7.9 0 0 1 2.17 1.15.35.35 0 1 0 .42-.57 8.6 8.6 0 0 0-2.36-1.25ZM6.83 7.06a7.89 7.89 0 0 1 6.62-2.12.35.35 0 1 0 .1-.7 8.59 8.59 0 0 0-7.21 2.31 8.59 8.59 0 0 0-2.65 5.84.35.35 0 1 0 .7.03c.1-2.03.96-3.94 2.44-5.36Zm5.48-4.42c-.79 0-1.57.1-2.34.28a.35.35 0 0 0 .17.68 9.46 9.46 0 0 1 9.09 2.73.35.35 0 0 0 .46-.18.35.35 0 0 0-.07-.39 10.11 10.11 0 0 0-7.3-3.12Zm-7.93 4.4a.35.35 0 0 0 .5-.06A9.5 9.5 0 0 1 8.7 4.06a.35.35 0 0 0-.27-.65A10.2 10.2 0 0 0 4.3 6.54a.35.35 0 0 0 .06.5Zm3.04-4.08.15-.03a10.81 10.81 0 0 1 7.3-.78.35.35 0 0 0 .17-.69 11.66 11.66 0 0 0-7.78.83.35.35 0 0 0 .16.67Zm8.93-.34c.36.14.72.3 1.07.5a.35.35 0 1 0 .33-.63c-.37-.2-.75-.38-1.14-.53a.35.35 0 0 0-.26.66Z"/>
</svg>
