<svg xmlns="http://www.w3.org/2000/svg" viewBox="0 0 25 24">
  <path d="M7.84 9.27H5.88V3.9l.02-.89.03-.96c-.33.33-.55.54-.68.64l-1.07.86-.94-1.18L6.23 0h1.6v9.27Zm11.13-4.49c0 1.14.1 1.95.3 2.44.19.5.52.74.99.74.45 0 .78-.25.99-.74.2-.5.3-1.32.3-2.44a7 7 0 0 0-.3-2.45c-.21-.5-.54-.74-1-.74-.45 0-.78.24-.98.74-.2.5-.3 1.31-.3 2.45Zm4.53 0c0 1.62-.26 2.82-.8 3.6-.52.77-1.34 1.16-2.44 1.16-1.07 0-1.88-.4-2.42-1.2-.55-.8-.82-2-.82-3.56 0-1.64.27-2.84.8-3.62C18.33.4 19.15 0 20.25 0c1.07 0 1.87.4 2.42 1.22.55.8.82 2 .82 3.56Zm-1.88 19.1h-1.96V18.5l.02-.88.03-.97c-.32.33-.55.54-.68.65l-1.06.85-.95-1.18 2.99-2.38h1.6v9.27ZM5.83 19.23c0 1.14.1 1.95.3 2.44.2.5.52.74.99.74.46 0 .79-.25.99-.75.2-.5.3-1.3.3-2.43a7 7 0 0 0-.3-2.45c-.21-.5-.54-.75-1-.75-.45 0-.78.25-.98.75-.2.5-.3 1.31-.3 2.45Zm4.54 0c0 1.62-.27 2.82-.8 3.6C9.04 23.6 8.22 24 7.12 24c-1.07 0-1.88-.4-2.42-1.2-.54-.8-.81-2-.81-3.56 0-1.64.26-2.84.79-3.62.53-.77 1.34-1.16 2.44-1.16 1.07 0 1.88.4 2.42 1.22.55.8.83 2 .83 3.56Z"/>
</svg>
