<svg xmlns="http://www.w3.org/2000/svg" viewBox="0 0 24 24">
  <path
    d="M24.14 9.71v-3.2h-1.8a6.44 6.44 0 0 0-.7-1.65l1.28-1.28-2.26-2.27-1.28 1.28a6.3 6.3 0 0 0-1.65-.68V.1h-3.2v1.8c-.59.15-1.14.38-1.66.68L11.6 1.31 9.33 3.58l1.28 1.28c-.31.51-.54 1.07-.7 1.65h-1.8v3.2h1.8c.16.58.39 1.14.7 1.66l-1.28 1.27 2.26 2.27 1.28-1.28c.5.3 1.06.54 1.65.69v1.8h3.2v-1.8a6.39 6.39 0 0 0 1.66-.69l1.28 1.28 2.26-2.27-1.27-1.27c.3-.51.53-1.07.68-1.66h1.8Zm-8.01 1.07a2.67 2.67 0 1 1 0-5.34 2.67 2.67 0 0 1 0 5.34Zm-7 5.84.85-.85-1.51-1.5-.86.84c-.34-.2-.71-.36-1.1-.46v-1.2H4.38v1.2c-.4.1-.76.26-1.1.46l-.86-.85-1.51 1.51.85.85c-.2.35-.36.72-.46 1.1H.1v2.14h1.2c.1.39.26.76.46 1.1l-.85.86 1.5 1.5.86-.85c.35.2.72.36 1.1.46v1.2h2.14v-1.2c.39-.1.76-.25 1.1-.46l.85.86 1.51-1.52-.85-.85c.2-.34.36-.7.46-1.1h1.2v-2.14h-1.2c-.1-.38-.25-.75-.46-1.1Zm-3.69 3.95a1.78 1.78 0 1 1 0-3.56 1.78 1.78 0 0 1 0 3.56Z"/>
</svg>
