<svg xmlns="http://www.w3.org/2000/svg" viewBox="0 0 24 24">
  <path d="M21.7 16.86H.27V6.19H21.7l2.04 5.58-2.05 5.09ZM.8 16.32h20.54l1.84-4.56-1.85-5.03H.8v9.59Zm1.1-8.75h.54v8.16H1.9V7.57Zm9.72 2.01c.35 0 .69.1.98.28l.33.22a.29.29 0 0 0 .37-.03l.97-.95a.3.3 0 0 0-.04-.45l-.56-.39a.25.25 0 0 0-.04-.02l-.54-.27h-.03a3.98 3.98 0 0 0-4.22.84 3.94 3.94 0 0 0-1.18 2.82 3.94 3.94 0 0 0 4.01 4c1.07 0 2.08-.42 2.77-1.15.54-.58.87-1.35.96-2.23V11.4l-.04-.27a.3.3 0 0 0-.29-.25h-3.36a.3.3 0 0 0-.3.3v1.16c0 .16.14.29.3.29h1.71a1.9 1.9 0 0 1-1.76 1.1c-.55 0-1.09-.21-1.46-.6-.78-.79-.77-2.17.02-2.96.37-.37.87-.57 1.4-.58Z"/>
</svg>
