<svg xmlns="http://www.w3.org/2000/svg" viewBox="0 0 24 24">
  <path d="M4.7 7.93c1.1 0 2-.92 2-2.04 0-1.13-.9-2.05-2-2.05-1.11 0-2.02.92-2.02 2.05 0 1.12.9 2.04 2.01 2.04Zm0-3.33a1.28 1.28 0 0 1 1.25 1.28c0 .71-.56 1.29-1.26 1.29s-1.26-.58-1.26-1.28A1.27 1.27 0 0 1 4.7 4.6Zm1.33 7.17a5.7 5.7 0 0 0 3.27-1.03 5.86 5.86 0 0 0 2.12-2.73h3.75l1.5 1.53a.37.37 0 0 0 .4.08.37.37 0 0 0 .13-.08l1.35-1.38 1.35 1.38a.38.38 0 0 0 .26.1.37.37 0 0 0 .27-.1l3.23-3.39a.39.39 0 0 0 0-.53l-1.63-1.74a.37.37 0 0 0-.27-.12H11.5a6.18 6.18 0 0 0-2.05-2.63A5.72 5.72 0 0 0 6.03 0 5.84 5.84 0 0 0 .26 5.89a5.83 5.83 0 0 0 5.77 5.88Zm0-11c2.14 0 4.1 1.4 4.86 3.5a.38.38 0 0 0 .35.26H21.6l1.27 1.35-2.71 2.84-1.35-1.37a.37.37 0 0 0-.4-.08.37.37 0 0 0-.13.08l-1.34 1.38-1.35-1.38a.37.37 0 0 0-.27-.1h-4.16a.37.37 0 0 0-.22.06.38.38 0 0 0-.14.2 5.1 5.1 0 0 1-1.82 2.53c-.86.63-1.9.97-2.95.97a5.08 5.08 0 0 1-5.02-5.12A5.08 5.08 0 0 1 6.03.76Zm5.4 5.5h9.8c.1 0 .2-.04.26-.11a.39.39 0 0 0 0-.55.37.37 0 0 0-.26-.1h-9.8c-.1 0-.19.03-.26.1a.39.39 0 0 0 0 .55c.07.07.17.1.27.1ZM.64 15.85H7.7c.2 0 .37-.17.37-.39v-2.03a.38.38 0 0 0-.37-.39H.63a.4.4 0 0 0-.38.39v2.03c0 .22.17.39.38.39Zm.38-2.04h6.31v1.27H1.01v-1.27Zm22.38-.77h-4.56a.4.4 0 0 0-.38.39v2.03c0 .22.17.39.38.39h4.56c.21 0 .38-.17.38-.39v-2.03a.38.38 0 0 0-.38-.39Zm-.37 2.04H19.2v-1.27h3.82v1.27Zm-5.32.38v-2.03a.38.38 0 0 0-.37-.39H9.2a.39.39 0 0 0-.38.39v2.03c0 .22.17.39.38.39h8.13c.2 0 .37-.17.37-.39Zm-.75-.38H9.57v-1.27h7.38v1.27ZM.63 19.92H5.2c.2 0 .37-.17.37-.38V17.5a.38.38 0 0 0-.37-.38H.63c-.2 0-.37.17-.37.38v2.04c0 .21.16.38.37.38Zm.38-2.03h3.81v1.27H1.01v-1.27Zm22.38-.77h-9.06a.38.38 0 0 0-.38.38v2.04c0 .21.17.38.38.38h9.06c.21 0 .38-.17.38-.38V17.5a.38.38 0 0 0-.38-.38Zm-.37 2.04H14.7v-1.27h8.32v1.27ZM6.7 17.12a.38.38 0 0 0-.38.38v2.04c0 .21.17.38.38.38h6.12c.21 0 .38-.17.38-.38V17.5a.38.38 0 0 0-.38-.38H6.7Zm5.75 2.04H7.07v-1.27h5.38v1.27ZM9.2 21.2H.63c-.2 0-.37.17-.37.38v2.04c0 .2.16.38.37.38H9.2c.2 0 .37-.17.37-.38v-2.04a.38.38 0 0 0-.37-.38Zm-.38 2.04H1.01v-1.28h7.81v1.28ZM23.4 21.2h-7.06a.38.38 0 0 0-.38.38v2.04c0 .2.17.38.38.38h7.06c.21 0 .38-.17.38-.38v-2.04a.38.38 0 0 0-.38-.38Zm-.37 2.04H16.7v-1.28h6.32v1.28Zm-8.2-2.04H10.7c-.2 0-.38.17-.38.38v2.04c0 .2.17.38.38.38h4.13c.2 0 .37-.17.37-.38v-2.04a.38.38 0 0 0-.37-.38Zm-.37 2.04h-3.38v-1.28h3.38v1.28Z"/>
</svg>
