<svg xmlns="http://www.w3.org/2000/svg" viewBox="0 0 24 24">
  <path d="M1.45 22.81c.68.65 1.95.41 2.82-.52l4.62-4.91a8.61 8.61 0 0 0 5.25 1.79 8.7 8.7 0 0 0 8.68-8.71 8.7 8.7 0 0 0-8.68-8.7A8.7 8.7 0 0 0 6.87 15.2c-.48.11-.98.4-1.4.83l-5.26 5.6 1.24 1.17Zm12.7-18.73a6.37 6.37 0 1 1-.03 12.74 6.37 6.37 0 0 1 .02-12.74Zm2.91 3.09a1.13 1.13 0 0 0-1.55.45l-2.12 3.87-1.21-1.23a1.13 1.13 0 0 0-1.61 0 1.17 1.17 0 0 0 0 1.63l2.28 2.32a1.13 1.13 0 0 0 1.8-.26l2.85-5.2c.3-.57.11-1.27-.44-1.58Z"/>
</svg>
