<svg xmlns="http://www.w3.org/2000/svg" viewBox="0 0 24 24">
  <path d="M14 3.92c.35-.3 1.31-.67 1.93-.53.34-.17.7-.18 1.05-.31.2-.08.37-.24.58-.34.3-.16.64-.26.95-.39.34-.13.7-.16 1.04-.25.22-.06.44-.15.67-.21.24-.06.5-.1.7-.2.2-.07.34-.26.53-.35.42-.2.91-.2 1.3 0 0 .15.1.21.14.32-.07.09-.07.23-.17.3-.23.02-.3-.11-.42-.2-.2.06-.35.14-.53.21.14.06.43.03.36.24-.06.17-.9.08-1.12.04-.7.3-1.21.95-1.93 1.25-.24.1-.51.13-.78.25-.11.05-.2.13-.3.2-.37.2-.8.3-1.19.5.53.1.97-.03 1.57 0 1 .05 2.02.5 2.88.4.45-.05.83-.1 1.25.09.16.07.33.24.38.4.07.07-.08.01-.08.06v.26c-.05-.02-.15.03-.13-.04 0 .16-.15.12-.23.16-.24-.13-.28-.45-.68-.35.08.12.29.13.27.35-.13.1-.27-.03-.4-.08-.14-.06-.3-.07-.44-.13-.13-.05-.23-.17-.34-.19-.32-.06-.73.12-1.1.2-.35.06-.77.14-1.13.14-.29 0-.5-.1-.8-.1a20 20 0 0 0-1.7.08h-.4c-.3-.02-.7-.2-.9-.15-.14.03-.25.32-.32.6-.19.65-.55 1.4-.55 2.15 0 .3.08.57.1.77.02.16-.02.38 0 .5.03.17.12.35.17.51.06.18.09.35.1.55.12 1.14.6 2.1.83 3.18.07.3.05.61.07.93.01.21.08.43.1.66v.33c.09.63.49 1.07.68 1.57.12.3.14.64.21.97.07.34.05.7.1 1.06.1.54.37 1.56.64 1.93.19.25.79.44.77.74-.01.15-.18.18-.2.32-.13 0-.24.04-.27.14-.2-.18-.28.13-.55.05-.08-.03-.25-.23-.3-.36-.06-.17 0-.36-.2-.4-.08-.16-.08-.3-.13-.45-.06-.15-.19-.24-.22-.36-.03-.14.01-.3-.02-.42-.05-.25-.25-.5-.38-.74-.14-.27-.22-.55-.36-.76a3.8 3.8 0 0 1-.63-1.61c-.03-.21.02-.42-.1-.66-.06.32-.3.62-.33.95-.03.34.18.71.2 1.09 0 .37-.16.83-.26 1.24-.14.57-.34 1.11-.25 1.82 0 .1.06.19.06.28 0 .14-.05.27-.06.4-.02.4.18.75.19 1.15-.22.04-.48.05-.66.14-.12-.05-.13-.06-.27-.02-.1.01-.08-.1-.15-.1-.15.04-.34-.02-.38-.13-.08-.24.23-.46.32-.7.05-.13.07-.34.06-.44 0-.1-.06-.19-.06-.26-.01-.18.07-.36.08-.55.1-1.16-.56-2.2-.34-3.43.05-.23.2-.44.24-.7.05-.3.03-.66 0-.97-.03-.2-.12-.4-.15-.6-.1-.63-.2-1.24-.25-1.92-.06.47-.29.9-.3 1.4 0 .21.04.41.02.61-.03.31-.13.63-.21.91-.08.28-.27.58-.28.83-.01.34.2.7.22 1.04 0 .38-.19.97-.28 1.35-.15.62-.38 1.38-.15 2-.2.5.06 1.04.1 1.56a.36.36 0 0 1-.42.04l-.23.1c-.11-.05-.11-.09-.25-.04-.1.03-.08-.07-.17-.1-.16-.05-.33.04-.38-.13-.1-.28.24-.52.31-.72.07-.2.05-.43.03-.63-.02-.21.04-.41.06-.62.1-1.18-.5-2.02-.36-3.22.04-.33.22-.58.25-.95.05-.4 0-.88-.06-1.2l-.55.8c-.06.38-.03.73-.1 1.06-.06.23-.24.47-.37.7l-.35.7c-.25.44-.57.9-.64 1.48 0 .07.02.15 0 .23-.02.1-.13.2-.17.32-.12.33-.06.8-.19 1.2-.25.14-.33-.15-.61-.04-.09-.07-.09-.11-.26-.08 0-.21-.29-.15-.36-.3.1-.59.74-.62.68-1.35.68-1.02.35-2.85.95-3.94.1-.18.26-.3.36-.51.11-.22.24-.65.3-.93.04-.2.01-.44.04-.66.13-.95.33-1.97.6-2.83.1-.37.26-.73.29-1.09.02-.27 0-.55.08-.8.1-.34.25-.52.26-.93 0-.37.21-.63.17-1.06-.05-.46-.33-.94-.53-1.38-.22-.45-.27-.97-.6-1.31-.84.09-1.8.13-2.66.06-.14 0-.27-.06-.4-.06-.29 0-.55.12-.83.1-.35 0-.71-.13-1.04-.2-.36-.09-.7-.14-1.06-.2-.31.15-.67.47-1.05.4-.09-.2.13-.26.25-.33-.18-.04-.39-.01-.57 0-.09.14-.14.33-.3.34-.13 0-.14-.16-.25-.11-.08-.13.06-.27-.04-.4.22-.37.67-.56 1.16-.53.2 0 .41.13.64.1.98-.1 2.1-.46 3.34-.35.32.02.6.13.93.02-.2-.13-.43-.19-.65-.28-.21-.08-.39-.22-.6-.32-.27-.12-.6-.13-.89-.25-.33-.14-.67-.42-.97-.63-.33-.23-.63-.44-.95-.62-.38.07-.8.1-1.19 0-.08-.22.18-.25.38-.25-.15-.11-.36-.16-.55-.23-.13.06-.27.24-.44.19-.13-.04-.07-.18-.2-.26.02-.15.16-.18.15-.36.4-.2 1-.2 1.44.05.18.1.32.26.51.33.26.1.6.13.91.22.83.23 1.81.43 2.56.8.25.12.47.3.79.38.15.04.32.08.46.13.16.05.33.14.43.15.08 0 .18-.06.27-.07a3.6 3.6 0 0 1 1.74.57c.48.03.95-.98.63-1.46-.06-.09-.2-.11-.25-.19a.68.68 0 0 1-.08-.36c0-.09.05-.19.04-.3-.02-.13-.16-.19-.17-.27-.03-.19.1-.38.17-.5.07-.18.21-.27.3-.41C11.5.14 12.5 0 12.85.34c.08.08.32.25.37.43.08.3.28.6.03.8.16.27.06.73-.15.87.06.74.46 1.14.9 1.49Z"/>
</svg>
