<svg xmlns="http://www.w3.org/2000/svg" viewBox="0 0 24 24">
  <path
    d="M18.64 11.95c0-5.43-2.75-9.85-6.15-9.85-3.38 0-6.14 4.42-6.14 9.85 0 5.42 2.76 9.84 6.14 9.84 3.4 0 6.15-4.42 6.15-9.84ZM7.08 19.37l-.04-.06.02.07h.02Zm13.33-3.1c-.23.6-.82.94-1.42.88a1.35 1.35 0 0 1-1 2.44 1.36 1.36 0 0 1-1.85 1.92 1.35 1.35 0 0 1-2.34 1.36 1.35 1.35 0 0 1-2.68-.09l-.1-.03a1.35 1.35 0 0 1-2.4-1.18 1.36 1.36 0 0 1-1.7-2.04 1.39 1.39 0 0 1-1.2-2.42 1.35 1.35 0 0 1-.68-2.49A1.36 1.36 0 0 1 5 12a1.36 1.36 0 0 1 .34-2.66 1.36 1.36 0 0 1 .61-2.62 1.38 1.38 0 0 1 1.28-2.43 1.4 1.4 0 0 1 1.74-2.15A1.36 1.36 0 0 1 11.33.87c.2-.5.7-.87 1.27-.87.67 0 1.23.49 1.34 1.13l.05.01a1.36 1.36 0 0 1 2.3 1.35 1.36 1.36 0 0 1 1.52.16c.53.45.63 1.21.26 1.78a1.36 1.36 0 0 1 1.09 2.4 1.36 1.36 0 0 1 .63 2.56 1.35 1.35 0 0 1 .04 2.59v.04a1.35 1.35 0 0 1-.04 2.59c.58.32.86 1.02.62 1.66Zm-8.94 2.13.55.22 2.71-6.59-.55-.22-2.71 6.59ZM13.42 5.3l-.55-.23-2.72 6.6.55.22 2.72-6.59Zm1.85-.57.55.22-5.89 14.3-.55-.22 5.89-14.3Z"/>
</svg>
