<svg xmlns="http://www.w3.org/2000/svg" viewBox="0 0 24 24">
  <path d="M2.52 4.25h-.88V1.43L1.67 1l-.3.29-.49.38-.42-.53L1.8.07h.72v4.18Zm5.03-2.1c0 .52.04.89.13 1.11.1.23.24.34.45.34.2 0 .36-.12.45-.34.09-.23.14-.6.14-1.1 0-.51-.05-.88-.14-1.1-.1-.23-.24-.34-.45-.34-.2 0-.36.1-.45.33-.08.23-.13.6-.13 1.1Zm2.05 0c0 .74-.12 1.28-.36 1.63-.24.35-.61.53-1.1.53-.5 0-.86-.18-1.1-.54-.25-.37-.37-.9-.37-1.61 0-.74.12-1.28.36-1.63.24-.35.6-.53 1.1-.53.48 0 .85.18 1.1.55.24.37.37.9.37 1.6Zm5.54-.57c.4 0 .73.11.97.34.24.23.36.54.36.93 0 .47-.15.83-.44 1.08-.29.25-.7.38-1.23.38a2.4 2.4 0 0 1-1.13-.23v-.76a2.34 2.34 0 0 0 1.1.27c.53 0 .8-.22.8-.66 0-.43-.28-.64-.83-.64a2.08 2.08 0 0 0-.64.1l-.35-.2.16-2.12h2.27v.75h-1.5l-.07.82.1-.02c.11-.03.26-.04.43-.04Zm7.12-.92a.55.55 0 0 0-.36.11.38.38 0 0 0-.14.32c0 .11.04.21.1.3.08.1.22.19.4.28.2-.09.33-.18.4-.27.07-.09.11-.2.11-.31a.38.38 0 0 0-.14-.32.57.57 0 0 0-.37-.11Zm-.64 2.48c0 .16.05.29.17.38.11.1.27.14.47.14.22 0 .38-.05.49-.14.1-.1.16-.22.16-.38a.51.51 0 0 0-.16-.36 2.1 2.1 0 0 0-.52-.35c-.41.19-.61.42-.61.7ZM22.27 0c.4 0 .72.1.97.27a.9.9 0 0 1 .37.74c0 .22-.06.4-.18.57a1.5 1.5 0 0 1-.57.45c.3.17.53.35.67.53.14.18.2.38.2.6a1 1 0 0 1-.4.83c-.27.2-.62.31-1.06.31-.46 0-.82-.1-1.08-.3a.97.97 0 0 1-.4-.82c0-.24.07-.45.2-.64.12-.18.33-.34.6-.49a1.57 1.57 0 0 1-.5-.48.94.94 0 0 1-.16-.56c0-.3.12-.55.37-.73.25-.19.57-.28.97-.28ZM.75 10.82 2.32 7.4H.26v-.75h3v.56l-1.58 3.62H.75Zm7.43-.65c.19 0 .33-.06.43-.19.1-.13.15-.3.15-.54 0-.2-.04-.37-.14-.48-.1-.12-.23-.18-.43-.18a.66.66 0 0 0-.46.17.54.54 0 0 0-.19.41c0 .23.06.42.18.58.12.15.27.23.46.23ZM6.67 9.04c0-.83.17-1.44.52-1.85.35-.4.88-.6 1.57-.6.24 0 .43.01.57.04v.7a2.29 2.29 0 0 0-.5-.05c-.31 0-.56.05-.75.14a.84.84 0 0 0-.43.4c-.1.18-.15.44-.17.77h.04c.18-.33.49-.49.9-.49.38 0 .67.12.88.35.21.24.32.56.32.98 0 .44-.13.8-.38 1.06s-.6.39-1.05.39a1.4 1.4 0 0 1-1.34-.84c-.12-.28-.18-.6-.18-1Zm9.7-1.47c0 .26-.07.49-.23.67-.16.18-.38.3-.67.38v.01c.34.05.6.15.77.31.18.16.26.38.26.66 0 .4-.14.72-.44.94-.29.23-.7.34-1.25.34-.45 0-.85-.08-1.2-.23V9.9a2.75 2.75 0 0 0 1.1.28c.3 0 .52-.05.66-.15.13-.1.2-.26.2-.48 0-.2-.08-.34-.24-.42a1.78 1.78 0 0 0-.76-.12h-.32v-.68h.32c.33 0 .56-.04.71-.13.15-.08.23-.23.23-.43 0-.32-.2-.48-.6-.48-.14 0-.28.02-.42.07-.14.05-.3.12-.47.24l-.41-.61c.38-.28.84-.41 1.37-.41.43 0 .77.08 1.02.26.25.17.38.42.38.73Zm7.38 3.25h-2.93v-.61l1.06-1.07c.3-.32.51-.54.6-.66.1-.12.17-.24.21-.34.04-.1.07-.22.07-.33 0-.17-.05-.3-.14-.37a.54.54 0 0 0-.37-.13 1 1 0 0 0-.48.12c-.15.07-.3.18-.48.31l-.48-.57c.21-.17.38-.3.52-.37a1.92 1.92 0 0 1 .98-.22c.26 0 .5.04.7.14a1.07 1.07 0 0 1 .63 1c0 .18-.04.36-.1.53a2.1 2.1 0 0 1-.32.52c-.14.18-.4.43-.75.76l-.54.5v.05h1.82v.74ZM3.05 14.1a1 1 0 0 1-.24.67c-.16.18-.38.3-.66.37v.02c.33.04.59.15.76.31.18.16.26.38.26.66 0 .4-.14.72-.43.94-.3.22-.71.34-1.26.34-.45 0-.85-.08-1.2-.23v-.75a2.74 2.74 0 0 0 1.11.28c.3 0 .5-.05.65-.15.14-.1.2-.26.2-.48 0-.2-.07-.34-.23-.42a1.78 1.78 0 0 0-.77-.12H.92v-.68h.32c.33 0 .57-.04.72-.13.15-.08.22-.23.22-.44 0-.31-.2-.47-.6-.47a1.65 1.65 0 0 0-.89.31l-.4-.61a2.2 2.2 0 0 1 1.36-.42c.43 0 .77.1 1.02.27.26.17.38.42.38.73Zm5.53 1.7v-.72a13.01 13.01 0 0 1 .04-.9H8.6a3.2 3.2 0 0 1-.26.46l-.77 1.15h1.01Zm1.37.68h-.5v.87h-.87v-.87H6.8v-.61l1.84-2.7h.82v2.62h.5v.7Zm5.38.22c.2 0 .34-.06.44-.2.1-.12.15-.3.15-.53 0-.2-.05-.37-.14-.49a.55.55 0 0 0-.43-.17.66.66 0 0 0-.46.17.54.54 0 0 0-.19.4c0 .24.06.43.18.58.12.16.27.24.45.24Zm-1.5-1.13c0-.83.17-1.44.52-1.85.35-.4.87-.6 1.57-.6.24 0 .43 0 .56.04v.7a2.3 2.3 0 0 0-.5-.05c-.3 0-.55.04-.74.14a.9.9 0 0 0-.44.4c-.1.18-.15.44-.16.77h.03c.2-.33.5-.49.91-.49.37 0 .67.12.88.35.21.24.32.56.32.98 0 .44-.13.8-.38 1.06s-.6.39-1.05.39a1.4 1.4 0 0 1-1.34-.84 2.35 2.35 0 0 1-.19-1Zm7.8-.31c0 .51.05.88.14 1.1.09.22.24.33.45.33.2 0 .35-.1.44-.33.1-.23.14-.6.14-1.1 0-.52-.05-.89-.14-1.11-.1-.22-.24-.34-.44-.34-.21 0-.36.12-.45.34-.1.22-.14.6-.14 1.1Zm2.05 0a2.9 2.9 0 0 1-.36 1.62c-.24.35-.6.53-1.1.53-.49 0-.85-.18-1.1-.55-.24-.36-.36-.9-.36-1.6 0-.74.11-1.29.35-1.64.24-.35.61-.52 1.1-.52.49 0 .85.18 1.1.55.25.36.37.9.37 1.6ZM1.14 21.83c0 .5.05.88.14 1.1.09.22.24.33.45.33.2 0 .35-.1.44-.33.1-.23.14-.6.14-1.1 0-.52-.05-.89-.14-1.11-.1-.22-.24-.34-.44-.34-.21 0-.36.12-.45.34-.1.22-.14.6-.14 1.1Zm2.05 0a2.9 2.9 0 0 1-.36 1.62c-.24.35-.6.53-1.1.53-.49 0-.85-.18-1.1-.55-.24-.36-.36-.9-.36-1.6 0-.74.11-1.29.35-1.64.24-.35.6-.52 1.1-.52.49 0 .85.18 1.1.55.25.36.37.9.37 1.6Zm5.93 2.09h-.89V21.5l.01-.4.01-.44-.3.3-.48.38-.43-.53 1.35-1.08h.73v4.19Zm6.92 0h-.89V21.5l.01-.4.02-.44-.31.3-.48.38-.43-.53 1.35-1.08h.73v4.19Zm6.13-3.53a.52.52 0 0 0-.43.2c-.1.12-.15.3-.15.54 0 .2.05.36.14.48.1.12.23.18.43.18.18 0 .33-.06.46-.18a.56.56 0 0 0 .19-.4.92.92 0 0 0-.18-.58.55.55 0 0 0-.46-.24Zm1.52 1.13c0 .82-.18 1.44-.52 1.85-.35.4-.88.6-1.58.6-.25 0-.44 0-.57-.03v-.71a2.2 2.2 0 0 0 1.24-.07c.19-.1.34-.23.44-.41.1-.19.16-.45.17-.77h-.03a.98.98 0 0 1-.39.38c-.14.07-.32.1-.54.1a1.1 1.1 0 0 1-.86-.35 1.4 1.4 0 0 1-.32-.97c0-.45.13-.8.38-1.07.26-.26.6-.39 1.05-.39a1.4 1.4 0 0 1 1.35.85c.12.28.18.6.18.99Z"/>
</svg>
