<svg xmlns="http://www.w3.org/2000/svg" viewBox="0 0 24 24">
  <path
    d="M5.46 10.91a2.8 2.8 0 1 0 1.98 4.77 2.79 2.79 0 0 0-1.98-4.77Zm0 4.85a2.07 2.07 0 0 1 0-4.12 2.07 2.07 0 0 1 0 4.12Zm18.41-2.41-2.24-2.24a.3.3 0 0 0-.07-.05V.36A.36.36 0 0 0 21.2 0H2.76a.36.36 0 0 0-.37.36v8.78a5.53 5.53 0 0 0 0 9.1v5.4a.36.36 0 0 0 .37.36H21.2a.36.36 0 0 0 .36-.36v-7.57a30.03 30.03 0 0 0 2.4-2.32.36.36 0 0 0-.09-.4ZM3.12.72h17.72V3.4H3.12V.72Zm0 3.4h17.72V11h-10.6a5.5 5.5 0 0 0-7.12-2.26V4.13Zm17.72 19.16H3.12v-4.62a5.5 5.5 0 0 0 7.12-2.25h2.58a.36.36 0 0 0 .26-.1l1.28-1.28a.17.17 0 0 1 .24 0c1.51 1.48 1.04 1.47 2.55 0a.17.17 0 0 1 .24 0l1.01 1a.36.36 0 0 0 .51 0l1.07-1.06a.15.15 0 0 1 .24 0l.62.62v7.69Zm.65-8.07-.74-.75a.93.93 0 0 0-1.28 0l-.81.8-.76-.76a.9.9 0 0 0-1.27 0l-.76.75-.76-.75a.9.9 0 0 0-1.27 0l-1.17 1.17h-2.64a.36.36 0 0 0-.32.2 4.77 4.77 0 1 1 0-4.35.36.36 0 0 0 .32.2H21.2l1.89 1.9-1.61 1.59ZM19.51 1.8c.34.32-.18.85-.5.5-.32-.33.17-.84.5-.5Zm-1.83.25a.36.36 0 1 1-.72 0 .36.36 0 0 1 .72 0Zm-2.04-.25c.34.32-.2.85-.51.5-.32-.33.17-.84.5-.5Zm3.5 7.02a.36.36 0 0 1-.36.37h-2.05a.36.36 0 0 1-.26-.62.36.36 0 0 1 .26-.1h2.05a.36.36 0 0 1 .36.35Zm-7.97-.36h3.61a.36.36 0 1 1 0 .73h-3.61a.37.37 0 0 1 0-.74v.01Zm3.9-2.06a.36.36 0 0 1 .36-.37h3.35a.37.37 0 1 1 0 .73h-3.35a.36.36 0 0 1-.36-.37v.01Zm-5.6 0a.36.36 0 0 1 .37-.37h3.66a.37.37 0 0 1 0 .73H9.82a.36.36 0 0 1-.36-.37l.01.01Zm-1.58.35h-2.7a.36.36 0 1 1 0-.72h2.69a.37.37 0 1 1 0 .73Zm11.25 12.07a.36.36 0 0 1-.36.36h-3.52a.37.37 0 1 1 0-.73h3.52a.36.36 0 0 1 .36.37Zm-8.34 0a.36.36 0 0 1 .37-.37h2.16a.37.37 0 0 1 0 .73h-2.15a.36.36 0 0 1-.37-.36Zm8.34 2.43a.36.36 0 0 1-.36.36h-1.89a.37.37 0 0 1 0-.74h1.89a.36.36 0 0 1 .36.38Zm-3.83 0a.36.36 0 0 1-.36.36h-4.64a.37.37 0 1 1 0-.74h4.64a.36.36 0 0 1 .37.38h-.01Zm-6.57 0a.36.36 0 0 1-.36.36h-3.2a.37.37 0 1 1 0-.74h3.2a.36.36 0 0 1 .33.23l.03.15Z"/>
</svg>
