<svg xmlns="http://www.w3.org/2000/svg" viewBox="0 0 24 24">
  <path
    d="M19.45 7.13A11.37 11.37 0 0 0 .68 15.76l.03 1.91v1.7H23.4V17.8l.02-.13.02-1.9c0-5.58-3.98-8.64-3.98-8.64Zm-16 10.54v-1.72h2.33v-.75H3.45c.1-1.95.83-3.9 2.24-5.44l.06-.06.1.1 1.56 1.55.48-.5-1.65-1.64a8.53 8.53 0 0 1 5.41-2.24h.12s.05 0 .04.03v2.3h.63V6.97c.3.01.6.05.91.1 1.73.23 3.35.97 4.66 2.17l-1.65 1.65.46.46 1.58-1.59.08-.06.08.1a8.54 8.54 0 0 1 2.24 5.4h-2.33v.75h2.34v1.72H3.44Zm11.67-5.43s-3.7 1.13-4.4 1.84a1.82 1.82 0 0 0 2.56 2.57c.7-.71 1.84-4.41 1.84-4.41Z"/>
</svg>
