<svg xmlns="http://www.w3.org/2000/svg" viewBox="0 0 24 24">
  <path
    d="M20 23.5a.6.6 0 0 1-.6.5H5a.59.59 0 0 1-.59-.5L2.26 7.35a.58.58 0 0 1 .59-.66h.98l-.36-2.75a.58.58 0 0 1 .58-.67H5.1L4.74.66A.58.58 0 0 1 5.32 0h13.76a.58.58 0 0 1 .58.66l-.35 2.62h1.04a.6.6 0 0 1 .44.2.6.6 0 0 1 .14.47l-.36 2.75h.97a.6.6 0 0 1 .56.41c.03.08.04.17.03.25l-2.14 16.13ZM6.51 1.68l.26 1.6h10.84l.26-1.6H6.52ZM5.25 4.97l.28 1.73h13.35l.27-1.73H5.25ZM4.05 8.4 6.01 22.3h12.35l1.98-13.92H4.05Zm2.44 2.37H17.9v1.69H6.5v-1.7Zm5.7 5.08H6.5v-1.7h5.7v1.7Zm2.41 3.39H6.5v-1.7h8.11v1.7Z"/>
</svg>
