<svg xmlns="http://www.w3.org/2000/svg" viewBox="0 0 24 24">
  <path d="M12.12 13.24c1.48 0 4.97-1.78 4.97-6.06 0-3.36-.45-6.07-4.97-6.07-4.53 0-4.98 2.71-4.98 6.07 0 4.28 3.5 6.06 4.98 6.06ZM7.88 6.16C8.23 5.5 9 4.71 10.62 4.74c0 0 .97 2.35 5.72 1.3.02.37.03.75.03 1.14a5.4 5.4 0 0 1-1.7 4.1 4.35 4.35 0 0 1-2.55 1.24c-.5 0-1.58-.33-2.56-1.24a5.41 5.41 0 0 1-1.7-4.1l.02-1.02ZM21.35 19.5c-.25-1.58-.77-3.61-1.82-4.34-.72-.5-3.22-1.83-4.28-2.4h-.02a.35.35 0 0 0-.38.03c-.56.44-1.19.68-1.82.88l-.47.16-.44.04-.66-.06c-.11-.05-.14-.09-.26-.14-.6-.28-1.26-.44-1.82-.88a.35.35 0 0 0-.38-.04 84.98 84.98 0 0 0-4.3 2.41c-1.2.81-1.73 3.76-1.82 4.34-.01.06 0 .12.01.17.05.12 1.15 2.99 9.23 2.99 8.07 0 9.17-2.87 9.22-2.99a.35.35 0 0 0 .01-.17Z"/>
</svg>
