<svg xmlns="http://www.w3.org/2000/svg" viewBox="0 0 24 24">
  <path
    d="M9.7 15.35v-6.7L15.58 12 9.7 15.35Zm13.08-8.8a2.84 2.84 0 0 0-1.98-2h-.01a64.67 64.67 0 0 0-8.83-.48H12c-3.05-.04-6.09.13-9.11.51l.32-.03a2.84 2.84 0 0 0-1.98 1.98v.02C.9 8.35.73 10.18.75 12V12v.19c0 1.86.17 3.67.5 5.44l-.03-.18a2.84 2.84 0 0 0 1.97 2h.02c2.93.36 5.88.51 8.84.47H12c3.05.04 6.09-.13 9.11-.5l-.32.03a2.84 2.84 0 0 0 1.98-1.98v-.02c.3-1.58.48-3.4.48-5.26v-.2.01-.19c0-1.86-.17-3.67-.5-5.44l.03.19v-.01Z"/>
</svg>
