<svg xmlns="http://www.w3.org/2000/svg" viewBox="0 0 32 32">
  <path
    d="M12.93 20.46v-8.92L20.77 16zM30.37 8.73a3.79 3.79 0 0 0-2.63-2.66h-.02a86.23 86.23 0 0 0-11.78-.64H16a88.92 88.92 0 0 0-12.15.68l.43-.05a3.79 3.79 0 0 0-2.64 2.65v.02A38.36 38.36 0 0 0 1 16.01V16v.25c0 2.48.23 4.9.67 7.26l-.04-.25a3.79 3.79 0 0 0 2.63 2.67h.02a86.23 86.23 0 0 0 11.78.63H16a89.06 89.06 0 0 0 12.15-.67l-.43.04a3.79 3.79 0 0 0 2.64-2.64l.01-.02c.4-2.11.63-4.54.63-7.02v-.26.01-.25c0-2.48-.23-4.9-.67-7.26l.04.25z"/>
</svg>
