<svg xmlns="http://www.w3.org/2000/svg" viewBox="0 0 24 24">
  <path d="m12.76 11.33.5 1.9h.76l.94-2.95h-.77l-.56 1.93-.5-1.93h-.74l-.51 1.93-.56-1.93h-.76l.94 2.95h.76l.5-1.9Zm4.8-1.05h-.75l-.51 1.93-.56-1.93H15l.93 2.95h.76l.5-1.9.51 1.9h.75l.95-2.95h-.77l-.57 1.93-.49-1.93Zm5.48 0-.57 1.93-.49-1.93h-.75l-.5 1.93-.56-1.93h-.76l.93 2.95h.76l.5-1.9.51 1.9h.75l.95-2.95h-.77ZM17.2 6.11a5.68 5.68 0 0 0-5.15 3.29h10.3a5.67 5.67 0 0 0-5.15-3.3Zm0 11.36a5.67 5.67 0 0 0 5.14-3.29H12.04a5.67 5.67 0 0 0 5.15 3.29ZM7.85 6c.26-.18 5.05.24 5.05.24-.05.03-2.51-3.99-2.51-3.99L9.9 4.44 7.85 6ZM.34 3.26 1.82.02s5.9.72 9.35 5.41c0 0-4.4-2.93-10.83-2.17Zm7.5 14c.27.18 5.06-.23 5.06-.23-.05-.04-2.51 3.98-2.51 3.98l-.49-2.19-2.05-1.55ZM.35 20l1.48 3.25s5.9-.72 9.35-5.42c0 0-4.4 2.93-10.83 2.17ZM5.5 9.57c.15.28 4.6 2.11 4.6 2.11-.03-.05-4.07 2.38-4.07 2.38l.58-2.16-1.1-2.33H5.5Zm-5.3 0v3.14s2.77 1.48 7.99-1.11c0 0-2.69.22-8-2.03Z"/>
</svg>
