<svg xmlns="http://www.w3.org/2000/svg" viewBox="0 0 24 24">
  <path
    d="M11.95 1.71h-.52a.51.51 0 0 1-.52-.5v-.02C10.91.53 10.38 0 9.73 0H9.7c-.65 0-1.19.53-1.19 1.19v.01c0 .29-.22.51-.5.51h-.53c-.57 0-1.02.46-1.02 1.02v.02c0 .57.45 1.02 1.02 1.02h4.47c.57 0 1.02-.45 1.02-1.02v-.02c0-.56-.45-1.02-1.02-1.02Zm-2.24 0a.51.51 0 1 1 0-1.02.51.51 0 0 1 0 1.02Zm2.3 19.89H3.36c-.76 0-1.37-.61-1.37-1.37V3.77c0-.76.61-1.37 1.03-1.37H5.8a1.7 1.7 0 0 0 1.67 2.06h4.47a1.71 1.71 0 0 0 1.67-2.06h2.1c1.1 0 1.7.61 1.7 1.37v10.3l-.33-.01c-.48 0-.94.06-1.38.18V6.17h-12V19.9h7.9c.04.6.18 1.18.4 1.71Zm5.08-6.51a4.46 4.46 0 1 0 0 8.91 4.46 4.46 0 0 0 0-8.91Zm2.9 3.54-2.73 3.08a.68.68 0 0 1-.95.08l-1.71-1.37a.69.69 0 1 1 .86-1.07l1.2.97 2.31-2.6a.69.69 0 1 1 1.03.9ZM14 12H8.51a.34.34 0 0 1-.34-.34v-.35c0-.18.15-.34.34-.34H14c.19 0 .34.15.34.34v.35c0 .19-.15.34-.34.34Zm0-3.09H8.51a.34.34 0 0 1-.34-.34v-.34c0-.19.15-.34.34-.34H14c.19 0 .34.15.34.34v.34c0 .2-.15.34-.34.34Zm-1.71 5.83H8.5a.34.34 0 0 1-.34-.34v-.34c0-.2.15-.35.34-.35h3.78c.18 0 .34.16.34.35v.34c0 .19-.16.34-.34.34Zm-.69 3.09H8.51a.34.34 0 0 1-.34-.34v-.35c0-.19.15-.34.34-.34h3.09c.19 0 .34.15.34.34v.35c0 .19-.15.34-.34.34ZM7.51 7.65 6.25 9.07a.31.31 0 0 1-.43.03l-.79-.63a.32.32 0 1 1 .4-.49l.55.44 1.06-1.2a.32.32 0 1 1 .47.43Zm0 3.05-1.26 1.42a.32.32 0 0 1-.43.03l-.79-.63a.32.32 0 1 1 .4-.49l.55.44 1.06-1.2a.32.32 0 1 1 .47.43Zm0 2.91-1.26 1.42a.32.32 0 0 1-.43.04l-.79-.63a.32.32 0 1 1 .4-.5l.55.45 1.06-1.2a.32.32 0 1 1 .47.42Zm0 2.94-1.26 1.42a.31.31 0 0 1-.43.04l-.79-.63a.32.32 0 1 1 .4-.5l.55.45 1.06-1.2a.32.32 0 1 1 .47.42Z"/>
</svg>
