<svg xmlns="http://www.w3.org/2000/svg" viewBox="0 0 24 24">
  <path
    d="M18.43 22.55H6.1v-3.36h1.57a.52.52 0 0 0 0-1.05H6.56l.77-1.16h9.87l.78 1.16H9.25a.52.52 0 0 0 0 1.05h9.18v3.36Zm-1.5-6.62H7.6l.43-7.83h8.47l.43 7.83ZM6.98 5.88h6.75a.52.52 0 0 0 0-1.05H6.48V1.45h1.68V2.9a.52.52 0 0 0 .52.53h2.23a.52.52 0 0 0 .52-.53V1.45h1.67V2.9a.52.52 0 0 0 .53.53h2.22a.52.52 0 0 0 .53-.53V1.45h1.67v3.38H15.3a.52.52 0 0 0 0 1.05h2.26l-.83 1.17H7.8l-.83-1.17Zm12.5 16.67v-3.88l-.01-.07v-.02l-.02-.06a.61.61 0 0 0-.06-.14L18 16.27l-.47-8.55L19 5.66l.02-.02.01-.02V5.6a.55.55 0 0 0 .04-.08V5.5l.02-.03V.93a.52.52 0 0 0-.51-.53h-2.73a.52.52 0 0 0-.52.53v1.45h-1.18V.93a.52.52 0 0 0-.52-.53H10.9a.52.52 0 0 0-.53.53v1.45H9.2V.93A.52.52 0 0 0 8.68.4H5.96a.52.52 0 0 0-.53.53v4.43a.7.7 0 0 0 0 .05v.01a.34.34 0 0 0 .02.05v.05l.02.04.01.02.01.02.01.02.03.04L7 7.73l-.47 8.55-1.38 2.1a.6.6 0 0 0-.07.13.5.5 0 0 0-.01.07v.02l-.01.07v3.88a.52.52 0 0 0 0 1.05h14.41a.52.52 0 0 0 0-1.05Z"/>
</svg>
