<svg xmlns="http://www.w3.org/2000/svg" viewBox="0 0 24 24">
  <path
        d="M17.14 22.34H7.18v-1.22h6.87c.2 0 .35-.16.35-.36 0-.2-.16-.36-.36-.36H7.88l.22-.84c.1-.36.5-.67.86-.67h6.42c.37 0 .77.31.86.67l.22.84h-.97a.36.36 0 0 0 0 .73h1.66v1.2Zm-2.17-4.17H9.35l.67-5.85h4.29l.66 5.85Zm-5.27-7.3h4.93a.36.36 0 0 1 0 .73H9.7a.36.36 0 0 1-.36-.37c0-.2.16-.37.36-.37Zm.2-5.35a.5.5 0 0 1 .38-.16h3.77a.5.5 0 0 1 .38.16c.09.1.13.25.12.4L14.3 8.2h-3.18c-.2 0-.36.16-.36.36 0 .2.16.36.36.36h3.14v1.22h-4.21V8.56a.3.3 0 0 0 0-.04l-.28-2.6a.51.51 0 0 1 .12-.4Zm.83-2.34h-.36v-.73h.36c.59 0 1.07-.49 1.07-1.1V1h.72v.37c0 .6.48 1.09 1.08 1.09h.36v.73h-.36c-.6 0-1.08.49-1.08 1.09v.36h-.72v-.36c0-.6-.48-1.1-1.07-1.1ZM17.5 20.4h-.3l-.28-1.03a1.7 1.7 0 0 0-1.22-1.17l-.68-5.96A1.1 1.1 0 0 0 15 10.2V8.58L15.26 6c.04-.36-.07-.7-.3-.96a1.2 1.2 0 0 0-.91-.4h-.81v-.37c0-.2.16-.37.36-.37h.72c.2 0 .36-.16.36-.36V2.1c0-.2-.16-.37-.36-.37h-.72a.36.36 0 0 1-.36-.36V.63c0-.2-.16-.36-.36-.36h-1.44c-.2 0-.35.16-.35.36v.73c0 .2-.17.36-.36.36H10c-.2 0-.36.17-.36.37v1.45c0 .2.16.36.36.36h.72c.2 0 .36.17.36.37v.36h-.81c-.36 0-.69.15-.92.4-.23.27-.33.6-.3.97l.28 2.58v1.62a1.1 1.1 0 0 0-.04 2.04l-.67 5.96a1.7 1.7 0 0 0-1.23 1.17l-.27 1.03h-.3c-.2 0-.37.16-.37.36v1.94c0 .2.17.36.36.36H17.5c.2 0 .36-.16.36-.36v-1.94c0-.2-.16-.36-.36-.36Z"/>
</svg>
