<svg xmlns="http://www.w3.org/2000/svg" viewBox="0 0 24 24">
  <path
        d="M11 3.92c0-.42.36-.77.8-.77.21 0 .39-.17.39-.38a.39.39 0 0 0-.4-.39c-.86 0-1.57.7-1.57 1.54 0 .22.18.39.4.39.21 0 .39-.17.39-.39Zm6.7 18.85H6.68v-1.15H17.7v1.15ZM7.47 20.14c0-.46.38-.83.85-.83h7.74c.47 0 .85.37.85.83v.7H7.47v-.7Zm7.69-2.76.13 1.16h-6.2l.13-1.16h5.94ZM9.52 14.7l.27-2.3h4.8l.26 2.3H9.52Zm5.42.77.13 1.16H9.31l.13-1.16h5.5Zm-6.49-3.84a.97.97 0 0 1-.98-.97c0-.53.44-.96.98-.96h7.48c.54 0 .98.43.98.96s-.44.97-.98.97H8.45Zm4.92-3.64v.94H11v-.94l.13.03.2.05.14.03a4.5 4.5 0 0 0 .68.06h.06l.32-.01.13-.02a4.18 4.18 0 0 0 .57-.11l.13-.03ZM9.04 4.3c0-1.7 1.41-3.08 3.15-3.08a3.12 3.12 0 0 1 3.15 3.08c0 1.16-.67 2.18-1.65 2.7l-.05.03-.07.03-.3.13h-.03l-.32.1h-.03c-.46.1-.94.1-1.4 0h-.03l-.32-.1h-.03l-.3-.13-.07-.03-.06-.03a3.07 3.07 0 0 1-1.64-2.7Zm8.66 16.54v-.71c0-.88-.73-1.59-1.62-1.6l-.13-1.16-.3-2.69-.27-2.3h.55c.97 0 1.77-.78 1.77-1.74 0-.95-.8-1.73-1.77-1.73h-1.77V7.63a3.83 3.83 0 0 0 1.96-3.32A3.9 3.9 0 0 0 12.2.46a3.9 3.9 0 0 0-3.93 3.85c0 1.42.79 2.66 1.96 3.32v1.3H8.45c-.97 0-1.77.77-1.77 1.72 0 .96.8 1.73 1.77 1.73H9l-.7 6.16c-.9.01-1.62.72-1.62 1.6v.7H5.9v2.7h12.58v-2.7h-.78Z"/>
</svg>
