<svg xmlns="http://www.w3.org/2000/svg" viewBox="0 0 24 24">
  <path
    d="m20.484 3.516 1.594-1.594c.708-.708 1.922-.206 1.922.792v5.161C24 8.498 23.498 9 22.875 9h-5.16c-1.004 0-1.506-1.214-.798-1.922l1.444-1.444A8.97 8.97 0 0 0 12 3c-4.969 0-9 4.031-9 9s4.031 9 9 9a8.953 8.953 0 0 0 5.142-1.613 1.503 1.503 0 0 1 2.09.37c.479.68.31 1.613-.37 2.091A11.995 11.995 0 0 1 12 24C5.372 24 0 18.628 0 12S5.372 0 12 0c3.314 0 6.314 1.345 8.484 3.516ZM12 6c.623 0 1.125.502 1.125 1.125V12c0 .3-.117.586-.328.797l-3.375 3.375a1.125 1.125 0 0 1-1.59-1.59l3.048-3.046V7.125c0-.623.501-1.125 1.125-1.125H12Z"/>
</svg>
