<svg xmlns="http://www.w3.org/2000/svg" fill="none" viewBox="0 0 24 24">
  <path fill="#4285F4"
        d="M12 9.83v4.63h6.46a5.55 5.55 0 0 1-2.41 3.62l3.9 3.02a11.72 11.72 0 0 0 3.57-8.82c0-.85-.07-1.67-.21-2.47L12 9.83Z"/>
  <path fill="#34A853"
        d="m5.28 14.29-.88.66-3.11 2.44A12 12 0 0 0 11.99 24c2.92.08 5.76-.95 7.94-2.9l-3.88-3.02A7.17 7.17 0 0 1 5.28 14.3v-.02Z"/>
  <path fill="#FBBC05" d="M1.29 6.63a11.84 11.84 0 0 0 0 10.74l4-3.1a7.18 7.18 0 0 1 0-4.54l-4-3.1Z"/>
  <path fill="#EA4335"
        d="M12 4.79a6.6 6.6 0 0 1 4.6 1.76l3.43-3.4A11.52 11.52 0 0 0 12 0 11.97 11.97 0 0 0 1.3 6.63l4 3.1a7.17 7.17 0 0 1 6.73-4.96L12 4.8Z"/>
</svg>
