<svg xmlns="http://www.w3.org/2000/svg" viewBox="0 0 24 24">
  <path
    d="m14.892 12 5.358-9.757a1.548 1.548 0 0 0-.005-1.496A1.43 1.43 0 0 0 18.997 0H4.578a1.43 1.43 0 0 0-1.246.747 1.548 1.548 0 0 0-.005 1.496L8.686 12l-5.359 9.756a1.552 1.552 0 0 0 .005 1.497c.258.462.734.747 1.246.747h14.42c.252 0 .5-.069.718-.2.22-.13.402-.32.529-.547.26-.464.26-1.033.005-1.497L14.892 12ZM4.578 22.5 10.347 12 4.578 1.5h14.42L13.228 12l5.768 10.5H4.578Zm7.21-10.102L16.515 21h-9.45l4.725-8.602Zm0-.798L9.536 7.5h4.506l-2.252 4.1Z"/>
</svg>
