<svg xmlns="http://www.w3.org/2000/svg" viewBox="0 0 24 24">
  <path d="M.23 8.82A8.98 8.98 0 0 1 5.05 1.1 9.44 9.44 0 0 1 10.7.08a8.65 8.65 0 0 1 5.4 2.84c.3.35.38.76.18 1.2-.2.4-.54.62-1 .62-.31 0-.59-.13-.8-.37a6.37 6.37 0 0 0-4.42-2.17A6.93 6.93 0 0 0 4.3 4.4a6.67 6.67 0 0 0-1.83 3.96 6.74 6.74 0 0 0 2.1 5.87 6.85 6.85 0 0 0 3.88 1.87 6.7 6.7 0 0 0 5.49-1.58c.8-.67 1.4-1.49 1.85-2.44.2-.46.63-.72 1.1-.67.47.04.83.35.96.83.06.22.04.46-.06.67a8.9 8.9 0 0 1-1.01 1.71c-.2.27-.17.22.03.42l2.81 2.82 3.76 3.76c.34.35.44.8.24 1.24-.18.39-.6.66-1.05.64a1.12 1.12 0 0 1-.74-.35 399.4 399.4 0 0 0-2.65-2.64l-3.98-4c-.1-.1-.18-.1-.28-.02a9 9 0 0 1-5.14 1.85 9 9 0 0 1-6.4-2.25 8.84 8.84 0 0 1-2.68-4c-.3-.95-.45-1.91-.47-3.26Zm11.76.33h-.66c-.03 0-.09.09-.09.13v1c-.01.52-.4.97-.9 1.07-.49.09-1-.18-1.18-.65a1.4 1.4 0 0 1-.1-.46V9.17c-.13-.01-.24-.03-.35-.02A1.07 1.07 0 0 1 7.6 8.1a1.08 1.08 0 0 1 1.1-1.12h8.48c.14 0 .19-.05.25-.17a3.15 3.15 0 0 1 2.66-2 3.14 3.14 0 0 1 3.12 1.48 3.28 3.28 0 1 1-5.78 3.03c-.05-.12-.12-.17-.25-.16l-2.24.01-.56-.01c-.15-.01-.2.05-.2.2.01.54-.01 1.1.01 1.63.02.5-.4 1.11-1.09 1.12a1.1 1.1 0 0 1-1.09-1.1V9.38L12 9.15Zm8.44.02a1.11 1.11 0 0 0 0-2.22c-.63 0-1.1.48-1.1 1.11 0 .63.47 1.11 1.1 1.11Z"/>
</svg>
