<svg xmlns="http://www.w3.org/2000/svg" viewBox="0 0 24 24">
  <path d="M13.14 11.33h5.16c.68 0 .68-1.06 0-1.06h-5.16c-.68 0-.68 1.06 0 1.06Zm5.16 1.88h-5.16c-.68 0-.68 1.07 0 1.07h5.16c.68 0 .68-1.07 0-1.07Zm0 2.76h-5.16c-.68 0-.68 1.07 0 1.07h5.16c.68 0 .68-1.07 0-1.07Zm0 2.94h-5.16c-.68 0-.68 1.07 0 1.07h5.16c.68 0 .68-1.07 0-1.07Zm.36-14.63H6.76v19.17h14.62V6.94l-2.72-2.66Zm1.46 17.89H8.02V5.55h10v2.03h2.1v14.59Zm-9.47-10.83h-.38l.19-1.28-.4.22-.12-.29.6-.34h.34l-.23 1.7Zm-.12 1.28c.16 0 .29.04.38.12.1.09.14.2.14.32l-.03.18a.77.77 0 0 1-.1.2c-.05.08-.13.17-.24.27a6.1 6.1 0 0 1-.4.34h.67l-.09.3H9.8l.04-.29.53-.49c.11-.1.19-.2.23-.26a.39.39 0 0 0 .06-.2c0-.06-.02-.1-.05-.14a.19.19 0 0 0-.14-.05c-.1 0-.21.06-.32.18l-.22-.2a.8.8 0 0 1 .6-.28Zm0 3c.17 0 .29.04.38.12.08.07.13.17.13.29 0 .09-.03.17-.1.26a.52.52 0 0 1-.29.17c.1.01.18.05.24.1.06.06.09.14.09.25 0 .06-.01.12-.04.19a.7.7 0 0 1-.11.19.55.55 0 0 1-.22.15c-.1.04-.2.06-.33.06-.24 0-.42-.09-.54-.26l.24-.2c.08.1.18.16.3.16a.3.3 0 0 0 .22-.09.3.3 0 0 0 .09-.23c0-.06-.02-.1-.06-.13a.32.32 0 0 0-.18-.04h-.14l.08-.28h.1c.08 0 .15-.02.2-.08a.27.27 0 0 0 .06-.17.14.14 0 0 0-.05-.12.2.2 0 0 0-.13-.04.54.54 0 0 0-.35.15l-.17-.23a.9.9 0 0 1 .59-.21ZM11.1 20h-.18l-.05.37h-.38l.05-.37h-.7l.04-.26.6-1.1.33.12-.51.95h.28l.1-.4h.33l-.05.4h.18l-.04.3Zm-5.63-.88H4.12V2.49h9.98v.57h2.53l-1.87-1.84H2.86v19.17h2.61V19.1Z"/>
</svg>
