<svg xmlns="http://www.w3.org/2000/svg" viewBox="0 0 24 24">
  <path
    d="M18.75 24H5.25A2.253 2.253 0 0 1 3 21.75v-10.5C3 10.009 4.01 9 5.25 9h13.5C19.99 9 21 10.009 21 11.25v10.5c0 1.241-1.01 2.25-2.25 2.25ZM5.25 10.5a.751.751 0 0 0-.75.75v10.5c0 .414.338.75.75.75h13.5c.413 0 .75-.336.75-.75v-10.5a.751.751 0 0 0-.75-.75H5.25Z"/>
  <path
    d="M17.25 10.5a.75.75 0 0 1-.75-.75V6c0-2.481-2.019-4.5-4.5-4.5A4.505 4.505 0 0 0 7.5 6v3.75a.75.75 0 1 1-1.5 0V6c0-3.309 2.691-6 6-6s6 2.691 6 6v3.75a.75.75 0 0 1-.75.75ZM12 17a2.002 2.002 0 0 1-2-2 2.002 2.002 0 0 1 2-2 2.002 2.002 0 0 1 2 2 2.002 2.002 0 0 1-2 2Zm0-2.5a.5.5 0 0 0 0 1 .5.5 0 0 0 0-1Z"/>
  <path d="M12 20a.75.75 0 0 1-.75-.75V16.5a.75.75 0 1 1 1.5 0v2.75A.75.75 0 0 1 12 20Z"/>
</svg>
