<svg xmlns="http://www.w3.org/2000/svg" viewBox="0 0 24 24">
  <path d="M18.44 5.47a.71.71 0 0 0 1 .15l2.34-1.74a.71.71 0 0 0 .15-1v-.02a.72.72 0 0 0-1-.15l-2.35 1.75a.71.71 0 0 0-.15 1h.01Zm.78-5.28a.71.71 0 0 0-1.02.2l-1.57 2.54A.7.7 0 0 0 17.1 4a.71.71 0 0 0 .76-.33l1.56-2.53a.71.71 0 0 0-.2-.95Zm1.12 7.73 2.88-.77a.71.71 0 1 0-.37-1.37l-2.88.77a.71.71 0 1 0 .37 1.37Zm-9.9-6.66a.8.8 0 0 0-.27 1.15c-.62 3.54-3.06 6.53-4.64 8.15-.37-.28-.9-.3-1.3 0l-2.32 1.72a2.98 2.98 0 0 0-.62 4.18l-.18-.26-.45.33c-.28.2-.33.6-.13.86l1.38 1.86a.62.62 0 0 0 .87.12l.44-.33-.25-.34a2.99 2.99 0 0 0 3.57.95l4.7 3.9a.37.37 0 0 0 .47.02l.16-.12 2.54-1.88a.34.34 0 0 0 .01-.53l-1-.82a.48.48 0 0 0-.58-.02 1.18 1.18 0 0 1-1.45-.03l-2.57-2.1.65-.48c.4-.3.53-.8.37-1.25 2.01-1.05 5.58-2.52 9.14-2.09a.81.81 0 0 0 1.18.07c.3-.3.32-.77.07-1.1L17.4 9.4a2.74 2.74 0 0 0-3.06-4.12l-2.8-3.77c-.26-.33-.73-.46-1.1-.25Zm-4.47 16.5a1.03 1.03 0 0 1-1.44-.22l-1.67-2.25c-.34-.46-.25-1.1.21-1.44l1.63-1.22 2.9 3.9-1.63 1.22Z"/>
</svg>
