<svg xmlns="http://www.w3.org/2000/svg" viewBox="0 0 24 24">
  <path
    d="M21 16.65a3.7 3.7 0 0 0-2.03-1.69l-2.34-.75a.37.37 0 0 0-.23 0l-.37-.56a.37.37 0 0 0-.5-.11l-.19.1v-.53a.38.38 0 0 0-.03-.16 5.78 5.78 0 0 0 1.9-4.34v-1.3c.52-1.42.7-2.8.53-3.98-.2-1.32-.83-2.3-1.84-2.83h-.02l-.02-.02h-.03L15.8.46a.31.31 0 0 0-.06-.01h-.1c-.88.17-1.7-.02-2.5-.2-1.26-.29-2.57-.58-3.94.58L9 .83a2.98 2.98 0 0 0-3 2.91v.06c.02 1.75.64 3.75.76 4.12v.7c0 1.74.74 3.3 1.9 4.33a.38.38 0 0 0-.04.16v.54l-.18-.11a.37.37 0 0 0-.5.11l-.37.56a.37.37 0 0 0-.23 0L5 14.96a3.7 3.7 0 0 0-2.03 1.69 5.1 5.1 0 0 0-.7 2.58v3.25c0 .83.67 1.5 1.5 1.5H20.2c.82 0 1.5-.67 1.5-1.5v-3.25c0-.9-.26-1.82-.71-2.58Zm-3.45 1.43a.19.19 0 0 1-.07.17l-1.24.93a.38.38 0 0 0-.04.57l.78.78a.19.19 0 0 1 .02.24l-1.84 2.46h-1.51l3.16-8.1.02-.07.4.13.32 2.9Zm-6.44 5.15-.26-.67.69-3.46H12.42l.69 3.46-.26.67H11.1Zm-2.3 0-1.85-2.46a.19.19 0 0 1 .02-.24l.78-.78a.38.38 0 0 0-.04-.57l-1.24-.93a.19.19 0 0 1-.08-.17l.32-2.89.4-.13.02.06 3.17 8.11h-1.5Zm2.8-6.37h.74a.38.38 0 0 1 .38.37v.75a.37.37 0 0 1-.38.37h-.74a.38.38 0 0 1-.38-.37v-.75a.38.38 0 0 1 .38-.37Zm2 4.4-.49-2.46.04-.05.02.02a.9.9 0 0 0 1.33.2l-.9 2.3Zm-2.83-2.49.01-.01.05.04-.5 2.47-.9-2.3a.9.9 0 0 0 1.34-.2Zm4.83-4.4.44.66-.88 2.25a.37.37 0 0 0-.09.06l-1.03 1.04a.16.16 0 0 1-.2.02.16.16 0 0 1-.05-.04l-.33-.49v-.64c0-.52-.35-.95-.82-1.08l2.96-1.78ZM6.74 3.78a2.23 2.23 0 0 1 3.11-2.03.38.38 0 0 0 .32-.68C11.07.56 11.94.75 13 1c.8.18 1.69.39 2.66.23.92.53 1.24 1.5 1.35 2.22.12.85.03 1.84-.25 2.87l-.7-1.25a.37.37 0 0 0-.38-.19c-.04 0-4.18.56-7.29-.72a.37.37 0 0 0-.29.7c2.88 1.18 6.44.9 7.43.8l.95 1.7v.14H13.1a.75.75 0 0 0-.65.38h-.95a.75.75 0 0 0-.65-.38H7.6c.24-.95.85-1.6.86-1.62a.38.38 0 0 0-.29-.63.37.37 0 0 0-.26.12c-.03.03-.44.48-.77 1.19-.19-.79-.39-1.83-.4-2.77Zm8.6 4.46-.33.72a.6.6 0 0 1-.6.4h-.74a.37.37 0 0 1-.37-.3v-.04l-.2-.78h2.23Zm-4.48 0-.2.78v.03a.37.37 0 0 1-.37.31h-.74a.6.6 0 0 1-.6-.4l-.32-.72h2.23Zm-3.36.37v-.37h.37v.12l.03.1.36.8c.23.54.7.85 1.3.85h.73a1.12 1.12 0 0 0 1.1-.92l.14-.58h.9l.13.58a1.12 1.12 0 0 0 1.1.92h.74c.6 0 1.07-.3 1.3-.85l.36-.8a.37.37 0 0 0 .02-.1l.01-.12h.38v.37c0 2.7-2.01 4.88-4.48 4.88-2.48 0-4.49-2.19-4.49-4.88Zm1.86 4.87a4.93 4.93 0 0 0 5.24 0v.62l-2.62 1.57-2.62-1.57v-.62Zm-1 .89 2.95 1.78a1.13 1.13 0 0 0-.83 1.08v.64l-.32.49a.16.16 0 0 1-.19.06.16.16 0 0 1-.06-.04l-1.03-1.04a.38.38 0 0 0-.1-.06l-.87-2.25.44-.66ZM3 22.48v-3.25c0-1.87 1.11-3.2 2.21-3.56l.72-.23L5.66 18a.94.94 0 0 0 .37.85l.9.67-.48.48a.94.94 0 0 0-.09 1.22l1.5 2.01h-4.1a.75.75 0 0 1-.75-.75Zm17.94 0a.75.75 0 0 1-.74.75h-4.12l1.5-2a.94.94 0 0 0-.08-1.23l-.47-.48.89-.67a.94.94 0 0 0 .37-.85L18 15.44l.73.23c1.1.36 2.21 1.7 2.21 3.56v3.25Z"/>
</svg>
