<svg xmlns="http://www.w3.org/2000/svg" viewBox="0 0 24 24">
  <path
    d="M20.32 3.52A11.64 11.64 0 0 0 12.03.09C8.9.09 5.96 1.3 3.75 3.52a11.72 11.72 0 0 0-.6 15.93.75.75 0 1 0 1.13-.98A10.22 10.22 0 0 1 18.04 3.53l-.65.76a9.2 9.2 0 0 0-3.5-1.52.5.5 0 0 0-.2.97 8.24 8.24 0 0 1 6.57 8.06A8.24 8.24 0 1 1 4.74 8l1.1.67a6.94 6.94 0 0 0 10.7 8.4.5.5 0 0 0-.63-.76 5.94 5.94 0 0 1-8.93-1.38l1.27-.65a4.52 4.52 0 1 0 2.09-6.67.5.5 0 0 0 .37.92 3.53 3.53 0 1 1-1.79 1.6.5.5 0 0 0-.87-.46 4.53 4.53 0 0 0-.25 3.73l-1.27.64a5.95 5.95 0 1 1 10.7.66.5.5 0 1 0 .86.49A6.94 6.94 0 0 0 6.36 7.82l-1.1-.68a8.28 8.28 0 0 1 4.92-3.36.5.5 0 1 0-.22-.97 9.26 9.26 0 0 0-7.15 9 9.23 9.23 0 0 0 10.77 9.09l.22.98a10.27 10.27 0 0 1-7.78-1.8.75.75 0 1 0-.88 1.2 11.63 11.63 0 0 0 6.9 2.24c3.12 0 6.07-1.22 8.28-3.43a11.64 11.64 0 0 0 3.43-8.29c0-3.13-1.22-6.07-3.43-8.28Zm-5.55 18.14-.22-.98A9.24 9.24 0 0 0 18.17 4.9l.64-.76a10.2 10.2 0 0 1-4.04 17.5Z"/>
</svg>
