<svg xmlns="http://www.w3.org/2000/svg" viewBox="0 0 24 24">
  <path
    d="M22.726 13.798a3.225 3.225 0 0 0-1.049-.697l-1.585-.687-1.11-.762v-.387a3.142 3.142 0 0 0 1.586-2.285c.697-.096 1.236-.718 1.236-1.468 0-.385-.142-.736-.374-1v-1.42c0-2.286-1.789-4.145-3.986-4.145h-.302c-1.809 0-3.387 1.264-3.851 3.077a4.02 4.02 0 0 0-1.091-.151h-.318c-.397 0-.78.059-1.146.167C10.278 2.218 8.697.947 6.881.947h-.302c-2.197 0-3.986 1.86-3.986 4.145v1.42a1.508 1.508 0 0 0-.374 1c0 .75.54 1.372 1.236 1.468a3.144 3.144 0 0 0 1.586 2.285v.387l-1.11.762-1.585.687a3.227 3.227 0 0 0-1.05.697C.82 14.265.254 15.107.254 16.456v2.347a.38.38 0 0 0 .37.387h4.664c-.07.3-.11.633-.11 1.003v2.473a.38.38 0 0 0 .37.387h8.726a.379.379 0 0 0 .37-.387.379.379 0 0 0-.37-.385h-.796l-.448-2.89.175-.486.265.203a.36.36 0 0 0 .309.064.375.375 0 0 0 .245-.206l1.008-2.155 1.346.583a.342.342 0 0 0 .024.01c.017.005 1.702.62 1.702 2.79v2.087h-1.54v-2.2a.379.379 0 0 0-.371-.386.379.379 0 0 0-.372.386v2.2h-.392a.379.379 0 0 0-.372.385c0 .214.167.387.372.387h3.047a.383.383 0 0 0 .371-.391v-2.469c0-.37-.04-.704-.11-1.004h4.663a.383.383 0 0 0 .371-.39v-2.343c0-1.35-.568-2.19-1.044-2.658ZM19.864 8.48c0 1.306-1.022 2.367-2.277 2.367h-.574c-.08 0-.16-.005-.24-.013l.001-.066c0-.403-.15-.77-.394-1.046V8.218c0-.686-.155-1.336-.429-1.914.814-.205 1.77-.597 2.51-1.348.229.51.658 1.173 1.403 1.467V8.48Zm-1.625 3.065v.79l-.954 1.03-.925-.937.001-.013v-.581c.071-.078.135-.162.19-.252.152.024.306.037.462.037h.574c.224 0 .442-.025.652-.074Zm-2.207-.777a.78.78 0 0 1-.186.508.38.38 0 0 0-.168.146.724.724 0 0 1-.166.08v-1.468c.301.098.52.39.52.734Zm5.03-3.257a.71.71 0 0 1-.455.668V6.844c.264.097.454.36.454.668ZM14 4.25c.368-1.49 1.66-2.53 3.141-2.53h.302c1.788 0 3.243 1.512 3.243 3.372v.973a1.73 1.73 0 0 0-.09-.018.38.38 0 0 0-.28-.287c-1.039-.246-1.359-1.625-1.362-1.638a.378.378 0 0 0-.287-.293.365.365 0 0 0-.376.152c-.696 1-1.857 1.437-2.752 1.628a4.246 4.246 0 0 0-1.552-1.317.387.387 0 0 0 .013-.042Zm-2.118.395h.317c1.895 0 3.437 1.603 3.437 3.573v1.053a1.497 1.497 0 0 0-.132-.027c0-.005-.002-.01-.003-.014a.322.322 0 0 0-.016-.055l-.009-.019a.196.196 0 0 0-.006-.014l-.01-.019a.366.366 0 0 0-.008-.014l-.011-.015a.34.34 0 0 0-.061-.069l-.011-.01a.243.243 0 0 0-.017-.012l-.014-.01a.446.446 0 0 0-.016-.01l-.017-.01-.015-.007-.02-.008-.014-.005-.024-.007-.01-.003c-1.107-.262-1.447-1.728-1.45-1.742a.378.378 0 0 0-.287-.292.364.364 0 0 0-.375.151C11.82 8.915 9 8.933 8.957 8.933h-.002c-.012 0-.025.001-.037.003h-.01l-.027.005c-.004 0-.007.002-.01.003a.381.381 0 0 0-.026.007l-.013.005-.02.008-.017.008-.016.008-.016.01-.015.01-.015.01-.013.011-.014.013a.24.24 0 0 0-.012.012l-.012.014-.013.013-.01.015a.445.445 0 0 0-.01.015l-.01.015a.168.168 0 0 0-.017.033l-.008.017-.006.018-.007.018-.004.018-.005.019v.003c-.05.008-.099.018-.147.03V8.218c0-1.97 1.542-3.573 3.438-3.573Zm.15 12.32-.995-1.007.001-.021v-.943c.228.054.464.083.707.083h.605c.236 0 .465-.027.686-.078l.02-.002v.863l-1.024 1.106Zm.55 1.465-.194.535h-.692l-.218-.542.547-.42.557.427Zm-5.54-3.16h-.63l-.174-.48.505-.387.496.38-.196.488Zm.05 1.535a3.55 3.55 0 0 0-.822.602l-.013.013.213-1.377h.503l.119.762Zm-.355-3.44-.954-1.03v-.789c.214.05.433.075.652.075h.574c.178 0 .356-.017.53-.049.037.062.078.121.122.177v.68l-.924.936Zm1.554-.496a.394.394 0 0 0 .11-.323l.326.224c.035.117.077.232.125.344l-.67 1.431-.88-.673.99-1.003Zm-.227-2.1c0-.344.219-.636.52-.734v1.467a.767.767 0 0 1-.52-.733Zm-.21 4.484.247.189a.362.362 0 0 0 .554-.142l.66-1.41c.27.337.603.617.98.82v.402l-1.19.817a.393.393 0 0 0-.048.016l-1.261.547-.123-.788.182-.45Zm2.453.776c-.031.129.003.27.1.37l1.06 1.073-.966.74-.82-1.753.626-.43Zm2.043-1.724h-.605c-1.334 0-2.419-1.128-2.419-2.515v-2.1c.796-.061 2.68-.34 3.95-1.65.24.54.694 1.257 1.493 1.566v2.184c0 1.387-1.085 2.515-2.419 2.515ZM3.416 8.18a.71.71 0 0 1-.455-.668c0-.308.19-.57.455-.668V8.18Zm.382-2.43h-.01a.375.375 0 0 0-.361.297 1.45 1.45 0 0 0-.091.018v-.973c0-1.86 1.455-3.372 3.243-3.372h.302c1.481 0 2.773 1.04 3.141 2.53a.363.363 0 0 0 .023.066c-.49.25-.924.596-1.283 1.015-.428-.463-.577-1.11-.579-1.116a.378.378 0 0 0-.287-.293.365.365 0 0 0-.376.152C6.365 5.734 3.835 5.75 3.798 5.75Zm.361 2.731V6.506c.73-.058 2.39-.316 3.531-1.463.133.29.334.63.624.914a4.449 4.449 0 0 0-.612 2.261V9.74c-.236.272-.38.633-.38 1.028l.002.057a2.217 2.217 0 0 1-.314.023h-.574c-1.255 0-2.277-1.061-2.277-2.367Zm.89 4.09a.388.388 0 0 0 .096.188l1.035 1.117-.875.67-.761-1.627.506-.348Zm.302 5.846H3.162V16.35a.379.379 0 0 0-.371-.387.379.379 0 0 0-.372.387v2.067H.995v-1.96c0-2.028 1.539-2.607 1.603-2.63a.352.352 0 0 0 .024-.01l1.26-.546.95 2.03a.375.375 0 0 0 .334.216.361.361 0 0 0 .22-.075l.231-.177.156.431-.422 2.721Zm5.269 3.863H8.202v-2.2a.379.379 0 0 0-.371-.385.379.379 0 0 0-.371.386v2.2H5.92v-2.087c0-2.153 1.633-2.766 1.701-2.79a.41.41 0 0 0 .025-.01l1.37-.594 1.014 2.166a.375.375 0 0 0 .333.217.36.36 0 0 0 .22-.075l.28-.214.204.504-.447 2.883Zm.752 0 .394-2.543h.564l.395 2.544h-1.353Zm2.178-4.069-.292-.224c-.001 0-.002 0-.003-.002l-.665-.508 1.106-1.194a.39.39 0 0 0 .101-.218l.573.393-.82 1.753Zm2.677-1.72-1.246-.539-1.18-.809v-.433c.355-.192.672-.452.933-.763l.633 1.353a.376.376 0 0 0 .334.217.36.36 0 0 0 .22-.075l.246-.188.182.45-.122.788Zm-.387-1.946-.632-1.35c.072-.155.131-.319.179-.488l.234-.16a.395.395 0 0 0 .11.322l.99 1.003-.881.673Zm1.912 2.862a3.552 3.552 0 0 0-.822-.602l.119-.762h.502l.214 1.377-.013-.013Zm-.142-2.136h-.63l-.197-.489.496-.38.505.387-.174.482Zm.233-1.395 1.034-1.117a.388.388 0 0 0 .096-.188l.506.348-.761 1.626-.875-.67Zm3.76 4.541V16.35a.379.379 0 0 0-.37-.387.379.379 0 0 0-.372.387v2.067h-2.19l-.421-2.72.155-.432.232.177a.36.36 0 0 0 .309.064.375.375 0 0 0 .245-.206l.949-2.029 1.26.546a.342.342 0 0 0 .025.01c.016.006 1.602.583 1.602 2.63v1.96h-1.423Z"/>
</svg>
