<svg xmlns="http://www.w3.org/2000/svg" viewBox="0 0 24 24">
  <path d="M7 10.14A3.02 3.02 0 1 1 7 4.1a3.02 3.02 0 0 1 0 6.04Zm11.25 0a3.02 3.02 0 1 1 0-6.04 3.02 3.02 0 0 1 0 6.04Zm4.17-4.18a4.34 4.34 0 0 0-8.18-.47 3 3 0 0 0-3.23 0 4.34 4.34 0 0 0-8.2.46.67.67 0 0 1-.64.49h-.4v1.35h.4c.3 0 .57.2.65.48a4.34 4.34 0 0 0 4.36 3.18A4.24 4.24 0 0 0 11.3 7.5a1.42 1.42 0 0 1 2.63-.02 4.34 4.34 0 0 0 8.5.79.67.67 0 0 1 .64-.49h.4V6.44h-.4c-.3 0-.57-.2-.65-.48Zm-.83 10.98c-.45 1.37-1.6 3.35-4.4 3.49a5.08 5.08 0 0 1-4.57-2.04 5.1 5.1 0 0 1-4.56 2.04c-2.81-.14-3.96-2.34-4.4-3.71-.04-.12-.2-.7.29-.38l.16.12c.3.19.68.34 1.2.36 1.53.08 2.86-2.53 5-2.43.54.03 1.3.1 2.3 1.12 1.03-1.02 1.78-1.1 2.33-1.12 2.12-.1 3.46 2.5 4.98 2.43a2.39 2.39 0 0 0 1.37-.48c.5-.31.34.26.3.38v.22ZM1.78 18.67c0 .21-.24.38-.54.38-.3 0-.54-.17-.54-.38V6.65c0-.21.24-.39.54-.39.3 0 .54.18.54.4v12Z"/>
</svg>
