<svg xmlns="http://www.w3.org/2000/svg" viewBox="0 0 24 24">
  <path
    d="M6.99 12.3c0-.65-.46-1.03-1.24-1.03-.32 0-.54.02-.67.06v2.07c.15.04.3.04.53.04.86 0 1.38-.43 1.38-1.15Zm4.9-1.02c-.36 0-.58.04-.72.07v4.6c.14.02.35.02.55.02 1.44.02 2.39-.77 2.39-2.45 0-1.47-.86-2.24-2.22-2.24Z"/>
  <path
    d="M21.28 8.59h-.57V5.73a.5.5 0 0 0-.12-.29L15.96.16a.47.47 0 0 0-.1-.08l-.02-.01a.48.48 0 0 0-.1-.04L15.73 0H4.24a.93.93 0 0 0-.93.93V8.6h-.59a1.33 1.33 0 0 0-1.35 1.33v7a1.33 1.33 0 0 0 1.34 1.35h.58v4.8c0 .5.43.93.94.93h15.53a.93.93 0 0 0 .93-.93v-4.8h.59a1.33 1.33 0 0 0 1.35-1.34V9.92a1.33 1.33 0 0 0-1.34-1.35l-.01.02ZM4.24.93h10.9v4.8c0 .27.2.48.47.48h4.15v2.36H4.24V.93Zm11.55 12.52a3.6 3.6 0 0 1-1.16 2.84c-.75.63-1.87.91-3.26.91-.81 0-1.4-.05-1.8-.1v-6.89a14.9 14.9 0 0 1 2.15-.14c1.33 0 2.2.24 2.88.74.73.54 1.2 1.42 1.2 2.66l-.01-.02ZM3.52 17.13V10.2c.48-.08 1.17-.15 2.13-.15.99 0 1.7.19 2.16.56.46.36.75.94.75 1.63 0 .7-.23 1.28-.64 1.67-.55.52-1.35.74-2.3.74-.2 0-.4 0-.53-.04v2.52H3.52Zm16.24 5.66H4.24v-4.54h15.52v4.54Zm1.37-11.38h-2.7v1.6h2.53v1.3h-2.53v2.82h-1.6v-7.01h4.3v1.3Z"/>
</svg>
