<svg xmlns="http://www.w3.org/2000/svg" viewBox="0 0 24 24">
  <path d="M11.14 17.77a.83.83 0 0 1-.82-.82c-.1-1.66.44-3.3 1.53-4.55.37-.44 1.03-1.08 1.97-1.9a9.34 9.34 0 0 0 1.84-2c.3-.5.43-1.05.43-1.63 0-1.08-.42-2-1.24-2.81a4.22 4.22 0 0 0-3.06-1.2 4.1 4.1 0 0 0-2.91 1.09A4.88 4.88 0 0 0 7.6 6.2a1.42 1.42 0 0 1-2.74-.8c.33-1.22 1-2.3 1.92-3.15A7.24 7.24 0 0 1 11.75.6c2.18 0 3.9.6 5.21 1.78a5.61 5.61 0 0 1 1.25 6.99c-.45.83-1.34 1.82-2.67 3-.63.52-1.21 1.1-1.74 1.74-.28.37-.48.8-.61 1.3-.1.36-.17.89-.2 1.58a.83.83 0 0 1-.83.78h-1.02Zm-.97 3.93a1.56 1.56 0 1 1 3.11 0 1.56 1.56 0 0 1-3.11 0Z"/>
</svg>
