<svg xmlns="http://www.w3.org/2000/svg" viewBox="0 0 24 24">
  <path
    d="M13.3 23.05h-2.48c-.37 0-.5 0-1.76-3.14l-.98-.4c-2.67 1.22-2.99 1.22-3.1 1.22h-.2l-.17-.15-1.76-1.72c-.26-.26-.35-.36 1.02-3.46l-.4-.94C.25 13.3.25 13.17.25 12.79v-2.42c0-.38 0-.5 3.2-1.75l.4-.94C2.42 4.62 2.52 4.53 2.8 4.26l1.89-1.85h.23c.29 0 1.34.38 3.14 1.14l.98-.4C10.2 0 10.35 0 10.72 0h2.47c.37 0 .5 0 1.77 3.14l.98.4c2.67-1.21 2.99-1.21 3.1-1.21h.2l.17.15 1.75 1.7c.27.28.36.37-1.01 3.47l.4.95c3.22 1.15 3.22 1.28 3.22 1.66v2.43c0 .37 0 .5-3.21 1.74l-.4.95c1.45 3.04 1.35 3.13 1.08 3.4l-1.9 1.86-.23.01c-.29 0-1.34-.38-3.14-1.15l-.98.4c-1.18 3.15-1.31 3.15-1.7 3.15Zm-2.22-1h1.95c.23-.45.71-1.66 1.1-2.7l.08-.21 1.77-.72.2.08a44 44 0 0 0 2.79 1.1l1.37-1.33a40.3 40.3 0 0 0-1.18-2.66l-.1-.2.74-1.76.2-.08c1.07-.4 2.3-.92 2.77-1.15v-1.88c-.47-.22-1.7-.7-2.76-1.07l-.21-.07-.74-1.76.09-.2c.45-1.02.96-2.23 1.12-2.72L18.9 3.37c-.45.16-1.69.7-2.74 1.17l-.2.09-1.77-.72-.08-.2a41.52 41.52 0 0 0-1.17-2.7h-1.95c-.23.45-.71 1.66-1.1 2.7l-.07.2-1.78.73-.19-.09a44.07 44.07 0 0 0-2.8-1.1L3.68 4.79c.17.48.7 1.66 1.18 2.66l.1.2-.74 1.76-.2.07c-1.07.41-2.3.92-2.77 1.15v1.89c.47.22 1.7.69 2.76 1.07l.21.07.74 1.75-.09.2a43.4 43.4 0 0 0-1.12 2.72l1.38 1.35c.44-.15 1.68-.69 2.73-1.17l.2-.09 1.77.72.08.2c.42 1.05.94 2.26 1.17 2.71Zm.93-6.49a4.08 4.08 0 0 1-4.11-4.03A4.08 4.08 0 0 1 12 7.49c2.27 0 4.11 1.81 4.11 4.04a4.08 4.08 0 0 1-4.1 4.03Zm0-7.06a3.08 3.08 0 0 0-3.11 3.03c0 1.67 1.4 3.03 3.11 3.03s3.1-1.36 3.1-3.03c0-1.67-1.39-3.03-3.1-3.03Z"/>
</svg>
