<svg xmlns="http://www.w3.org/2000/svg" viewBox="0 0 24 24">
  <path
    d="M23.4 16.82c.2 0 .38-.18.38-.38V1.38c0-.2-.17-.38-.37-.38H.6c-.2 0-.38.18-.38.38v20.58c0 .2.18.37.38.37h22.8c.2 0 .37-.17.37-.37v-4.03c0-.2-.17-.37-.37-.37-.2 0-.38.17-.38.37v3.65H.98V4.76h22.05v11.66c0 .22.18.4.38.4Zm-8.5-12.8H.98V1.76H14.9v2.26Zm.75 0V1.76h7.4v2.26h-7.4Zm3.69-1.53a.4.4 0 0 0-.4.4c0 .22.18.4.4.4a.4.4 0 0 0 .4-.4.4.4 0 0 0-.4-.4Zm-2.04 0a.4.4 0 0 0-.4.4c0 .22.17.4.4.4a.4.4 0 0 0 .4-.4.4.4 0 0 0-.4-.4Zm4.1 0a.4.4 0 0 0-.4.4c0 .22.18.4.4.4a.4.4 0 0 0 .4-.4.4.4 0 0 0-.4-.4ZM20 13.69c0-1.27-.84-2.45-2.4-3.33A11.89 11.89 0 0 0 12.04 9c-2.09.02-4.09.51-5.58 1.36-1.55.88-2.42 2.06-2.4 3.3v.03c0 1.09.91 2.07 2.02 2.18a74.32 74.32 0 0 0 11.91 0 2.27 2.27 0 0 0 2.03-2.18Zm-4.06-3.38L15.56 12c-.02.04-.04.07-.06.07-.03 0-.05-.03-.07-.07l-.45-1.98.96.3Zm-4.42-.64h.98l-.45 1.95c-.02.05-.04.07-.07.07-.02 0-.04-.02-.06-.07l-.4-1.95ZM9 10.02 8.56 12c-.02.04-.04.07-.06.07-.03 0-.05-.03-.07-.07l-.38-1.69.96-.29Zm10.35 3.67c0 .75-.66 1.47-1.42 1.53-3.93.34-7.93.34-11.87 0a1.62 1.62 0 0 1-1.42-1.53v-.02c0-1 .73-1.98 2.09-2.76.22-.13.49-.24.73-.38l.36 1.6v.03a.7.7 0 0 0 .69.55c.3 0 .58-.22.69-.55v-.03l.5-2.29c.39-.06.76-.13 1.16-.15l.47 2.07v.02c.09.33.36.55.67.55.3 0 .57-.22.69-.55v-.02l.46-2.07c.4.04.78.09 1.16.15l.5 2.3v.02c.1.33.36.55.7.55.3 0 .58-.22.69-.55v-.03l.35-1.6c.27.11.51.25.74.38 1.33.76 2.06 1.73 2.06 2.78Zm-3.53.29h-4.27c-.18 0-.33.13-.33.3 0 .19.15.32.33.32h4.27c.18 0 .33-.13.33-.31s-.15-.31-.33-.31Zm-5.65 0h-.02c-.18 0-.33.13-.33.3 0 .19.15.32.33.32h.02c.18 0 .34-.13.34-.31s-.16-.31-.34-.31Zm10.34 2.55c0-.17-.16-.3-.34-.3h-.02c-.18 0-.33.13-.33.3 0 .18.15.31.33.31h.02c.18 0 .34-.13.34-.3Zm-1.7.34c-.17 0-.32.13-.32.3 0 .19.15.32.33.32h.02c.18 0 .33-.13.33-.31s-.15-.31-.33-.31h-.02Zm1.12 1.3h.02c.18 0 .34-.13.34-.3 0-.18-.16-.31-.34-.31h-.02c-.18 0-.33.13-.33.3 0 .18.15.32.33.32ZM3.27 15.77c-.17 0-.33.13-.33.3 0 .18.16.32.33.32h.03c.17 0 .33-.14.33-.31 0-.18-.16-.31-.33-.31h-.03Zm1.56.66c-.18 0-.33.14-.33.31 0 .18.15.31.33.31h.02c.18 0 .33-.13.33-.3 0-.18-.15-.32-.33-.32h-.02Z"/>
</svg>
