<svg xmlns="http://www.w3.org/2000/svg" viewBox="0 0 24 24">
  <path d="M22.71 11.86c-.35 0-.62-.1-.8-.29a1.08 1.08 0 0 1-.27-.78c0-.34.09-.6.27-.79.18-.18.45-.28.8-.28.36 0 .62.1.8.28.19.18.28.45.28.79s-.1.6-.28.79c-.2.18-.46.28-.8.28Zm-5.28 3.52c.25.31.6.47 1.04.47.56 0 1.14-.18 1.73-.53v1.43a3.8 3.8 0 0 1-2 .5 2.6 2.6 0 0 1-2.13-.97 4.24 4.24 0 0 1-.79-2.73c0-1.2.24-2.13.71-2.8.47-.68 1.13-1.01 1.97-1.01.8 0 1.41.28 1.87.86.45.57.68 1.38.68 2.41v.93h-3.47c0 .64.14 1.12.4 1.44Zm1.39-2.7c-.01-.53-.1-.93-.25-1.2-.15-.27-.35-.41-.62-.41-.25 0-.45.13-.6.4-.17.26-.26.66-.29 1.21h1.76ZM12.36 7h1.73v10.12h-1.73V7Zm-2.28 10.25c-.62 0-1.09-.2-1.4-.57-.3-.37-.45-.93-.45-1.68v-3.75h-.7v-.78l.9-.62.45-1.54h1.1v1.56h1.31v1.38H9.98v3.8c0 .49.2.73.58.73a2 2 0 0 0 .79-.18v1.35c-.28.2-.7.3-1.27.3ZM5.72 8.9a.96.96 0 0 1-.69-.24.9.9 0 0 1-.26-.69c0-.28.09-.51.25-.68.17-.16.4-.25.7-.25.28 0 .5.09.68.25.16.17.25.4.25.68a.9.9 0 0 1-.26.69.94.94 0 0 1-.67.24Zm-3.17 8.34c-.63 0-1.1-.2-1.4-.57C.86 16.31.7 15.75.7 15v-3.75H0v-.78l.9-.62.44-1.54h1.1v1.56h1.32v1.38H2.45v3.8c0 .49.2.73.58.73a2 2 0 0 0 .79-.18v1.35c-.28.2-.7.3-1.27.3Zm4.02-.13H4.84V9.87h1.73v7.25Zm16.14-1.96c.36 0 .62.1.8.28.19.18.28.44.28.79 0 .33-.1.6-.28.78-.2.19-.46.28-.8.28-.35 0-.62-.1-.8-.28a1.08 1.08 0 0 1-.27-.78c0-.34.09-.6.27-.8.18-.18.45-.27.8-.27Z"/>
</svg>
