<svg xmlns="http://www.w3.org/2000/svg" viewBox="0 0 24 24">
  <path d="M20.26 11.73a8.53 8.53 0 0 0-4.46-2.46c-.74-.2-1.47-.34-2.2-.4a5.28 5.28 0 0 0-.67-7.4 5.27 5.27 0 0 0-7.4.66 5.27 5.27 0 0 0 1.87 8.14v1.46l-1.07-1a2.5 2.5 0 0 0-3.47 0c-.93.94-1 2.4-.06 3.34l3.06 3.6c.14.92.46 1.8.94 2.6.33.6.8 1.2 1.26 1.66v1.27c0 .4.27.67.67.67h9.07a.72.72 0 0 0 .66-.67v-1.73a8.5 8.5 0 0 0 1.94-5.4V12.2c.06-.27 0-.4-.14-.47ZM5.6 5.47c0-2.2 1.8-3.94 4-3.87 2.2 0 3.93 1.8 3.86 4 0 1.2-.53 2.27-1.46 3V5.27a2.27 2.27 0 0 0-2.27-2.14 2.18 2.18 0 0 0-2.27 2.14v3.46A3.98 3.98 0 0 1 5.6 5.47ZM19.13 16a6.85 6.85 0 0 1-1.67 4.73c-.13.14-.26.27-.26.47v1.4H9.46v-.93c0-.2-.13-.4-.26-.54-.47-.4-.87-.86-1.2-1.46a6.55 6.55 0 0 1-.8-2.27.93.93 0 0 0-.14-.4l-3.2-3.8a1.1 1.1 0 0 1-.33-.8c0-.27.13-.6.33-.8.47-.4 1.14-.4 1.6 0l1.94 1.93v2l1.26-.66v-9.6c.07-.47.47-.87 1-.8.47 0 .94.33.94.8v7.66l1.33.27v-3.07c.07-.06.13-.06.2-.13.47 0 .93.07 1.4.13v3.4l1.07.2v-3.46l.8.2c.33.06.66.2 1 .33v3.33l1.06.2v-3.06c.6.26 1.14.66 1.6 1.13l.07 3.6Z"/>
</svg>
