<svg xmlns="http://www.w3.org/2000/svg" viewBox="0 0 24 24">
  <path
    d="M22.5 17.75h-4.4c-.72 0-1.3.58-1.3 1.28v2.05c0 .71.58 1.29 1.3 1.29h4.4c.71 0 1.3-.58 1.3-1.29v-2.05c0-.7-.58-1.28-1.3-1.28Zm-16.6 0H1.5c-.71 0-1.3.58-1.3 1.28v2.05c0 .71.59 1.29 1.3 1.29h4.4c.71 0 1.3-.58 1.3-1.29v-2.05c0-.7-.58-1.28-1.3-1.28ZM4.35 15.5h7.02v1.12h1.29V15.5h7.01v1.12h1.29v-1.76a.64.64 0 0 0-.65-.63h-7.66v-2.47h3.74c.38 0 .74-.05 1.08-.22a2.21 2.21 0 0 0 1.28-2.1v-6.1c0-1.36-.97-2.35-2.33-2.35H7.56c-1.31 0-2.3.98-2.3 2.29v6.19a2.22 2.22 0 0 0 2.24 2.3l2.36-.01h1.5v2.47H3.7a.64.64 0 0 0-.64.63v1.76h1.28V15.5ZM16.31 2.32a.62.62 0 1 1 0 1.24.62.62 0 0 1 0-1.24Zm-2.13 0a.62.62 0 1 1 0 1.24.62.62 0 0 1 0-1.24Zm-2.12 0a.62.62 0 1 1 0 1.24.62.62 0 0 1 0-1.24Zm-2.2 8.17H7.59c-.65 0-1.05-.4-1.05-1.05V4.86h10.94v4.59c0 .63-.41 1.04-1.04 1.04H9.87Zm4.35 7.26H9.79c-.7 0-1.29.58-1.29 1.28v2.05c0 .71.58 1.29 1.3 1.29h4.4c.71 0 1.29-.58 1.29-1.29v-2.05c0-.7-.58-1.28-1.28-1.28Z"/>
</svg>
