<svg xmlns="http://www.w3.org/2000/svg" viewBox="0 0 24 24">
  <path
    d="M2.39 7.85v4.57c0 1.37.52 2.06 1.44 2.06.94 0 1.46-.66 1.46-2.06V7.85h1.8v4.45c0 2.46-1.25 3.62-3.32 3.62-2 0-3.18-1.1-3.18-3.64V7.85h1.8Zm7.78 1.5H8.04v-1.5h6.1v1.5h-2.17v6.44h-1.8V9.36Zm11.6 3.4a89.6 89.6 0 0 1-.07-3.27h-.03a42.8 42.8 0 0 1-.89 3.08l-.97 3.1h-1.4l-.85-3.07c-.26-.94-.53-2.07-.72-3.1h-.02c-.05 1.07-.08 2.3-.14 3.28l-.14 3.02h-1.67l.51-7.94h2.4l.77 2.65c.25.92.5 1.9.67 2.84h.04c.22-.92.5-1.97.75-2.85l.85-2.64h2.35l.44 7.94h-1.76l-.12-3.04Z"/>
</svg>
