<svg xmlns="http://www.w3.org/2000/svg" viewBox="0 0 24 24">
  <path d="M14.01 8.68c0 .58-.02 1.14-.03 1.71-.01.37.02.75.09 1.11.04.2.13.4.26.55a.35.35 0 0 0 .38.16c.05-.01.1-.03.14-.06.17-.1.33-.24.47-.39.42-.47.79-1 1.1-1.55a21.8 21.8 0 0 0 1.84-3.87c.03-.1.08-.2.13-.29a.63.63 0 0 1 .6-.34l1.17-.01 2.45-.01c.27-.01.55 0 .83.03.19.01.37.11.47.27a.57.57 0 0 1 .04.54c-.07.34-.18.68-.35.99-.4.8-.85 1.55-1.37 2.28-.54.79-1.1 1.56-1.65 2.35-.16.24-.3.49-.43.75a1 1 0 0 0 .1 1.05c.24.34.52.66.82.95.72.69 1.4 1.43 2.01 2.21.28.36.52.74.72 1.15.07.13.12.27.15.41a.68.68 0 0 1-.27.76c-.25.18-.54.28-.85.29-1.01 0-2.02.02-3.04.04-.33.02-.66-.02-.98-.12-.5-.2-.94-.52-1.3-.93-.36-.42-.7-.86-1.07-1.27-.25-.3-.52-.57-.8-.85-.08-.08-.18-.14-.3-.2a.6.6 0 0 0-.76.15c-.16.18-.28.4-.34.64-.13.4-.2.82-.22 1.25 0 .18-.01.38-.04.58a.7.7 0 0 1-.48.6c-.15.06-.31.09-.48.1h-1.39c-.9-.02-1.8-.21-2.63-.58a8.93 8.93 0 0 1-3.45-2.62c-.82-1-1.56-2.07-2.2-3.2A53.04 53.04 0 0 1 .1 6.69a1.49 1.49 0 0 1-.1-.4.4.4 0 0 1 .27-.48c.18-.06.37-.1.57-.11l2.88-.02h.29c.5-.02.95.3 1.09.77.6 1.64 1.4 3.2 2.36 4.67.2.3.43.58.67.84.11.11.24.2.39.26a.44.44 0 0 0 .34.01c.11-.04.2-.13.24-.24.12-.22.2-.46.23-.71.1-.6.13-1.2.11-1.8 0-.6-.04-1.22-.08-1.84a3.07 3.07 0 0 0-.1-.5 1.26 1.26 0 0 0-.9-.97l-.3-.08c-.12-.03-.14-.07-.09-.18.12-.22.3-.4.51-.53.26-.14.54-.23.82-.26.86-.1 1.73-.14 2.6-.09.43 0 .87.06 1.29.17.49.1.83.53.82 1.02.04.5.05 1.02.02 1.53l-.04.94h.01Z"/>
</svg>
