<svg xmlns="http://www.w3.org/2000/svg" viewBox="0 0 24 24">
  <path
    d="M2.97 22.61h.79a.38.38 0 0 0 .28-.1.4.4 0 0 0 .13-.3.41.41 0 0 0-.13-.3.39.39 0 0 0-.29-.1h-.78a.38.38 0 0 0-.29.1.4.4 0 0 0-.12.3.41.41 0 0 0 .12.3.39.39 0 0 0 .3.1Zm4.7 0h.8a.38.38 0 0 0 .28-.1.4.4 0 0 0 .12-.3.41.41 0 0 0-.12-.3.39.39 0 0 0-.29-.1h-.78a.38.38 0 0 0-.3.1.4.4 0 0 0-.11.3.41.41 0 0 0 .12.3.39.39 0 0 0 .29.1Zm0-14.43h.8a.38.38 0 0 0 .28-.1.4.4 0 0 0 .12-.3.41.41 0 0 0-.12-.29.39.39 0 0 0-.29-.1h-.81a.38.38 0 0 0-.27.12.4.4 0 0 0-.11.29.41.41 0 0 0 .12.28.39.39 0 0 0 .29.1Zm2.36 14.43h.78a.38.38 0 0 0 .3-.1.4.4 0 0 0 .11-.3.41.41 0 0 0-.12-.3.39.39 0 0 0-.29-.1h-.78a.38.38 0 0 0-.29.1.4.4 0 0 0-.12.3.41.41 0 0 0 .12.3.39.39 0 0 0 .3.1ZM5.33 8.18h.78a.38.38 0 0 0 .29-.1.4.4 0 0 0 .12-.3.41.41 0 0 0-.12-.29.39.39 0 0 0-.3-.1h-.8a.38.38 0 0 0-.28.12.4.4 0 0 0-.1.29.41.41 0 0 0 .12.28.39.39 0 0 0 .29.1Zm-2.36 0h.79a.38.38 0 0 0 .28-.1.4.4 0 0 0 .13-.3.41.41 0 0 0-.13-.29.39.39 0 0 0-.29-.1h-.8a.38.38 0 0 0-.28.12.4.4 0 0 0-.1.29.41.41 0 0 0 .12.28.39.39 0 0 0 .28.1Zm19.6 9.62c-.1 0-.2.04-.27.12a.41.41 0 0 0-.11.28v4.01c0 .32-.13.63-.35.85-.22.23-.52.35-.83.35H2.19c-.31 0-.61-.12-.83-.35a1.24 1.24 0 0 1-.35-.85V6.18c.04-.34.19-.67.42-.92.23-.26.53-.43.86-.5l11.8-3.62a1.78 1.78 0 0 1 1.46 0 1.2 1.2 0 0 1 .36 1.04c.01.1.06.2.13.27a.39.39 0 0 0 .53 0 .41.41 0 0 0 .13-.27 1.97 1.97 0 0 0-.72-1.71 2.45 2.45 0 0 0-2.16-.08L2.08 4A2.38 2.38 0 0 0 .23 6.17v16.04c0 .53.2 1.04.57 1.42.37.37.86.58 1.38.58h18.84c.52 0 1.01-.2 1.38-.58.36-.38.57-.89.57-1.42v-4c0-.11-.04-.21-.11-.29a.38.38 0 0 0-.28-.12ZM10.04 8.18h.78a.38.38 0 0 0 .3-.1.4.4 0 0 0 .12-.3.41.41 0 0 0-.13-.29.39.39 0 0 0-.29-.1h-.78a.38.38 0 0 0-.29.1.4.4 0 0 0-.12.3.41.41 0 0 0 .12.29.39.39 0 0 0 .3.1Zm-4.7 14.43h.78a.38.38 0 0 0 .29-.1.4.4 0 0 0 .12-.3.41.41 0 0 0-.12-.3.39.39 0 0 0-.3-.1h-.77a.38.38 0 0 0-.3.1.4.4 0 0 0-.12.3.41.41 0 0 0 .13.3.39.39 0 0 0 .29.1ZM22.97 13V7.8c0-.54-.21-1.05-.58-1.42a1.92 1.92 0 0 0-1.38-.58H6.34l12.4-2.42c.26-.05.53.01.76.17a1.3 1.3 0 0 1 .33 1.05c0 .22.18.4.4.4a.4.4 0 0 0 .39-.4 2.08 2.08 0 0 0-.64-1.68 1.76 1.76 0 0 0-1.4-.32L2.1 5.8a.39.39 0 0 0-.24.16.41.41 0 0 0 .05.54c.08.06.17.1.27.1H21c.31 0 .6.13.83.35.22.23.34.53.35.85V13h-7.85c-.2 0-.4.09-.55.24a.82.82 0 0 0-.23.56v2.4c0 .22.08.42.23.57.15.15.34.24.55.24h8.64a.8.8 0 0 0 .78-.8v-2.42a.82.82 0 0 0-.23-.56.77.77 0 0 0-.55-.24Zm-8.63 3.21v-2.4h8.63v2.4h-8.63Zm3.53-8.02a.38.38 0 0 0 .3-.1.4.4 0 0 0 .11-.3.41.41 0 0 0-.12-.29.39.39 0 0 0-.29-.1h-.78a.38.38 0 0 0-.29.1.4.4 0 0 0-.12.3.41.41 0 0 0 .12.29.39.39 0 0 0 .3.1h.77Zm-2.35 0a.38.38 0 0 0 .29-.1.4.4 0 0 0 .12-.3.41.41 0 0 0-.12-.29.39.39 0 0 0-.29-.1h-.81a.38.38 0 0 0-.27.12.4.4 0 0 0-.11.29.41.41 0 0 0 .12.28.39.39 0 0 0 .29.1h.78Zm4.7 0a.38.38 0 0 0 .3-.1.4.4 0 0 0 .12-.3.41.41 0 0 0-.13-.29.39.39 0 0 0-.28-.1h-.81a.38.38 0 0 0-.28.12.4.4 0 0 0-.1.29.41.41 0 0 0 .12.28.39.39 0 0 0 .28.1h.79Zm-4.69 6.42a.38.38 0 0 0-.21.07.41.41 0 0 0-.05.62.38.38 0 0 0 .42.08.4.4 0 0 0 .17-.15.41.41 0 0 0-.05-.5.39.39 0 0 0-.28-.12Zm-.01 8.01a.38.38 0 0 0 .29-.1.4.4 0 0 0 .12-.3.41.41 0 0 0-.12-.3.39.39 0 0 0-.3-.1h-.77a.37.37 0 0 0-.3.1.4.4 0 0 0-.11.3.41.41 0 0 0 .12.3.39.39 0 0 0 .29.1h.78Zm4.7 0a.38.38 0 0 0 .3-.1.4.4 0 0 0 .12-.3.41.41 0 0 0-.13-.3.39.39 0 0 0-.29-.1h-.78a.38.38 0 0 0-.29.1.4.4 0 0 0-.12.3.41.41 0 0 0 .12.3.39.39 0 0 0 .3.1h.78ZM12.39 8.18h.79a.38.38 0 0 0 .29-.1.4.4 0 0 0 .12-.3.41.41 0 0 0-.12-.29.39.39 0 0 0-.3-.1h-.8a.38.38 0 0 0-.28.12.4.4 0 0 0-.1.29.41.41 0 0 0 .12.28.39.39 0 0 0 .28.1Zm0 14.43h.79a.38.38 0 0 0 .29-.1.4.4 0 0 0 .12-.3.41.41 0 0 0-.12-.3.39.39 0 0 0-.3-.1h-.78a.38.38 0 0 0-.29.1.4.4 0 0 0-.12.3.41.41 0 0 0 .13.3.39.39 0 0 0 .28.1Zm5.5 0a.38.38 0 0 0 .28-.1.4.4 0 0 0 .12-.3.41.41 0 0 0-.12-.3.39.39 0 0 0-.29-.1h-.78a.38.38 0 0 0-.29.1.4.4 0 0 0-.12.3.41.41 0 0 0 .12.3.39.39 0 0 0 .29.1h.78Z"/>
</svg>
