<svg xmlns="http://www.w3.org/2000/svg" viewBox="0 0 24 24">
  <path
    d="M4 19.73H0V5h4v1.74H2.13V18H4v1.74Zm8.38-3.26h-2.03l-1.13-4.4a21.4 21.4 0 0 1-.4-1.97 22.34 22.34 0 0 1-.38 1.97l-1.13 4.4H5.3L3.15 8.08H4.9l1.08 4.58c.18.85.32 1.58.4 2.2a15.73 15.73 0 0 1 .4-2.08L8 8.08h1.68l1.22 4.7a23.47 23.47 0 0 1 .38 2.08 19.99 19.99 0 0 1 .42-2.2l1.06-4.58h1.75l-2.13 8.4Zm8.14-2.33c0 .76-.27 1.36-.82 1.8-.54.43-1.3.65-2.27.65-.9 0-1.69-.17-2.38-.5v-1.66c.57.25 1.05.43 1.44.53.4.1.75.16 1.08.16.39 0 .69-.08.9-.23.2-.14.3-.37.3-.66a.74.74 0 0 0-.13-.44c-.1-.13-.23-.25-.4-.37-.18-.12-.54-.3-1.1-.57-.5-.24-.89-.47-1.15-.7a2.6 2.6 0 0 1-.6-.77 2.2 2.2 0 0 1-.24-1.03c0-.74.25-1.33.76-1.75.5-.43 1.2-.64 2.08-.64.44 0 .85.05 1.25.16.4.1.8.25 1.24.43l-.57 1.39a8.43 8.43 0 0 0-1.11-.39c-.28-.07-.57-.1-.87-.1-.33 0-.6.07-.77.23a.78.78 0 0 0-.27.61c0 .16.04.3.1.41.08.12.2.23.36.34.15.11.53.3 1.12.59.79.37 1.33.75 1.62 1.13.29.37.43.84.43 1.38Zm-.8 3.85h1.84V6.74h-1.84V5h3.99v14.73h-4V18Z"/>
</svg>
