<svg xmlns="http://www.w3.org/2000/svg" viewBox="0 0 24 24">
  <path d="M21.72 17.12H.26V6.44h21.46l2.05 5.59-2.05 5.09ZM.8 16.58h20.55l1.84-4.56-1.85-5.04H.8v9.6Zm1.08-8.76h.56v8.17h-.56V7.82Zm16.4 4.1h-.59v-.35c0-.15.13-.28.28-.28h.04c.15 0 .28.13.28.28v.34Zm-2.22-.75c-.15 0-.28.1-.28.23v1.68c0 .12.13.22.28.22.15 0 .27-.1.27-.22V11.4c0-.12-.12-.23-.27-.23Zm2.14-2.32h-6.07c-.8 0-1.47.62-1.47 1.39v3.19c0 .76.66 1.39 1.47 1.39h6.07c.81 0 1.47-.63 1.47-1.4v-3.18c0-.77-.66-1.4-1.47-1.4Zm-5.66 4.92h-.63V10.4h-.62v-.49h2v.5h-.75v3.36Zm2.25 0h-.5v-.37c-.13.3-.68.53-.96.32-.15-.1-.14-.3-.16-.46v-2.35h.62v2.25c.1.27.32.12.37-.02.02-.04 0-.17 0-.43v-1.8h.63v2.86Zm.94-.27-.05.24h-.51V9.93h.62v1.1c.58-.46 1-.11 1 .45v1.5c0 .72-.4 1.14-1.06.53Zm1.44-.73v-.89a2 2 0 0 1 .08-.63.7.7 0 0 1 .27-.35c.38-.28 1.13-.2 1.2.34.03.17.04.47.04.76v.4h-1.08v.7c0 .14.12.25.26.25h.1c.13 0 .25-.11.25-.25v-.33h.47c.21 1.27-1.59 1.48-1.59 0Zm-9.06.88c.03.08.08.14.15.19.07.05.15.07.26.07a.4.4 0 0 0 .24-.07.58.58 0 0 0 .17-.23l-.01.25h.7v-2.98h-.55v2.32a.23.23 0 1 1-.46 0v-2.32h-.57v2.52l.07.25Zm-.5-2.23a.98.98 0 0 0-.13-.31.69.69 0 0 0-.27-.25.87.87 0 0 0-.42-.09c-.19 0-.35.05-.47.15-.12.1-.21.22-.26.38-.04.16-.07.38-.07.67v.79c0 .26.01.45.04.58.03.13.07.24.13.34.06.09.15.16.26.2.11.05.24.07.4.07.15 0 .27-.03.38-.08.11-.06.2-.14.27-.25a.96.96 0 0 0 .14-.36c.02-.13.03-.33.03-.6v-.76c0-.21-.01-.38-.03-.48Zm-.52 1.73c0 .17-.12.3-.27.3-.16 0-.28-.13-.28-.3v-1.58c0-.17.12-.3.28-.3.15 0 .27.13.27.3v1.58Zm-2.48.8h.65v-2.28l.78-1.95h-.72l-.41 1.45-.42-1.46h-.71l.82 1.96v2.28Z"/>
</svg>
