<svg xmlns="http://www.w3.org/2000/svg" fill="none" viewBox="0 0 148 48"><path fill="#4B617C" fill-rule="evenodd" d="M6.58 47.8H4.63L3 45.4h-.17v2.39H1.15v-6.3h2.08c1.92 0 2.59.83 2.59 1.97 0 .9-.53 1.46-1.2 1.7l1.96 2.63Zm-3.29-5.02h-.46v1.5h.47c.46 0 .8-.25.8-.73 0-.47-.3-.77-.8-.77Zm24.36-1.28v3.81c0 1.98 1.05 2.69 2.51 2.69 1.51 0 2.5-.8 2.5-2.7v-3.8h-1.67v3.9c0 .66-.16 1.2-.84 1.2-.51 0-.82-.38-.82-1.2v-3.9h-1.68Zm30.6 3.4c-.1-.4-.16-.89-.19-1.34h-.03v.03c-.05.45-.1.9-.18 1.28l-.58 2.93h-1.83l-1.56-6.3h1.64l.66 3.05.18 1 .02.16h.04c.04-.31.12-.68.2-1l.04-.25.62-2.96h1.57l.7 3.03c.1.38.14.62.17.87l.05.31h.04c.05-.4.1-.76.19-1.17l.6-3.04h1.6l-1.51 6.3h-1.8l-.65-2.9Zm26.86-3.4h1.6l2.25 6.3h-1.7l-.4-1.27h-2.1l-.4 1.27h-1.67l2.42-6.3Zm.01 3.93h1.37l-.44-1.35c-.1-.3-.14-.45-.19-.66l-.02-.1h-.05l-.04.14c-.05.2-.1.38-.19.63l-.44 1.34Zm28.46 2.37h1.95l-1.95-2.63c.67-.24 1.2-.8 1.2-1.7 0-1.14-.67-1.97-2.59-1.97h-2.08v6.3h1.68V45.4h.16l1.63 2.39Zm-1.8-5.02h.47c.51 0 .8.3.8.77 0 .48-.33.74-.8.74h-.46v-1.5Zm27.05-1.28c2.32 0 3.55 1.43 3.55 3.15 0 1.7-1.31 3.15-3.56 3.15h-2.25v-6.3h2.26Zm-.09 4.86c1.35 0 1.93-.78 1.93-1.71 0-1-.62-1.71-1.93-1.71h-.49v3.42h.5Z" clip-rule="evenodd"/><path fill="url(#a)" fill-rule="evenodd" d="m76 .36 13.56 34.88h-8.64l-2.41-6.12h-6.6l-2.41-6.2h6.6L67.35.35H76Zm-54.07 0 9.29 23.83L40.32.72l-.1-.36h8.84l-.1.36 9.1 23.47 5.02-12.78 4.28 11.05-4.93 12.78H53.8l-9.1-23.47-9.2 23.47h-8.55L13.3.36h8.64ZM13.38 22.9l.1-.09L9.2 11.77 0 35.24h8.64l2.42-6.12h9.84l-2.32-6.2h-5.2Z" clip-rule="evenodd"/><path fill="#000" fill-rule="evenodd" d="M107.08 19.01c2.35-1.66 3.97-4.35 3.97-8.08 0-6.31-3.7-10.93-14.36-10.93H85.11v.1L87.9 7.3h.02l6.53-.16H97c2.87 0 4.48 1.64 4.48 4.26 0 1.71-.77 2.91-2 3.56-.69.36-1.51.54-2.43.54h-5.97l3.36 8.63L98.68 35h8.6l-5.38-13.85c2.2-.5 4.04-1.22 5.13-2.05a.15.15 0 0 0 .05-.08ZM128.32 0h-12.58v.41l2.98 7.65h6.37V8h2.71c7.26 0 10.7 3.9 10.7 9.5 0 5.18-3.18 9.49-10.7 9.49h-1.2v.05h-13.55l3.1 7.95h12.07c12.53 0 19.78-8 19.78-17.5C148 7.96 141.16 0 128.32 0Z" clip-rule="evenodd"/><defs><linearGradient id="a" x1="91.8" x2="2.24" y1="10.4" y2="10.4" gradientUnits="userSpaceOnUse"><stop stop-color="#A5343E"/><stop stop-color="#A5343E"/><stop offset=".36" stop-color="#F26B36"/><stop offset=".65" stop-color="#E1B451"/><stop offset="1" stop-color="#BBCE42"/></linearGradient></defs></svg>
