<svg xmlns="http://www.w3.org/2000/svg" xml:space="preserve" fill-rule="evenodd" clip-rule="evenodd" image-rendering="optimizeQuality" shape-rendering="geometricPrecision" text-rendering="geometricPrecision" viewBox="0 0 10000 1785"><defs/><g id="Слой_x0020_1"><g id="_1020769184"><path d="M3589 503c-60-50-147-74-262-74h-310v574h310c115 0 202-25 262-75s89-121 89-212c0-93-29-164-89-213zm96 1263-318-459h-350v459h-382V118h714c146 0 272 24 380 73 108 48 190 118 248 207 59 90 88 196 88 318s-30 228-89 317-142 156-251 204l370 529h-410zM4715 829c-57 47-91 112-104 193h624c-12-80-47-144-103-192-57-48-126-72-208-72-83 0-153 24-209 71zm859 408h-958c17 78 58 140 122 186 65 45 145 68 240 68 66 0 125-10 176-30 51-19 98-50 142-93l196 212c-119 137-294 205-523 205-143 0-269-28-379-83-110-56-195-133-255-232-59-99-89-211-89-337 0-124 29-236 88-336 59-99 140-177 243-233s218-84 345-84c124 0 236 27 337 81 100 53 179 130 236 229 58 100 86 216 86 348 0 4-2 37-7 99zM6229 528h325v282h-315v956h-368V810h-134l-196-282h330v-57c0-144 43-259 128-344 86-85 207-127 362-127 55 0 107 6 157 18 49 11 90 28 123 50l-96 266c-43-29-92-44-149-44-111 0-167 61-167 183v55zM7096 829c-57 47-91 112-104 193h624c-12-80-47-144-103-192-57-48-126-72-207-72-84 0-154 24-210 71zm860 408h-959c17 78 58 140 122 186 65 45 145 68 241 68 66 0 124-10 175-30 51-19 99-50 143-93l195 212c-119 137-293 205-523 205-143 0-269-28-379-83-110-56-195-133-254-232-60-99-90-211-90-337 0-124 30-236 89-336 58-99 139-177 242-233s218-84 345-84c124 0 236 27 337 81 100 53 179 130 237 229 57 100 86 216 86 348 0 4-3 37-7 99zM8736 528c75-32 161-48 258-48v340c-41-3-68-5-82-5-105 0-188 29-247 88-60 59-90 147-90 265v598h-367V499h351v168c43-62 103-108 177-139zM9742 528c75-32 161-48 258-48v340c-41-3-68-5-82-5-106 0-188 29-248 88-59 59-89 147-89 265v598h-368V499h351v168c44-62 103-108 178-139z" class="fil0"/><path fill="#008e59" fill-rule="nonzero" d="M1270 872H954l-277 191 93-564h562l-62 373zm573-754H0l232 324L12 1782h547l118-719 515 719h614l-378-528h269c33 0 62-24 67-57l53-325 108-657c9-51-30-97-82-97z"/></g></g></svg>
