<svg xmlns="http://www.w3.org/2000/svg" viewBox="0 0 176.34 190.5"><path fill="#e32d35" d="M92.95 0h-35.5c-8.2 0-16.3 6.8-18.1 15l-8.3 36.5a1.8 1.8 0 0 0 1.8 2.2h48.9a1.92 1.92 0 0 0 1.8-1.4l11.3-50A2.05 2.05 0 0 0 93.07.01L92.95 0Zm-18.8 83.4h-48.8a1.92 1.92 0 0 0-1.8 1.4L.05 188.3a1.6 1.6 0 0 0 .4 1.5 1.91 1.91 0 0 0 1.4.7h32.9c9.5 0 19.3-7.8 21.4-17.4l19.8-87.6a1.76 1.76 0 0 0-1.8-2.1Zm83.8 0-48.9-.1a1.92 1.92 0 0 0-1.8 1.4l-11.5 50a1.6 1.6 0 0 0 .4 1.5 1.91 1.91 0 0 0 1.4.7l35-.1c8.2 0 16.8-6.6 18.7-14.8l8.4-36.6a1.6 1.6 0 0 0-.4-1.5 1.9 1.9 0 0 0-1.3-.5Zm6.7-83.4h-36.6a1.92 1.92 0 0 0-1.8 1.4l-11.7 50.1a1.67 1.67 0 0 0 .4 1.5 1.75 1.75 0 0 0 1.4.7h49.1a1.92 1.92 0 0 0 1.8-1.4l8.7-37.4c1.9-8.1-3.2-14.9-11.3-14.9Z"/></svg>
