<svg xmlns="http://www.w3.org/2000/svg" viewBox="0 0 923 190.5"><path fill="#fff" d="M309.7 3.5c-.8-1.3-2.7-2-5.9-2h-54c-3.3 0-5.5.7-6.5 2a13 13 0 0 0-2 5.9l-10.4 72.7c-.2 1.7.6 2.5 2.4 2.5h16.4a3.5 3.5 0 0 0 2.3-.5 5 5 0 0 0 .7-2l8.7-61.3H287l-8.7 61.3c-.2 1.7.6 2.5 2.5 2.5H297c1.3 0 2.2-.2 2.4-.5a5 5 0 0 0 .7-2l10.3-72.7c.2-2.6.1-4.6-.7-5.9ZM370 22.3h-15.3a4.2 4.2 0 0 0-2.5.5 3.1 3.1 0 0 0-.7 1.9l-6 43.7a31.8 31.8 0 0 1-3.5.4l-2.9.1a12.8 12.8 0 0 1-4.9-.8 5.6 5.6 0 0 1-2.7-2.3 7 7 0 0 1-.8-3.7 35.9 35.9 0 0 1 .4-5.3l4.5-32.1q.3-2.4-2.4-2.4h-15.5a3.8 3.8 0 0 0-2.4.5 3.1 3.1 0 0 0-.7 1.9l-4 30.1a46 46 0 0 0-.4 14.7 17.3 17.3 0 0 0 13.8 15 57.5 57.5 0 0 0 15 1.6l4.5-.1a1856.5 1856.5 0 0 1 10.6-.8l3.6-.5c2.8-.6 4.6-1.7 5.6-3.3a15.6 15.6 0 0 0 2-6.1l7.1-50.6c.1-1.6-.6-2.4-2.4-2.4Zm55.7 36a8.7 8.7 0 0 0-1.4-3.1 9.9 9.9 0 0 0-2.5-2.5 11.8 11.8 0 0 0-4.2-1.7l.1-.4a14.2 14.2 0 0 0 6.3-4.3 20 20 0 0 0 3.7-6.5l6.5-15.5a1.9 1.9 0 0 0 .1-1.3 1 1 0 0 0-1.2-.7h-17a3.6 3.6 0 0 0-1.2.2 2.4 2.4 0 0 0-1 1.3l-5.3 12q-2 4.8-4.5 6.3a9.5 9.5 0 0 1-5.2 1.5h-3l2.6-19.4c.2-.9.1-1.4-.2-1.6a3.4 3.4 0 0 0-1.7-.3H380a3.3 3.3 0 0 0-1.5.3 2.2 2.2 0 0 0-.8 1.6l-8.2 58.4c-.2.9 0 1.4.3 1.6a3 3 0 0 0 1.5.3H388a3.7 3.7 0 0 0 1.7-.3 2.2 2.2 0 0 0 .7-1.6l3.2-22.8h4.7a11.3 11.3 0 0 1 5.6 1.2c1.4.8 2.3 2.4 2.7 4.7l2.7 17.3a1.6 1.6 0 0 0 1.7 1.4h16.8c1 0 1.4-.3 1.5-.8a7.8 7.8 0 0 0 .2-1.4l-3.3-20.5a8.3 8.3 0 0 0-.4-3.4Zm54.4 7.2c-.2-1.1-.5-1.7-1-1.7a6.8 6.8 0 0 0-2 .4 51.2 51.2 0 0 1-6.3 1.5 32.3 32.3 0 0 1-6.9.7c-3.5 0-5.8-.8-7-2.5s-1.8-4.1-1.8-7.2c0-5.2 1-9.3 2.8-12.4 2-3 5-4.6 9.1-4.6a25.5 25.5 0 0 1 4.4.4l6 1 2.8.5c.7.1 1.3-.5 1.7-1.7l3.8-12a4 4 0 0 0 .3-2.5 2.8 2.8 0 0 0-1.6-1.3 45.8 45.8 0 0 0-8.8-2.7 48.9 48.9 0 0 0-9.9-1 37.3 37.3 0 0 0-13.2 2.3 26.8 26.8 0 0 0-10.3 6.9 31.5 31.5 0 0 0-6.6 12 57.4 57.4 0 0 0-2.4 17.7c0 17.6 8.5 26.4 25.6 26.4l5.3-.2c2-.2 4-.4 6-.8a46.6 46.6 0 0 0 6.2-1.5 31.3 31.3 0 0 0 6-2.4c1.3-.6 2-1.2 2-1.7L484 77Zm26.7-5.6 4.7.4 4.5.1q14 0 21.3-5.4c5-3.6 7.4-8.9 7.4-15.9a17.2 17.2 0 0 0-2-8.9 15.3 15.3 0 0 0-5.7-5.7 24.3 24.3 0 0 0-8-3 50.4 50.4 0 0 0-9.7-.9c-10.9 0-19.4 3.5-25.4 10.5s-9 17.2-9 30.5A36 36 0 0 0 486 72a18.4 18.4 0 0 0 4.3 7.6 19 19 0 0 0 7.8 4.7 37.2 37.2 0 0 0 12 1.6l5.7-.3a58.8 58.8 0 0 0 6.8-1 65.5 65.5 0 0 0 6.7-1.8 26.3 26.3 0 0 0 5.6-2.5 5.8 5.8 0 0 0 1.4-1.2 1.8 1.8 0 0 0 .1-1.8L532 66.2a2 2 0 0 0-.9-1.2c-.4-.2-1 0-2.2.4a61.1 61.1 0 0 1-6.6 1.8 28.8 28.8 0 0 1-5.9.7l-4-.2a8.2 8.2 0 0 1-3-.8 4.6 4.6 0 0 1-2-1.9 6.9 6.9 0 0 1-.7-3.4 2 2 0 0 1 .1-.8v-.9Zm5.3-20.1a8.7 8.7 0 0 1 6.1-2.3c2 0 3.3.4 4 1.2a4.3 4.3 0 0 1 1.1 2.8 4.7 4.7 0 0 1-2.4 4.3q-2.4 1.5-9.3 1.5h-1.5a7 7 0 0 1-1.4-.1c.7-3.4 1.8-5.8 3.4-7.4Zm93.5-15.6c-.8-1.2-2.7-1.8-5.8-1.8h-34.2c-3.2 0-5.3.6-6.5 1.7-1 1.1-1.9 3-2.3 5.8l-2 13.5q-1.3 7.3-2.5 12a33 33 0 0 1-2.8 7.6 14.4 14.4 0 0 1-4 4.7 28.5 28.5 0 0 1-5.8 3.3 3.6 3.6 0 0 0-2 1.8 6.2 6.2 0 0 0 .3 2.5l3.7 10.6a3.2 3.2 0 0 0 1.1 1.9c.5.4 1.4.4 2.6 0a47 47 0 0 0 12.7-6 27.2 27.2 0 0 0 7.8-8.7 46.4 46.4 0 0 0 4.6-12.3q1.7-7.2 3.3-17.1l.7-4.4h9.6L578.2 82a3.2 3.2 0 0 0 .1 2c.2.4 1 .7 2.1.7H596a3.9 3.9 0 0 0 2.3-.5 3.5 3.5 0 0 0 .7-2l7.4-51.9c.3-2.9.1-4.9-.7-6.1Zm53.6 19.6a17.4 17.4 0 0 0-7-4.3 35.7 35.7 0 0 0-11.3-1.5 55.4 55.4 0 0 0-9.6.9l2-14.2a2.7 2.7 0 0 0 0-1.9c-.3-.3-1-.5-2.5-.5h-15.3a2.7 2.7 0 0 0-3 2.4l-7.2 51.7a5.3 5.3 0 0 0 0 2.5 3.6 3.6 0 0 0 2 2 40 40 0 0 0 12 3.9 81.9 81.9 0 0 0 13.8 1.1 38 38 0 0 0 15.4-2.7 26.7 26.7 0 0 0 9.5-6.8 23.7 23.7 0 0 0 5-8.9 33.6 33.6 0 0 0 1.3-9.1 29.2 29.2 0 0 0-1-8 18.6 18.6 0 0 0-4-6.6Zm-17.5 18.7a7.6 7.6 0 0 1-1.5 2.6 8.8 8.8 0 0 1-2.8 2 10.5 10.5 0 0 1-4.2.8 22.8 22.8 0 0 1-2.4-.1 23.8 23.8 0 0 1-3.4-.4l1.8-11.1a40 40 0 0 1 4-1.2 19.8 19.8 0 0 1 3.6-.4c3.6 0 5.5 1.7 5.5 5a14 14 0 0 1-.6 2.8Zm115-44.8 1.8-13.3c.2-1.3.1-2.2-.2-2.4a2.8 2.8 0 0 0-1.9-.4h-60.6a3.2 3.2 0 0 0-1.9.4 3.5 3.5 0 0 0-.8 2.4l-1.9 13.3c-.3 1.8.4 2.7 2 2.7h19.2L703.6 82c-.2 1.7.6 2.5 2.4 2.5h16.4a3.5 3.5 0 0 0 2.3-.5 5 5 0 0 0 .7-2l8.8-61.6H754c1.4 0 2.4-.9 2.7-2.7Zm58 4.7h-18.5c-1.6 0-2.6.2-3 .7a8.2 8.2 0 0 0-1.7 2.5l-7.5 19-8 20.2h-.7l-2-19.7-2-19.9c-.3-1.3-.6-2-1-2.3a7.3 7.3 0 0 0-3.2-.4h-16.3a3.5 3.5 0 0 0-1.8.5c-.5.4-.6 1.1-.3 2.2l10.5 50.6a9.8 9.8 0 0 0 1.5 4.1c.6.8 2 1.2 4 1.2h3.6l-2.5 5.2a27.5 27.5 0 0 1-2 3.6 6.4 6.4 0 0 1-2 2 5 5 0 0 1-2.4.9 16.7 16.7 0 0 1-3.4.2 19.3 19.3 0 0 1-2.4-.1l-3-.4a10.8 10.8 0 0 0-2.2-.2c-.4 0-.8.6-1 1.7l-2.7 11.4a4.6 4.6 0 0 0 0 2.3 2.5 2.5 0 0 0 1.7.9 71.7 71.7 0 0 0 7.3 1.4 50.3 50.3 0 0 0 6.5.4 26.6 26.6 0 0 0 8-1.1 18.8 18.8 0 0 0 6-3 21 21 0 0 0 4.6-4.8 42.9 42.9 0 0 0 3.6-6.4L816 24.6c.6-1.4.3-2.2-1.4-2.2Zm55.1 1.8c-.8-1.2-2.7-1.8-5.8-1.8h-34.2c-3.2 0-5.3.6-6.5 1.7-1 1.1-1.9 3-2.3 5.8l-2 13.5q-1.3 7.4-2.5 12a33 33 0 0 1-2.8 7.6 14.4 14.4 0 0 1-4 4.7A28.5 28.5 0 0 1 804 71a3.6 3.6 0 0 0-2 1.8 4.8 4.8 0 0 0 .3 2.5l3.7 10.6a3.2 3.2 0 0 0 1.1 1.9c.5.4 1.4.4 2.6 0a47 47 0 0 0 12.7-6 27.2 27.2 0 0 0 7.8-8.7 46.4 46.4 0 0 0 4.6-12.3q1.7-7.2 3.3-17.1l.7-4.4h9.6L842.4 82a3.2 3.2 0 0 0 .1 2c.2.4 1 .7 2.1.7h15.5a3.9 3.9 0 0 0 2.3-.5 3.5 3.5 0 0 0 .7-2l7.4-51.9c.4-2.9.2-4.9-.7-6.1ZM904 39.8a25.5 25.5 0 0 1 4.4.4l6 1 2.8.5c.7.1 1.3-.5 1.7-1.7l3.8-12a4 4 0 0 0 .3-2.5 2.8 2.8 0 0 0-1.6-1.3 45.8 45.8 0 0 0-8.8-2.7 48.9 48.9 0 0 0-9.9-1 37.3 37.3 0 0 0-13.2 2.3 26.8 26.8 0 0 0-10.3 6.9 31.5 31.5 0 0 0-6.6 12 57.4 57.4 0 0 0-2.4 17.7c0 17.6 8.5 26.4 25.6 26.4l5.3-.2c2-.2 4-.4 6-.8a46.6 46.6 0 0 0 6.2-1.5 31.3 31.3 0 0 0 6-2.4c1.3-.6 2-1.2 2-1.7l-.3-2.1-3.8-11.7c-.2-1.1-.5-1.7-1-1.7a6.8 6.8 0 0 0-2 .4 51.2 51.2 0 0 1-6.3 1.5 32.3 32.3 0 0 1-6.9.7c-3.5 0-5.8-.8-7-2.5s-1.8-4.1-1.8-7.2c0-5.2 1-9.3 2.8-12.4 1.8-2.9 4.8-4.4 9-4.4ZM223 126.9l-2.9 3.9h-.2l1.2-3.6 4.7-22.2H222l-7 32.7h2.4L237 116l2.8-3.9h.2l-1 3.8-4.7 21.8h3.8l7-32.7h-2.5Zm38.6-2.8h-10l2-9.7H250l-5 23.3h3.5l2.2-10.3h10.1l-2.2 10.3h3.5l5-23.3h-3.5Zm21.5-10.3a10.3 10.3 0 0 0-4.8 1.2 11 11 0 0 0-4 3.4 16.7 16.7 0 0 0-2.9 5.3 22.5 22.5 0 0 0-1 7.1 8 8 0 0 0 .3 2.5 6 6 0 0 0 1.2 2.4 6 6 0 0 0 2.3 1.8 8.3 8.3 0 0 0 3.8.7 8.8 8.8 0 0 0 1.7-.2 7 7 0 0 0 2-.6 9.8 9.8 0 0 0 1.7-.8 8.2 8.2 0 0 0 1.7-1.1l-.9-2.3a14.2 14.2 0 0 1-2.5 1.3 6.3 6.3 0 0 1-2.9.6 4 4 0 0 1-3.4-1.5 6.9 6.9 0 0 1-1.3-4.5 19.1 19.1 0 0 1 .7-4.7 21 21 0 0 1 1.8-4 9 9 0 0 1 2.7-2.8 5.3 5.3 0 0 1 3.1-1.1 10 10 0 0 1 2.5.3 6.9 6.9 0 0 1 2 .7l1.2-2.9a6.5 6.5 0 0 0-2-.7l-3-.1Zm34 0a6.4 6.4 0 0 0-2.5.5 9.7 9.7 0 0 0-2.3 1.1 15.6 15.6 0 0 0-2 1.6l-1.7 1.7a9 9 0 0 0-.7-3.7 3.2 3.2 0 0 0-2.8-1.3 8.7 8.7 0 0 0-2.8.5 8.2 8.2 0 0 0-2.3 1.1 9.7 9.7 0 0 0-1.9 1.5c-.6.6-1 1.1-1.7 1.6h-.2l.3-4H294l-5 23.3h3.5l3.1-15a6.8 6.8 0 0 1 1.3-1.8l1.8-1.9 2.1-1.6a4.6 4.6 0 0 1 2.3-.6 2 2 0 0 1 1.6.6 3.6 3.6 0 0 1 .5 1.9 19.9 19.9 0 0 1-.2 2.2 21.5 21.5 0 0 1-.6 2.9l-2.8 13.2h3.5l3-14.7a9.6 9.6 0 0 1 1.3-2l1.8-2a16.6 16.6 0 0 1 2.1-1.6 3.6 3.6 0 0 1 2.1-.6 2 2 0 0 1 1.7.6 2.9 2.9 0 0 1 .6 1.9 11 11 0 0 1-.2 1.8c0 .7-.3 1.6-.5 2.4l-2.9 14h3.5l3-14a23.3 23.3 0 0 0 .6-5.1 5.1 5.1 0 0 0-1-3.7 5.8 5.8 0 0 0-3.2-.8Zm28.1 3.7a5.7 5.7 0 0 0-1.2-2.2 4.8 4.8 0 0 0-1.7-1.2 5 5 0 0 0-2-.4 6.9 6.9 0 0 0-2.6.4 10.2 10.2 0 0 0-2 1 13 13 0 0 0-1.9 1.5l-1.5 1.7h-.2l.3-4H330l-7 32.7h3.5l2-9.7a3.6 3.6 0 0 0 1.7.6 11.4 11.4 0 0 0 2.8.3 9.5 9.5 0 0 0 4.5-1.2 12.7 12.7 0 0 0 4-3.4 16.9 16.9 0 0 0 3-5.5 23.8 23.8 0 0 0 1-7.3 11 11 0 0 0-.3-3.3Zm-4.2 9.4a18.7 18.7 0 0 1-2 4.5 7.7 7.7 0 0 1-3 2.8 7.4 7.4 0 0 1-3.5 1 5.2 5.2 0 0 1-1.8-.3 13 13 0 0 1-1.7-.8l2.3-11a15 15 0 0 1 1.2-2 16.3 16.3 0 0 1 1.7-2 17.3 17.3 0 0 1 2.1-1.7 4.1 4.1 0 0 1 2.4-.6 2.7 2.7 0 0 1 2.3 1.2 5 5 0 0 1 .7 3.1 15.4 15.4 0 0 1-.7 5.8Zm24-12.6-7.7 15.1-1.7 4.5h-.3l-.3-4.5-2.3-15.1H349l4 23.3a19.1 19.1 0 0 1-3 4.7 4 4 0 0 1-2.7 1.4 4.3 4.3 0 0 1-1-.2l-1.2 3.2a3 3 0 0 0 1 .4 5.7 5.7 0 0 0 1.4.1 5 5 0 0 0 2.8-1 12 12 0 0 0 2.6-2.8 33 33 0 0 0 2.5-3.9l2.4-4.5 11-20.8H365v.1h.1Zm18 10.4-2 2.8-.8-2.7-3.9-10.5h-3.2l-5 23.3h3.3l3-13.9.5-4.4h.2l.7 3.6 3.7 9.2h1.2l7.3-9.2 2.4-3.6h.2l-1.2 4.4-2.9 13.9h3.5l5-23.3h-3.9Zm32.1-9.2a5.1 5.1 0 0 0-2-1.2 8.4 8.4 0 0 0-2.9-.5 11 11 0 0 0-4.6 1.1 10.8 10.8 0 0 0-3.9 3.2 15.6 15.6 0 0 0-2.8 5.1 20.8 20.8 0 0 0-1 6.9 8.6 8.6 0 0 0 1.8 6c1.3 1.5 3.1 2.1 5.6 2.1a18.3 18.3 0 0 0 4.5-.7 12.2 12.2 0 0 0 4-2.1l-1.2-2.2a8.4 8.4 0 0 1-2.7 1.4 9.2 9.2 0 0 1-3.8.6 4.4 4.4 0 0 1-3.7-1.7 8 8 0 0 1-1-5.5l.2-1.7 1.3.1h1.2c4.1 0 7.3-.6 9.4-1.9a6 6 0 0 0 3.2-5.2 5 5 0 0 0-.4-2.1 6.6 6.6 0 0 0-1.2-1.7Zm-3 6.5a6.4 6.4 0 0 1-2.6 1.3 12.3 12.3 0 0 1-3.5.5l-3.7.1a12.2 12.2 0 0 1 2.8-5.2 6.3 6.3 0 0 1 4.5-1.7 4.3 4.3 0 0 1 1.7.3 2.9 2.9 0 0 1 1 .6 2.4 2.4 0 0 1 .6.9 3.7 3.7 0 0 1 .2.9 3.3 3.3 0 0 1-1 2.3Zm23 2.1h-10l2-9.7h-3.6l-5 23.3h3.5l2.2-10.3h10.2l-2.2 10.3h3.5l5-23.3h-3.5Zm35.7-10.3a6.4 6.4 0 0 0-2.4.5 9.7 9.7 0 0 0-2.3 1.1 15.6 15.6 0 0 0-2 1.6l-1.7 1.7a9 9 0 0 0-.7-3.7 3.2 3.2 0 0 0-2.8-1.3 8.7 8.7 0 0 0-2.8.5 8.2 8.2 0 0 0-2.3 1.1 9.7 9.7 0 0 0-1.9 1.5c-.6.6-1 1.1-1.7 1.6h-.2l.3-4h-2.5l-4.9 23.4h3.5l3.1-15a6.8 6.8 0 0 1 1.3-1.8l1.8-1.9 2.1-1.6a4.6 4.6 0 0 1 2.3-.6 2 2 0 0 1 1.6.6 3.6 3.6 0 0 1 .5 1.9 19.9 19.9 0 0 1-.2 2.2 21.5 21.5 0 0 1-.6 2.9l-2.8 13.2h3.5l3-14.7a9.6 9.6 0 0 1 1.3-2l1.8-2a16.6 16.6 0 0 1 2.1-1.6 3.6 3.6 0 0 1 2.1-.6 2 2 0 0 1 1.7.6 3.3 3.3 0 0 1 .6 1.9 11 11 0 0 1-.2 1.8c0 .7-.3 1.6-.5 2.4l-2.9 14h3.5l3-14a23.3 23.3 0 0 0 .6-5.1 3.7 3.7 0 0 0-4.3-4.6Zm19 9.2a23.2 23.2 0 0 0-2.4.2 9.3 9.3 0 0 0-2 .5l2.1-9.2H484l-4 18a8 8 0 0 0-.2 1.7 3.7 3.7 0 0 0 1.2 2.9 5.6 5.6 0 0 0 3.8 1.1 12.9 12.9 0 0 0 4-.6 12.3 12.3 0 0 0 3.6-1.9 9.8 9.8 0 0 0 2.6-3.1 10 10 0 0 0 1-4.3 4.9 4.9 0 0 0-1.4-3.6c-.9-1.3-2.6-1.7-4.8-1.7Zm2 8.3a5.5 5.5 0 0 1-1.6 1.9 6.1 6.1 0 0 1-2.2 1.3 7.6 7.6 0 0 1-2.7.5 2.4 2.4 0 0 1-1.7-.6 1.7 1.7 0 0 1-.5-1.4v-.4a1 1 0 0 1 .1-.5l1.2-5.6a9.4 9.4 0 0 1 3.7-.7 4.4 4.4 0 0 1 3.1.8 2.9 2.9 0 0 1 .8 2.2 3 3 0 0 1-.3 2.5Zm6 6.4h3.4l5-23.3h-3.5Zm43.6-20.1a19.6 19.6 0 0 0-.6-5 9.8 9.8 0 0 0-2-4.1 9.6 9.6 0 0 0-3.7-2.8 15.7 15.7 0 0 0-5.7-1l-.6 3a9.1 9.1 0 0 1 6.4 2.1 7.6 7.6 0 0 1 2.6 5.6h-.3a3.9 3.9 0 0 0-1.6-.7 8.5 8.5 0 0 0-2.5-.3 10.6 10.6 0 0 0-5 1.3 11.5 11.5 0 0 0-3.8 3.5 18.6 18.6 0 0 0-2.4 4.9 18.3 18.3 0 0 0-.8 5.7 10.6 10.6 0 0 0 1.7 6.4c1.2 1.6 3 2.3 5.6 2.3a9.6 9.6 0 0 0 5-1.4 12.5 12.5 0 0 0 3.8-4 23.1 23.1 0 0 0 2.7-6.5 33.2 33.2 0 0 0 1.2-9Zm-4.2 6.7a18 18 0 0 1-1.5 5.3 9.6 9.6 0 0 1-2.6 4 5.4 5.4 0 0 1-3.9 1.7 3.3 3.3 0 0 1-3-1.6 7.5 7.5 0 0 1-.9-3.9 20.4 20.4 0 0 1 .6-5.1 16.6 16.6 0 0 1 1.7-4 9 9 0 0 1 2.5-2.6 5.2 5.2 0 0 1 3-.9 7.2 7.2 0 0 1 2.6.5 4.7 4.7 0 0 1 1.8 1.4 34 34 0 0 1-.3 5.2Zm46-10.1a57 57 0 0 1-1.8-.3 11.5 11.5 0 0 0-1.8-.1 14.7 14.7 0 0 0-4.2.6 12.8 12.8 0 0 0-3.5 1.8 9.4 9.4 0 0 0-2.4 2.8 8 8 0 0 0-.9 3.9 4.8 4.8 0 0 0 1.3 3.5 5.8 5.8 0 0 0 3.1 1.6l-2.3 1.7-6.8 8h4.5l7.5-9.1 3.6-.6-2 9.6h3.5l4.8-22.8-1-.4a10 10 0 0 1-1.7-.2Zm-3.2 11.6-1.5.1h-1.4c-3.2 0-4.9-1.1-4.9-3.4a5.3 5.3 0 0 1 1.7-4.1 7 7 0 0 1 4.6-1.6 9.8 9.8 0 0 1 2.1.2 1.5 1.5 0 0 1 1 .5Zm40.7-10.9a5.8 5.8 0 0 0-3.7-1.1 8.8 8.8 0 0 0-2.9.5 10.4 10.4 0 0 0-2.4 1.1 14 14 0 0 0-1.9 1.5l-1.5 1.6.1-4H606l-5 23.3h3.5l3.1-15a19.1 19.1 0 0 1 1.4-2.1 16.6 16.6 0 0 1 1.8-1.9 8.3 8.3 0 0 1 2.2-1.4 5 5 0 0 1 2.4-.6 3.1 3.1 0 0 1 2.4.8 3.2 3.2 0 0 1 .6 2.2 8.9 8.9 0 0 1-.2 1.5 10.5 10.5 0 0 1-.4 1.7l-3 14.8h3.4l3.3-15.5a15.5 15.5 0 0 0 .5-3.4c.1-1.9-.4-3.3-1.3-4Zm24.3.5a4.8 4.8 0 0 0-1.7-1.2 5 5 0 0 0-2-.4 6.9 6.9 0 0 0-2.6.4 13.6 13.6 0 0 0-2 1 13 13 0 0 0-1.9 1.5l-1.5 1.7h-.2l.3-4H631l-7 32.7h3.5l2-9.7a3.6 3.6 0 0 0 1.7.6 11.4 11.4 0 0 0 2.8.3 9.5 9.5 0 0 0 4.5-1.2 12.7 12.7 0 0 0 4-3.4 16.9 16.9 0 0 0 3-5.5 23.8 23.8 0 0 0 1-7.3 10.4 10.4 0 0 0-.5-3.3 3.3 3.3 0 0 0-1-2.2Zm-2.8 11.5a18.7 18.7 0 0 1-2 4.5 7.7 7.7 0 0 1-3 2.8 7.4 7.4 0 0 1-3.5 1 5.2 5.2 0 0 1-1.8-.3 13 13 0 0 1-1.7-.8l2.3-11a15 15 0 0 1 1.2-2 16.3 16.3 0 0 1 1.7-2 17.3 17.3 0 0 1 2.1-1.7 4.1 4.1 0 0 1 2.4-.6 2.7 2.7 0 0 1 2.3 1.2 5 5 0 0 1 .7 3.1 25.6 25.6 0 0 1-.7 5.8Zm25.7-10.7a6.2 6.2 0 0 0-2.2-1.7 6.7 6.7 0 0 0-3.3-.6 10 10 0 0 0-4.8 1.2 11.4 11.4 0 0 0-3.9 3.4 19.6 19.6 0 0 0-2.7 5.2 20.5 20.5 0 0 0-.9 6.7 8.6 8.6 0 0 0 .4 2.8 8.5 8.5 0 0 0 1.3 2.5 6.8 6.8 0 0 0 2.3 1.8 7.3 7.3 0 0 0 3.5.6 9.8 9.8 0 0 0 4.7-1.3 11.5 11.5 0 0 0 3.8-3.5 16.7 16.7 0 0 0 2.5-5.2 22.7 22.7 0 0 0 1-6.5 9.2 9.2 0 0 0-.5-2.9 4 4 0 0 0-1.2-2.5Zm-2.7 10.7a20.4 20.4 0 0 1-1.7 4.2 8.9 8.9 0 0 1-2.4 2.9 4.8 4.8 0 0 1-2.9 1.1 3.7 3.7 0 0 1-3.3-1.5 8.1 8.1 0 0 1-1-4.2 20 20 0 0 1 .6-4.9 16.6 16.6 0 0 1 1.7-4 9.8 9.8 0 0 1 2.5-2.8 4.6 4.6 0 0 1 3-1c1.6 0 2.7.5 3.2 1.4a8 8 0 0 1 .8 3.8 16 16 0 0 1-.5 5Zm29-12.9a4.9 4.9 0 0 0-1.2.1 8.9 8.9 0 0 0-1.5.2l2-9.2H690l-1.9 9.2a11.7 11.7 0 0 0-7 .9 10.7 10.7 0 0 0-4.2 3.3 16.7 16.7 0 0 0-2.8 5.3 25.3 25.3 0 0 0-1 7.1 7.6 7.6 0 0 0 2 5.4c1.2 1.4 3.1 2.1 5.7 2.1a4.5 4.5 0 0 0 1.2-.1l1.2-.3-1.9 9.2h3.4l2-9.1a6.8 6.8 0 0 0 1.1.3 6.2 6.2 0 0 0 1.2.1 12.7 12.7 0 0 0 4.6-1 10.2 10.2 0 0 0 4.1-3.1 15.3 15.3 0 0 0 3-5.2 24.4 24.4 0 0 0 1-7.6 7.3 7.3 0 0 0-1.9-5.3 7 7 0 0 0-5.6-2.3Zm-10.5 21-1.2.2a5 5 0 0 1-4.6-1.4 6.1 6.1 0 0 1-1.2-3.8 18.2 18.2 0 0 1 .8-5.5 13.1 13.1 0 0 1 2.1-4.1 9.9 9.9 0 0 1 2.8-2.6 5.5 5.5 0 0 1 3-.8 3.4 3.4 0 0 1 1 .1l1 .2Zm13.3-7.3a16.4 16.4 0 0 1-2 4.2 9.4 9.4 0 0 1-2.9 2.5 6.2 6.2 0 0 1-3 .8 3.4 3.4 0 0 1-1-.1 2.4 2.4 0 0 1-1-.2l3.8-17.8a6.5 6.5 0 0 1 1.1-.2 3 3 0 0 1 1-.1c3.4 0 5 1.6 5 4.7a21.1 21.1 0 0 1-1 6.2Zm25.6-12.2a5.1 5.1 0 0 0-2-1.2 8.4 8.4 0 0 0-2.9-.5 11 11 0 0 0-4.6 1.1 10.8 10.8 0 0 0-3.9 3.2 15.6 15.6 0 0 0-2.8 5.1 20.8 20.8 0 0 0-1 6.9 8.6 8.6 0 0 0 1.8 6c1.3 1.5 3.1 2.1 5.6 2.1a18.3 18.3 0 0 0 4.5-.7 12.2 12.2 0 0 0 4-2.1l-1.2-2.2a8.4 8.4 0 0 1-2.7 1.4 9.2 9.2 0 0 1-3.8.6 4.4 4.4 0 0 1-3.7-1.7 8 8 0 0 1-1-5.5l.2-1.7 1.3.1h1.2c4.1 0 7.3-.6 9.4-1.9a6 6 0 0 0 3.2-5.2 5 5 0 0 0-.4-2.1 6.6 6.6 0 0 0-1.2-1.7Zm-3.2 6.5a6.4 6.4 0 0 1-2.6 1.3 12.3 12.3 0 0 1-3.5.5l-3.7.1a12.2 12.2 0 0 1 2.8-5.2 6.3 6.3 0 0 1 4.5-1.7 4.3 4.3 0 0 1 1.7.3 2.9 2.9 0 0 1 1 .6 2.4 2.4 0 0 1 .6.9 3.7 3.7 0 0 1 .2.9 2.4 2.4 0 0 1-1 2.3Zm20.3-8.2a10.3 10.3 0 0 0-4.8 1.2 11 11 0 0 0-4 3.4 16.7 16.7 0 0 0-2.9 5.3 22.5 22.5 0 0 0-1 7.1 8 8 0 0 0 .3 2.5 6 6 0 0 0 1.2 2.4 6 6 0 0 0 2.3 1.8 8.3 8.3 0 0 0 3.8.7 8.8 8.8 0 0 0 1.7-.2 7 7 0 0 0 2-.6 9.8 9.8 0 0 0 1.7-.8 8.2 8.2 0 0 0 1.7-1.1l-.9-2.3a14.2 14.2 0 0 1-2.5 1.3 6.3 6.3 0 0 1-2.9.6 4 4 0 0 1-3.4-1.5 6.9 6.9 0 0 1-1.3-4.5 19.1 19.1 0 0 1 .7-4.7 21 21 0 0 1 1.8-4 9 9 0 0 1 2.7-2.8 5.3 5.3 0 0 1 3.1-1.1 10 10 0 0 1 2.5.3 6.9 6.9 0 0 1 2 .7l1.2-2.9a6.5 6.5 0 0 0-2-.7l-3-.1Zm18.2 0a10.3 10.3 0 0 0-4.8 1.2 11 11 0 0 0-4 3.4 16.7 16.7 0 0 0-2.9 5.3 22.5 22.5 0 0 0-1 7.1 8 8 0 0 0 .3 2.5 6 6 0 0 0 1.2 2.4 6 6 0 0 0 2.3 1.8 8.3 8.3 0 0 0 3.8.7 8.8 8.8 0 0 0 1.7-.2 7 7 0 0 0 2-.6 9.8 9.8 0 0 0 1.7-.8 8.2 8.2 0 0 0 1.7-1.1l-.9-2.3a14.2 14.2 0 0 1-2.5 1.3 6.3 6.3 0 0 1-2.9.6 4 4 0 0 1-3.4-1.5 6.9 6.9 0 0 1-1.3-4.5 19.1 19.1 0 0 1 .7-4.7 21 21 0 0 1 1.8-4 9 9 0 0 1 2.7-2.8 5.3 5.3 0 0 1 3.1-1.1 10 10 0 0 1 2.5.3 6.9 6.9 0 0 1 2 .7l1.2-2.9a6.5 6.5 0 0 0-2-.7l-3-.1Zm21 15.4a12 12 0 0 1-1.5 2.1 11.4 11.4 0 0 1-1.9 1.9 14.3 14.3 0 0 1-2.2 1.5 5 5 0 0 1-2.3.6 1.8 1.8 0 0 1-1.8-.8 3.8 3.8 0 0 1-.6-2.2 9.7 9.7 0 0 1 .3-2.3l3.3-15.5h-3.5l-3.2 15.1a18 18 0 0 0-.5 3.7 5.6 5.6 0 0 0 1.4 4.1 4 4 0 0 0 1.6.8 5.8 5.8 0 0 0 2 .3 8.6 8.6 0 0 0 2.6-.5 8.8 8.8 0 0 0 2.4-1.1 15.6 15.6 0 0 0 2-1.6l1.7-1.8h.2v4.4h2.8v-.6a16.2 16.2 0 0 1 .1-2.1l.3-2.5a17.2 17.2 0 0 1 .4-2.4l.4-1.9 3-13.9h-3.6Zm27.4-13a6.2 6.2 0 0 0-2.2-1.7 8.1 8.1 0 0 0-3.3-.6 10 10 0 0 0-4.8 1.2 11.4 11.4 0 0 0-3.9 3.4 19.6 19.6 0 0 0-2.7 5.2 23.6 23.6 0 0 0-.9 6.7 8.6 8.6 0 0 0 .4 2.8 8.5 8.5 0 0 0 1.3 2.5 6.8 6.8 0 0 0 2.3 1.8 7.3 7.3 0 0 0 3.5.6 9.8 9.8 0 0 0 4.7-1.3 11.5 11.5 0 0 0 3.8-3.5 16.7 16.7 0 0 0 2.5-5.2 22.7 22.7 0 0 0 1-6.5 9.2 9.2 0 0 0-.5-2.9 5.3 5.3 0 0 0-1.2-2.5Zm-2.8 10.7a20.4 20.4 0 0 1-1.7 4.2 8.9 8.9 0 0 1-2.4 2.9 4.8 4.8 0 0 1-2.9 1.1 3.7 3.7 0 0 1-3.3-1.5 8.1 8.1 0 0 1-1-4.2 20 20 0 0 1 .6-4.9 16.6 16.6 0 0 1 1.7-4 9.8 9.8 0 0 1 2.5-2.8 4.6 4.6 0 0 1 3-1c1.6 0 2.7.5 3.2 1.4a8 8 0 0 1 .8 3.8 13.5 13.5 0 0 1-.5 5Zm24-2.8h-10l2-9.7h-3.6l-5 23.3h3.5l2.2-10.3h10.1l-2.2 10.3h3.5l5-23.3h-3.5Zm25-10a21.1 21.1 0 0 0-3.3-.3 11.8 11.8 0 0 0-6 1.6 14.2 14.2 0 0 0-4.2 4 19.5 19.5 0 0 0-2.4 5.5 20.8 20.8 0 0 0-.7 6.1c0 4.9 1.8 7.3 5.6 7.3a6.4 6.4 0 0 0 2.4-.4 13.6 13.6 0 0 0 2.1-1 13 13 0 0 0 1.8-1.5 21 21 0 0 0 1.4-1.7h.2l.6 4h2.6a4.1 4.1 0 0 1 0-1.1v-1.3l.1-3.3a19.7 19.7 0 0 1 .6-3.5l3-13.6a28.7 28.7 0 0 0-3.9-.8Zm-3.2 15.8a8.2 8.2 0 0 1-1 1.7 9.1 9.1 0 0 1-1.8 1.7 7.2 7.2 0 0 1-1.9 1.3 4 4 0 0 1-2 .6 2.4 2.4 0 0 1-2.3-1.2 5.6 5.6 0 0 1-.7-3 22.2 22.2 0 0 1 .6-5.1 16.8 16.8 0 0 1 1.7-4.6 9.1 9.1 0 0 1 2.8-3.3 6.5 6.5 0 0 1 3.8-1.3 9.3 9.3 0 0 1 3.6.6Zm50.1-13.7a6.2 6.2 0 0 0-2.2-1.7 6.7 6.7 0 0 0-3.3-.6 10 10 0 0 0-4.8 1.2 11.4 11.4 0 0 0-3.9 3.4 19.6 19.6 0 0 0-2.7 5.2 23.6 23.6 0 0 0-.9 6.7 8.6 8.6 0 0 0 .4 2.8 8.5 8.5 0 0 0 1.3 2.5 5.8 5.8 0 0 0 2.3 1.8 7.3 7.3 0 0 0 3.5.6 9.8 9.8 0 0 0 4.7-1.3 11.5 11.5 0 0 0 3.8-3.5 16.7 16.7 0 0 0 2.5-5.2 22.7 22.7 0 0 0 1-6.5 9.2 9.2 0 0 0-.5-2.9 4.5 4.5 0 0 0-1.2-2.5Zm-2.7 10.7a20.4 20.4 0 0 1-1.7 4.2 8.9 8.9 0 0 1-2.4 2.9 4.8 4.8 0 0 1-2.9 1.1 3.7 3.7 0 0 1-3.3-1.5 8.1 8.1 0 0 1-1-4.2 20 20 0 0 1 .6-4.9 16.6 16.6 0 0 1 1.7-4 9.8 9.8 0 0 1 2.5-2.8 4.6 4.6 0 0 1 3-1c1.6 0 2.7.5 3.2 1.4a8 8 0 0 1 .8 3.8 16 16 0 0 1-.5 5Zm20.2-1.5.1-.2a9.4 9.4 0 0 0 4.3-2.6 6.3 6.3 0 0 0 1.7-4.3 4.3 4.3 0 0 0-.3-1.7 3.6 3.6 0 0 0-1-1.4 4.4 4.4 0 0 0-1.8-.9 10.6 10.6 0 0 0-2.9-.4 10 10 0 0 0-7 2.6 14.4 14.4 0 0 0-4 7.8l-.7 2.4c0 .6-.2 1.3-.3 1.7 0 .5 0 .9-.2 1.4v1.3a10.4 10.4 0 0 0 .4 3.3 4.6 4.6 0 0 0 1.4 2.1 4.4 4.4 0 0 0 2 1.1 10.9 10.9 0 0 0 2.6.4 12.3 12.3 0 0 0 4-.6 8.6 8.6 0 0 0 3.2-1.7 8.5 8.5 0 0 0 2.3-2.7 7.6 7.6 0 0 0 .8-3.8 3.5 3.5 0 0 0-1.2-2.8 6.9 6.9 0 0 0-3.4-1Zm-7.5-1.9a12 12 0 0 1 2.4-4.8 5.8 5.8 0 0 1 4.3-1.7 3.6 3.6 0 0 1 2.5.6 2.3 2.3 0 0 1 .6 1.9 3 3 0 0 1-.6 1.9 5.8 5.8 0 0 1-1.7 1.4 7.2 7.2 0 0 1-2 .9 6.8 6.8 0 0 1-1.7.4l-4.2.5Zm8 8.6a7 7 0 0 1-1.3 1.7 5 5 0 0 1-1.9 1 8.5 8.5 0 0 1-2.3.4c-2.5 0-3.8-1.4-3.8-4a9.2 9.2 0 0 1 .1-1.6l.4-2.1 2.5-.2 1.5-.1a3.5 3.5 0 0 0 .7-.1h.4a6.6 6.6 0 0 1 3.4.7 2.6 2.6 0 0 1 1 1.9 8.4 8.4 0 0 1-.7 2.4Zm-54.4-7.3a41.4 41.4 0 0 1-2 6.1 6.5 6.5 0 0 1-2 2.9 3 3 0 0 1-1.9.7 4.3 4.3 0 0 1-1-.2l-1.2 3a3 3 0 0 0 1 .4 7 7 0 0 0 1.5.1 5.2 5.2 0 0 0 3.6-1.4 14 14 0 0 0 2.8-3.9 42 42 0 0 0 2.3-6.4l2.3-8.8h6.2l-4.3 20.4h3.5l5-23.3H866c-1.3 4.3-2 7.7-2.9 10.4Zm-314.8 0a41.4 41.4 0 0 1-2 6.1 6.5 6.5 0 0 1-2 2.9 3 3 0 0 1-1.9.7 4.3 4.3 0 0 1-1-.2l-1.2 3a3 3 0 0 0 1 .4 7 7 0 0 0 1.5.1 5.2 5.2 0 0 0 3.6-1.4 14 14 0 0 0 2.8-3.9 42 42 0 0 0 2.3-6.4l2.3-8.8h6.2l-4.3 20.4h3.5l5-23.3h-12.9c-1.3 4.3-2 7.7-2.9 10.4Z" style="isolation:isolate"/><path fill="#e32d35" d="M93 0H57.3c-8.2 0-16.3 6.8-18 15L31 51.5a1.8 1.8 0 0 0 1.8 2.2h49a2 2 0 0 0 1.7-1.4l11.3-50A2 2 0 0 0 93 0ZM74 83.4H25.3a2 2 0 0 0-1.8 1.4L0 188.3a1.6 1.6 0 0 0 .4 1.5 2 2 0 0 0 1.4.7h33c9.4 0 19.2-7.8 21.3-17.4L76 85.5a1.8 1.8 0 0 0-1.8-2.1Zm83.8 0-48.9-.1a2 2 0 0 0-1.8 1.4l-11.5 50a1.6 1.6 0 0 0 .4 1.5 2 2 0 0 0 1.4.7l35-.1c8.2 0 16.8-6.6 18.7-14.8l8.4-36.6a1.6 1.6 0 0 0-.4-1.5 1.9 1.9 0 0 0-1.3-.5ZM164.6 0H128a2 2 0 0 0-1.8 1.4l-11.7 50.1a1.7 1.7 0 0 0 .4 1.5 1.8 1.8 0 0 0 1.4.7h49.1a2 2 0 0 0 1.8-1.4l8.7-37.4C178 6.8 172.7 0 164.6 0Z" style="isolation:isolate"/></svg>