<svg xmlns="http://www.w3.org/2000/svg" fill="none" viewBox="0 0 920 449"><path fill="#007131" d="M234.5 47.5c-16.5 2.9-44.8 7.9-63 11-18.1 3.1-48.1 8.3-66.5 11.5-18.4 3.2-35.6 6.1-38.3 6.4l-4.7.7v277.6l16.8 2.7c9.2 1.6 32.9 5.6 52.7 9.1 19.8 3.5 47 8.2 60.5 10.5 13.5 2.2 35.8 6.1 49.6 8.5 13.9 2.5 25.4 4.5 25.8 4.5.3 0 .6-8.8.6-19.5v-19.4l67.6-.3 67.6-.3 2.8-3.2c2.1-2.3 3-4.6 3.5-8.5.3-2.9.5-61.1.3-129.3-.3-118.2-.4-124.2-2.1-126.9-3.8-5.7-2.8-5.6-74.2-5.6H268V59.5c0-16-.1-17.5-1.7-17.4-1 0-15.3 2.5-31.8 5.4ZM398 214v125H268v-23.9l15.3-.3 15.2-.3v-27l-15.2-.3-15.3-.3V271h31v-27h-31v-15.9l15.3-.3 15.2-.3v-27l-15.2-.3-15.3-.3v-15.8l15.3-.3 15.2-.3.3-13.2.3-13.2-15.3-.3-15.3-.3-.3-7.7-.3-7.7 15.3-.3 15.3-.3v-27l-15.2-.3-15.3-.3V89h130v125Zm-191-65.5c0 .3-7.2 15-16.1 32.8l-16.1 32.3 16.6 33.2c9.1 18.2 16.2 33.3 15.8 33.5-.4.2-5.2 0-10.7-.4-5.5-.4-11.8-.7-14.1-.8l-4.1-.1-7.3-17.3c-4-9.4-8.5-20.6-10-24.6l-2.8-7.5-.7 3.5c-.4 1.8-3.2 9-6.2 15.9-2.9 6.9-6.8 15.8-8.5 19.9l-3.2 7.3-13-.7c-7.2-.4-13.2-.8-13.3-.9-.1-.1 6.6-13.7 14.9-30.2l15.2-30-13.3-29c-7.3-15.9-13.5-29.4-13.8-30.1-.6-1.4 2.7-2 16.3-2.8l10-.6 3.9 9.8c2.1 5.4 6 15.6 8.6 22.8 2.6 7.1 5 12.3 5.3 11.5.2-.8 1-3.3 1.7-5.5 1.6-5.4 15.9-38.8 17-40 .9-.9 6.7-1.4 24.7-2.3 1.7-.1 3.2 0 3.2.3Z"/><path fill="#007131" d="M315 127v14l27.3-.2 27.2-.3v-27l-27.2-.3-27.3-.2v14Zm0 43.5V184h55v-27h-55v13.5Zm.7 30.2c-.4.3-.7 6.6-.7 14V228l27.3-.2 27.2-.3v-27l-26.6-.3c-14.6-.1-26.8.1-27.2.5Zm-.7 56.8V271h55v-27h-55v13.5Zm.7 30.2c-.4.3-.7 6.6-.7 14V315h55.1l-.3-13.8-.3-13.7-26.6-.3c-14.6-.1-26.8.1-27.2.5ZM846 213v64.1l6.8-.3 6.7-.3v-127l-6.7-.3-6.8-.3V213Zm-317.3-57.3c-.4.3-.7 27.8-.7 61V277h64v-12l-24.7-.2-24.8-.3-.3-21.3c-.2-16.6 0-21.2 1-21.2.7-.1 9.9 0 20.4 0 10.5 0 19.8-.2 20.7-.6 1.3-.5 1.7-1.9 1.7-6.5V209h-44v-41h48v-13h-30.3c-16.7 0-30.7.3-31 .7Zm185.8 33.4c-16.8 2.5-30.8 16.3-34.6 33.9-.6 2.9-.9 9.8-.7 15.4.3 8.8.8 11 3.5 16.8 4.2 8.9 11 16 19.1 20 5.7 2.8 7.8 3.3 16.2 3.6 7.1.3 11.3 0 15.6-1.3 9.6-2.7 10.4-3.5 10.4-10.6 0-3.3-.3-5.9-.7-5.7-11.3 5.8-12.9 6.2-20.8 6.3-6.8 0-8.8-.4-13.5-2.8-11.5-5.8-16.5-16.1-15.8-32.6.3-8.6.7-10.3 3.8-15.9 1.8-3.5 5.2-7.9 7.4-9.8 8.2-7 22.6-8.3 33.9-3.1l5.7 2.6v-13.8l-5-1.5c-6.7-2-17.2-2.7-24.5-1.5Zm71.5 0c-23 4.5-36.6 30.7-30.6 59 1.9 8.8 5.4 15.4 11.3 21.1 7.1 6.9 12.7 9.1 24.8 9.6 11.6.4 21.5-1.4 28.2-5.4 4.3-2.5 4.3-2.5 4.3-8.4 0-3.3-.2-6-.5-6s-2.6 1.3-5.3 3c-5.2 3.2-15.3 6-21.8 6-14.6 0-26.3-10.5-28-25.4l-.7-5.6 30.9-.2 30.9-.3-.3-9c-.6-21.7-9.6-34.6-26.6-38.2-6.9-1.4-10.1-1.5-16.6-.2Zm18 13.1c2.5 1.3 5.7 4.1 7.2 6.3 2.8 3.9 5.5 14.6 4.3 16.5-.8 1.3-46.2 1.4-46.9.1-.9-1.4 2.4-10.2 5.5-14.7 6.6-9.7 19.7-13.3 29.9-8.2Zm-203.7-10.7c.4.8 2.8 4.8 5.5 8.7 9.3 14.1 21.7 34.1 21.5 34.8-.1.4-6.5 9.8-14.3 20.9-7.7 11-14 20.3-14 20.6 0 .3 3.5.5 7.7.3l7.6-.3 10.1-16.7c5.6-9.2 10.6-16.7 11.1-16.7.6 0 2.6 2.8 4.6 6.2 2 3.4 6.5 11 10 16.9l6.4 10.7 7.8.1c6 0 7.6-.3 7.1-1.3-.4-.6-6.8-10.3-14.2-21.4l-13.4-20.1 14.1-21.1c7.8-11.6 14.1-21.5 14.1-22.1 0-1.1-11.9-1.4-13.5-.2-.6.4-5.7 8.5-11.4 18s-10.7 17.2-11.2 17c-.5-.2-5.3-8.2-10.7-17.8l-9.9-17.5-7.8-.3c-6.6-.2-7.7-.1-7.2 1.3Z"/></svg>
