<svg xmlns="http://www.w3.org/2000/svg" fill="none" viewBox="0 0 104 15"><path fill="#2979FF" d="M8.24 10.97c0-.57-.2-1-.61-1.3-.4-.31-1.13-.63-2.18-.97a15.78 15.78 0 0 1-2.5-1C1.3 6.8.46 5.6.46 4.08c0-.79.23-1.49.67-2.1A4.4 4.4 0 0 1 3.05.52 7.34 7.34 0 0 1 5.87 0c1.05 0 1.99.2 2.8.57.83.38 1.47.9 1.92 1.6.45.68.68 1.47.68 2.34H8.25c0-.67-.22-1.18-.64-1.55a2.6 2.6 0 0 0-1.79-.56c-.74 0-1.31.15-1.72.47-.41.3-.62.71-.62 1.22 0 .48.24.87.72 1.2.48.31 1.2.62 2.13.9a9.2 9.2 0 0 1 3.76 1.91 3.8 3.8 0 0 1 1.18 2.85c0 1.26-.48 2.26-1.44 2.98A6.37 6.37 0 0 1 5.94 15a7.6 7.6 0 0 1-3.08-.61 4.95 4.95 0 0 1-2.13-1.7A4.33 4.33 0 0 1 0 10.21h3.04c0 1.6.97 2.41 2.9 2.41.72 0 1.29-.14 1.69-.43.4-.3.6-.7.6-1.22ZM23.38 8.47h-5.81v3.91h6.82v2.42h-9.85V.2h9.83v2.44h-6.8v3.48h5.8v2.35ZM39.44 7.83c0 1.44-.26 2.7-.77 3.78A5.74 5.74 0 0 1 33.2 15a5.81 5.81 0 0 1-5.48-3.36 8.55 8.55 0 0 1-.8-3.73V7.2c0-1.44.26-2.7.78-3.8A5.8 5.8 0 0 1 33.18 0c1.23 0 2.31.3 3.26.88.96.58 1.7 1.42 2.21 2.52.53 1.09.79 2.35.79 3.78v.65Zm-3.07-.66c0-1.53-.27-2.7-.83-3.49a2.7 2.7 0 0 0-2.36-1.2c-1.01 0-1.8.4-2.35 1.19-.55.78-.83 1.93-.84 3.45v.71c0 1.5.28 2.65.83 3.47a2.7 2.7 0 0 0 2.38 1.23c1.02 0 1.8-.4 2.34-1.18.55-.8.83-1.95.83-3.47v-.71ZM54.3 10.59 56.26.2h3.02l-3.26 14.6h-3.05l-2.4-9.77-2.38 9.77h-3.05L41.89.2h3.02l1.98 10.37L49.32.2h2.56l2.41 10.39ZM74.2 7.83c0 1.44-.25 2.7-.76 3.78A5.74 5.74 0 0 1 67.97 15a5.81 5.81 0 0 1-5.48-3.36 8.55 8.55 0 0 1-.8-3.73V7.2c0-1.44.26-2.7.78-3.8A5.8 5.8 0 0 1 67.95 0c1.23 0 2.31.3 3.26.88.96.58 1.7 1.42 2.21 2.52.53 1.09.79 2.35.79 3.78v.65Zm-3.06-.66c0-1.53-.28-2.7-.83-3.49a2.7 2.7 0 0 0-2.36-1.2c-1.02 0-1.8.4-2.35 1.19-.55.78-.83 1.93-.84 3.45v.71c0 1.5.28 2.65.83 3.47a2.7 2.7 0 0 0 2.38 1.23c1.02 0 1.8-.4 2.34-1.18.55-.8.82-1.95.83-3.47v-.71ZM83.05 9.46h-2.4v5.34H77.6V.2h5.46c1.74 0 3.08.38 4.02 1.15a3.97 3.97 0 0 1 1.41 3.26c0 1-.22 1.83-.65 2.5a4.41 4.41 0 0 1-1.97 1.58l3.18 5.97v.14H85.8l-2.76-5.34Zm-2.4-2.44h2.43c.76 0 1.35-.2 1.77-.57.42-.4.63-.92.63-1.6 0-.69-.2-1.23-.6-1.62-.39-.4-1-.6-1.8-.6h-2.44v4.39ZM96.62 8.94l-1.57 1.69v4.17h-3.03V.2h3.03v6.62L96.38 5l3.75-4.8h3.72L98.63 6.7 104 14.8h-3.6l-3.78-5.86Z"/></svg>
