<svg xmlns="http://www.w3.org/2000/svg" fill="none" viewBox="0 0 167 32"><path fill="#34495E" d="M16.14 0C24.9 0 32 7.25 32 16c0 8.64-6.91 15.81-15.53 16h-.81c-1.55 0-2.82-1.5-2.82-3.05 0-1.48.84-2.93 2.28-3.04h.65A10.1 10.1 0 0 0 26 15.89c0-5.6-4.53-10-10.15-10-5.52 0-9.6 4.4-9.73 9.87v.76c0 1.55-1.51 2.82-3.06 2.82-1.5 0-2.95-1.18-3.05-2.65L0 16.52v-.47C0 7.41 7.14.19 15.76 0h.38ZM8.5 21c1.2 0 2.4.78 2.5 2v4.59A2.46 2.46 0 0 1 8.6 30c-.43 0-.96-.06-1.3-.3l-.12-.11-4.76-4.96C2.1 24.29 2 23.8 2 23.29c0-1.27.92-2.2 2.12-2.28L4.3 21h4.2Zm138.48-8.2c.75 0 1.44.07 2.06.2 1.1.25 1.98.7 2.65 1.35 1.08 1.02 1.6 2.57 1.6 4.58 0 .94-.15 1.75-.44 2.48a5.1 5.1 0 0 1-1.33 1.9c-.59.53-1.28.9-2.1 1.17a8.38 8.38 0 0 1-4.59.11v-.02 3.73c0 .3-.23.5-.5.5h-3.04a.5.5 0 0 1-.35-.15.5.5 0 0 1-.14-.35V13.53c0-.3.23-.5.5-.5h3.04c.2 0 .38.12.46.3.18-.1.38-.18.58-.27a4.7 4.7 0 0 1 1.6-.26ZM54.94 8.53c.31 0 .52.25.52.52v2.17c0 .3-.24.52-.52.52h-4.8v12.28a.51.51 0 0 1-.52.51h-3.24a.51.51 0 0 1-.52-.51V11.73h-4.8a.51.51 0 0 1-.53-.5V9.04c0-.3.25-.52.52-.52h13.9Zm5.8 4.27c.99 0 1.86.14 2.65.4a5.2 5.2 0 0 1 3.31 3.07c.3.72.41 1.51.41 2.37 0 .9-.15 1.74-.44 2.45a4.58 4.58 0 0 1-1.33 1.88l-.03.03c-.59.5-1.27.9-2.01 1.14-.83.27-1.7.4-2.56.4-1.98 0-3.52-.55-4.65-1.6-.57-.53-1-1.19-1.28-1.91a6.3 6.3 0 0 1-.41-2.4c0-.85.15-1.61.44-2.33.3-.71.74-1.35 1.3-1.88a5.86 5.86 0 0 1 2.04-1.22c.83-.27 1.7-.4 2.56-.4Zm20.86 0c.33 0 .53.22.53.49v10.75c0 .3-.24.5-.53.5h-3.15c-.32 0-.55-.24-.55-.5L77.87 16H73.6l.02 8.04c0 .3-.26.5-.55.5h-3.18c-.33 0-.56-.23-.56-.5V13.3c0-.3.24-.49.54-.49H81.6Zm50.6 0c1 0 1.87.14 2.66.4a5.2 5.2 0 0 1 3.31 3.07c.3.72.4 1.51.4 2.37 0 .9-.14 1.74-.43 2.45a4.57 4.57 0 0 1-1.34 1.88l-.03.03c-.58.5-1.26.9-2 1.14-.83.27-1.7.4-2.56.4-1.98 0-3.52-.55-4.65-1.6-.57-.53-1-1.19-1.28-1.91a6.31 6.31 0 0 1-.41-2.4c0-.85.14-1.61.44-2.33.29-.71.73-1.35 1.3-1.88a5.86 5.86 0 0 1 2.04-1.22c.82-.27 1.69-.4 2.56-.4Zm-21.77-.53c.3 0 .5.23.5.5V23.8c0 .07 0 .14-.04.2a.5.5 0 0 1-.46.3h-2.93a.5.5 0 0 1-.36-.14.5.5 0 0 1-.14-.36v-5.36l-6.66 5.98a.42.42 0 0 1-.27.12h-.89a.5.5 0 0 1-.51-.5V13c0-.3.24-.5.5-.5h2.93a.5.5 0 0 1 .36.14.51.51 0 0 1 .15.36v5.36l6.65-5.98c.08-.07.17-.11.27-.12h.89Zm-20.01 0c.76 0 1.47.14 2.08.3.59.13 1.15.36 1.65.7l.04.02c.45.33.82.7 1.04 1.12v.03a3 3 0 0 1 .2 2.34c-.08.27-.24.51-.45.78-.18.22-.37.4-.58.55v.03c.4.21.74.48 1.01.78.52.58.77 1.25.77 2.03 0 .58-.13 1.07-.4 1.52a2.9 2.9 0 0 1-1.14 1.15c-.54.33-1.14.57-1.77.7-.67.15-1.44.2-2.33.2H84.8a.51.51 0 0 1-.52-.5v-11c0-.3.24-.52.52-.52h.03c1.16-.06 2.23-.09 3.18-.12.98-.03 1.8-.11 2.42-.11Zm28.3 0c.75 0 1.4.09 2 .23h.04c.57.14 1.12.38 1.62.7a4 4 0 0 1 1.1 1.13c.27.44.4.9.4 1.44 0 1-.43 1.8-1.26 2.32.42.32.7.55.87.71.27.26.45.53.57.82.15.3.2.62.2.95.01.6-.13 1.18-.41 1.7-.27.5-.7.92-1.26 1.27a5.5 5.5 0 0 1-1.86.7c-.69.15-1.47.25-2.34.25-2 0-3.71-.42-5.1-1.27a.51.51 0 0 1-.14-.71c0-.03.02-.03.02-.03l1.44-1.94c.19-.24.48-.27.72-.12.45.32.96.59 1.5.74a5.6 5.6 0 0 0 1.77.23c1.08 0 1.59-.26 1.59-.82a.7.7 0 0 0-.36-.65 3.2 3.2 0 0 0-1.62-.3h-.87c-.24 0-.38.04-.65.07a.53.53 0 0 1-.57-.47v-2a.5.5 0 0 1 .15-.36.5.5 0 0 1 .36-.15h1.76c.57 0 .99-.09 1.22-.24h.03a.49.49 0 0 0 .25-.44c0-.09-.03-.17-.06-.26s-.12-.15-.21-.2a4.97 4.97 0 0 0-.4-.19h-.02a4.06 4.06 0 0 0-.66-.05 6.7 6.7 0 0 0-3.06.76c-.24.12-.57.03-.69-.2l-1.05-1.98c-.11-.23-.02-.56.22-.67.03 0 .03-.03.06-.03a13.03 13.03 0 0 1 4.7-.94ZM16 10a6 6 0 1 1 0 12 6 6 0 0 1 0-12Zm74.84 9.73h-.04l-2.23.04v2.06h-.04c.37 0 .7.04 1 .04h1.3c.74 0 1.27-.1 1.6-.31a.88.88 0 0 0 .37-.76.74.74 0 0 0-.1-.41.99.99 0 0 0-.33-.31c-.2-.1-.4-.21-.67-.24-.28-.07-.57-.1-.86-.1Zm55.44-3.93c-.32 0-.61.06-.87.15-.17.06-.37.15-.6.27v5.25a3 3 0 0 0 1.48.33c.67 0 1.22-.06 1.67-.18.42-.12.78-.3 1.03-.51.26-.21.46-.51.58-.88.15-.46.23-.93.23-1.41a4.6 4.6 0 0 0-.2-1.45 1.9 1.9 0 0 0-.54-.88 2.5 2.5 0 0 0-1-.5 7.48 7.48 0 0 0-1.78-.2v.01Zm-85.55-.07a2.3 2.3 0 0 0-1.8.72c-.2.23-.38.54-.5.89a4.7 4.7 0 0 0-.12 1.29c0 1.03.21 1.8.63 2.28.39.46 1.01.69 1.82.69.38 0 .71-.06 1.01-.17.3-.12.54-.29.75-.55l.03-.02c.2-.23.35-.52.47-.9.12-.36.18-.82.18-1.33 0-1.01-.2-1.75-.62-2.24-.4-.46-1.02-.66-1.85-.66Zm71.46 0a2.3 2.3 0 0 0-1.78.72c-.21.23-.4.54-.5.89a4.7 4.7 0 0 0-.13 1.29c0 1.03.2 1.8.63 2.28.38.46 1 .69 1.81.69.4 0 .72-.06 1.02-.17.3-.12.53-.29.74-.55l.03-.02c.21-.23.36-.52.48-.9.12-.36.18-.82.18-1.33 0-1.01-.2-1.75-.63-2.24-.39-.46-1.01-.66-1.85-.66Zm-41.65-.26c-.52 0-.98 0-1.35.03-.22 0-.43.04-.65.04v1.53h1.85c.51 0 .88-.1 1.11-.27.17-.14.23-.34.23-.58a.7.7 0 0 0-.05-.27v-.04a.56.56 0 0 0-.17-.2 1.05 1.05 0 0 0-.38-.17c-.2-.05-.4-.07-.6-.07Zm-72.8-2.97c-.97 0-1.74.78-1.74 1.75a1.74 1.74 0 0 0 2.42 1.62 1.74 1.74 0 0 0 1.08-1.62c0-.97-.78-1.75-1.75-1.75ZM160.55 0a5.87 5.87 0 1 1 0 11.74 5.87 5.87 0 0 1 0-11.74Zm0 1.07a4.8 4.8 0 1 0 0 9.6 4.8 4.8 0 0 0 0-9.6Zm0 1.6c.73 0 1.28.15 1.63.46.35.31.53.78.53 1.4 0 .8-.37 1.37-1.1 1.7l1.6 2.84h-1.06l-1.36-2.56h-.92v2.56h-.93v-6.4h1.61Zm-.06.88h-.62v2.1h.65c.43 0 .75-.1.94-.28.2-.18.3-.45.3-.8 0-.37-.11-.63-.32-.78-.21-.16-.53-.24-.95-.24Z"/></svg>
