<svg xmlns="http://www.w3.org/2000/svg" fill="none" viewBox="0 0 70 70"><path fill="#EEEEEF" d="M67.95 5.05h-8.99c.04-1 .05-2 .05-3C59.01.9 58.1 0 56.96 0H13.04c-1.14 0-2.05.91-2.05 2.05 0 1 0 2 .05 3h-9C.92 5.05 0 5.97 0 7.1c0 9.2 2.4 17.86 6.77 24.41 4.3 6.48 10.04 10.2 16.25 10.55 1.3 1.44 2.8 2.7 4.44 3.73v9.12h-3.45a7.55 7.55 0 0 0-7.53 7.54v3.45h-.15a2.05 2.05 0 0 0 0 4.1h37.34a2.05 2.05 0 1 0 0-4.1h-.15v-3.45A7.54 7.54 0 0 0 46 54.91h-3.45V45.8a20.5 20.5 0 0 0 4.44-3.72c6.21-.36 11.95-4.08 16.25-10.55C67.6 24.96 70 16.28 70 7.1c0-1.13-.91-2.05-2.05-2.05ZM10.18 29.24c-3.59-5.4-5.72-12.48-6.02-20.09h7.11c.74 9.36 2.94 18 6.37 24.88.55 1.1 1.12 2.13 1.72 3.1-3.41-1.29-6.57-3.98-9.17-7.9h-.01Zm39.25 33.21v3.45H20.57v-3.45a3.45 3.45 0 0 1 3.45-3.44H46a3.45 3.45 0 0 1 3.44 3.45Zm-11-7.54h-6.87v-7.33c2.25.6 4.63.6 6.88 0v7.33Zm1.28-12.21-.27.13a9.92 9.92 0 0 1-4.44 1.1 9.92 9.92 0 0 1-4.7-1.23 16.5 16.5 0 0 1-4.9-4.13 32.33 32.33 0 0 1-4.1-6.37c-3.77-7.54-5.94-17.45-6.18-28.1h39.76c-.24 10.65-2.41 20.56-6.18 28.1a32.36 32.36 0 0 1-4.36 6.68 16.52 16.52 0 0 1-4.63 3.82Zm20.11-13.46c-2.6 3.91-5.76 6.6-9.17 7.89.6-.97 1.17-2 1.72-3.1C55.8 27.16 58 18.5 58.74 9.15h7.11c-.31 7.6-2.43 14.68-6.03 20.09Z"/></svg>
