<svg xmlns="http://www.w3.org/2000/svg" fill="none" viewBox="0 0 149 27"><path fill="#858585" d="M148.44 20.56c.24.8-.21 1.64-1 1.88l-12.92 3.91a1.5 1.5 0 0 1-.88-2.87L145.14 20l-3.48-11.48a1.5 1.5 0 0 1 2.87-.87l3.91 12.91ZM1 21l-.72-1.31v-.01a8.57 8.57 0 0 0 .15-.08 51.58 51.58 0 0 1 2.04-1.05l1.35 2.68a86.79 86.79 0 0 0-2.09 1.08L1 21Zm5.92-4.58c1.33-.6 2.85-1.27 4.52-1.98l1.17 2.77c-1.65.7-3.14 1.35-4.44 1.94l-1.25-2.73ZM16 12.6c1.45-.57 2.99-1.15 4.6-1.73l1.02 2.82c-1.59.57-3.1 1.14-4.53 1.7L16 12.59Zm9.25-3.34c1.5-.5 3.06-1 4.67-1.49l.87 2.87c-1.58.48-3.11.97-4.6 1.46l-.94-2.84Zm9.4-2.86c1.55-.42 3.13-.84 4.75-1.24l.72 2.92c-1.6.39-3.15.8-4.68 1.22l-.8-2.9Zm9.55-2.34c1.57-.35 3.18-.67 4.82-.97l.54 2.94c-1.6.3-3.18.62-4.73.96l-.63-2.93Zm9.67-1.8c1.6-.25 3.23-.48 4.87-.68l.37 2.98a153 153 0 0 0-4.78.66l-.46-2.96Zm9.77-1.2C65.25.91 66.89.8 68.55.7l.16 3c-1.62.09-3.22.2-4.81.35l-.27-2.99Zm9.84-.54L75.94.5v3c-.8 0-1.61 0-2.42.02l-.05-3ZM75.94.5c.9 0 1.8.01 2.69.04l-.08 3c-.87-.03-1.74-.04-2.61-.04v-3Zm8.05.3c1.79.14 3.57.31 5.34.52l-.35 2.98c-1.73-.2-3.47-.37-5.21-.5l.22-3Zm10.65 1.26c1.77.28 3.53.6 5.27.94l-.58 2.94a143 143 0 0 0-5.16-.92l.47-2.96Zm10.5 2.07c1.76.4 3.49.84 5.19 1.29l-.77 2.9c-1.67-.44-3.37-.87-5.1-1.27l.68-2.92Zm10.33 2.74c1.75.52 3.45 1.06 5.1 1.6l-.94 2.85c-1.62-.54-3.3-1.06-5.02-1.57l.86-2.88Zm10.14 3.33c1.75.63 3.42 1.25 5 1.87l-1.08 2.8c-1.56-.61-3.2-1.23-4.93-1.85l1.01-2.82Zm9.96 3.87c1.81.75 3.46 1.47 4.9 2.12l-1.23 2.74c-1.43-.64-3.04-1.35-4.82-2.1l1.16-2.76Zm9.74 4.4c.77.37 1.37.67 1.77.88l.46.24.12.06.03.02h.01L147 21l-.7 1.32h-.01l-.03-.01-.11-.06-.44-.23c-.39-.2-.97-.5-1.72-.86l1.32-2.7Zm3.13 2.1c.24.79-.21 1.63-1 1.87l-12.92 3.91a1.5 1.5 0 0 1-.88-2.87L145.14 20l-3.48-11.48a1.5 1.5 0 0 1 2.87-.87l3.91 12.91ZM1 21l-.72-1.31v-.01a8.57 8.57 0 0 0 .15-.08 51.58 51.58 0 0 1 2.04-1.05l1.35 2.68a86.79 86.79 0 0 0-2.09 1.08L1 21Zm5.92-4.58c1.33-.6 2.85-1.27 4.52-1.98l1.17 2.77c-1.65.7-3.14 1.35-4.44 1.94l-1.25-2.73ZM16 12.6c1.45-.57 2.99-1.15 4.6-1.73l1.02 2.82c-1.59.57-3.1 1.14-4.53 1.7L16 12.59Zm9.25-3.34c1.5-.5 3.06-1 4.67-1.49l.87 2.87c-1.58.48-3.11.97-4.6 1.46l-.94-2.84Zm9.4-2.86c1.55-.42 3.13-.84 4.75-1.24l.72 2.92c-1.6.39-3.15.8-4.68 1.22l-.8-2.9Zm9.55-2.34c1.57-.35 3.18-.67 4.82-.97l.54 2.94c-1.6.3-3.18.62-4.73.96l-.63-2.93Zm9.67-1.8c1.6-.25 3.23-.48 4.87-.68l.37 2.98a153 153 0 0 0-4.78.66l-.46-2.96Zm9.77-1.2C65.25.91 66.89.8 68.55.7l.16 3c-1.62.09-3.22.2-4.81.35l-.27-2.99Zm9.84-.54L75.94.5v3c-.8 0-1.61 0-2.42.02l-.05-3ZM75.94.5c.9 0 1.8.01 2.69.04l-.08 3c-.87-.03-1.74-.04-2.61-.04v-3Zm8.05.3c1.79.14 3.57.31 5.34.52l-.35 2.98c-1.73-.2-3.47-.37-5.21-.5l.22-3Zm10.65 1.26c1.77.28 3.53.6 5.27.94l-.58 2.94a143 143 0 0 0-5.16-.92l.47-2.96Zm10.5 2.07c1.76.4 3.49.84 5.19 1.29l-.77 2.9c-1.67-.44-3.37-.87-5.1-1.27l.68-2.92Zm10.33 2.74c1.75.52 3.45 1.06 5.1 1.6l-.94 2.85c-1.62-.54-3.3-1.06-5.02-1.57l.86-2.88Zm10.14 3.33c1.75.63 3.42 1.25 5 1.87l-1.08 2.8c-1.56-.61-3.2-1.23-4.93-1.85l1.01-2.82Zm9.96 3.87c1.81.75 3.46 1.47 4.9 2.12l-1.23 2.74c-1.43-.64-3.04-1.35-4.82-2.1l1.16-2.76Zm9.74 4.4c.77.37 1.37.67 1.77.88l.46.24.12.06.03.02h.01L147 21l-.7 1.32h-.01l-.03-.01-.11-.06-.44-.23c-.39-.2-.97-.5-1.72-.86l1.32-2.7Z"/></svg>
