<svg xmlns="http://www.w3.org/2000/svg" fill="none" viewBox="0 0 130 130"><path fill="#686E74" d="M73.52 84.78a15.46 15.46 0 0 0-8.56-28.35 15.46 15.46 0 0 0-8.57 28.35A24.77 24.77 0 0 0 40.16 108h4.16c0-11.4 9.3-20.7 20.72-20.7A20.74 20.74 0 0 1 85.76 108h4.16a25.03 25.03 0 0 0-16.4-23.22Zm-8.56-1.55a11.36 11.36 0 0 1-11.34-11.32c0-6.27 5.14-11.32 11.34-11.32 6.28 0 11.34 5.13 11.34 11.32a11.3 11.3 0 0 1-11.34 11.32Z"/><path fill="#686E74" d="M94.25 74.44A15.46 15.46 0 1 0 74.99 50.4a15.13 15.13 0 0 0-2.69 3.34 15.9 15.9 0 0 1 3.67 1.95 12.6 12.6 0 0 1 2.78-3.1 11.36 11.36 0 0 1 18.27 8.96 11.3 11.3 0 0 1-12.48 11.25 19.12 19.12 0 0 1-.74 4.32c.57-.09 1.15-.17 1.8-.17a20.64 20.64 0 0 1 20.64 20.7h4.16a24.59 24.59 0 0 0-16.15-23.22ZM44.32 77.04c.57 0 1.22.09 1.8.17-.41-1.39-.66-2.85-.74-4.32-.33 0-.73.08-1.06.08A11.3 11.3 0 0 1 32.9 61.65a11.36 11.36 0 0 1 21.05-5.87 26.2 26.2 0 0 1 3.67-1.95 15.13 15.13 0 0 0-2.7-3.34 15.48 15.48 0 0 0-26.19 11.16c0 5.37 2.78 10.1 6.94 12.87a24.77 24.77 0 0 0-16.23 23.22h4.16a20.71 20.71 0 0 1 20.72-20.7Z"/><path fill="#EB0D3A" d="M108.68 60.02a15.46 15.46 0 1 0-19.25-24.03 15.13 15.13 0 0 0-2.69 3.34 15.9 15.9 0 0 1 3.67 1.95 12.6 12.6 0 0 1 2.77-3.1 11.36 11.36 0 1 1 11.67 19.3 17.95 17.95 0 0 1 0 5.8 20.61 20.61 0 0 1 15.9 20.04h4.17a24.5 24.5 0 0 0-16.24-23.3ZM24.82 60.42c0-1.05.08-2.03.25-3A11.36 11.36 0 1 1 39.5 41.2a26.2 26.2 0 0 1 3.67-1.97 15.13 15.13 0 0 0-2.7-3.34A15.48 15.48 0 0 0 14.3 47.06c.01 5.38 2.78 10.1 6.94 12.88A24.88 24.88 0 0 0 5 83.24h4.16c0-9.78 6.77-17.93 15.9-20.05a16.6 16.6 0 0 1-.24-2.77ZM64.96 35.74c5.55 0 10.11 4 11.1 9.2 2.28-1.38 3.9-1.62 3.9-1.62a15.5 15.5 0 0 0-30.01 0s1.63.32 3.91 1.63c1.07-5.3 5.63-9.2 11.1-9.2Z"/></svg>
